G04 #@! TF.GenerationSoftware,KiCad,Pcbnew,8.0.2*
G04 #@! TF.CreationDate,2024-05-26T03:41:07+02:00*
G04 #@! TF.ProjectId,universalConnectorBoard,756e6976-6572-4736-916c-436f6e6e6563,rev?*
G04 #@! TF.SameCoordinates,Original*
G04 #@! TF.FileFunction,Soldermask,Top*
G04 #@! TF.FilePolarity,Negative*
%FSLAX46Y46*%
G04 Gerber Fmt 4.6, Leading zero omitted, Abs format (unit mm)*
G04 Created by KiCad (PCBNEW 8.0.2) date 2024-05-26 03:41:07*
%MOMM*%
%LPD*%
G01*
G04 APERTURE LIST*
G04 Aperture macros list*
%AMRoundRect*
0 Rectangle with rounded corners*
0 $1 Rounding radius*
0 $2 $3 $4 $5 $6 $7 $8 $9 X,Y pos of 4 corners*
0 Add a 4 corners polygon primitive as box body*
4,1,4,$2,$3,$4,$5,$6,$7,$8,$9,$2,$3,0*
0 Add four circle primitives for the rounded corners*
1,1,$1+$1,$2,$3*
1,1,$1+$1,$4,$5*
1,1,$1+$1,$6,$7*
1,1,$1+$1,$8,$9*
0 Add four rect primitives between the rounded corners*
20,1,$1+$1,$2,$3,$4,$5,0*
20,1,$1+$1,$4,$5,$6,$7,0*
20,1,$1+$1,$6,$7,$8,$9,0*
20,1,$1+$1,$8,$9,$2,$3,0*%
%AMFreePoly0*
4,1,19,0.500000,-0.750000,0.000000,-0.750000,0.000000,-0.744911,-0.071157,-0.744911,-0.207708,-0.704816,-0.327430,-0.627875,-0.420627,-0.520320,-0.479746,-0.390866,-0.500000,-0.250000,-0.500000,0.250000,-0.479746,0.390866,-0.420627,0.520320,-0.327430,0.627875,-0.207708,0.704816,-0.071157,0.744911,0.000000,0.744911,0.000000,0.750000,0.500000,0.750000,0.500000,-0.750000,0.500000,-0.750000,
$1*%
%AMFreePoly1*
4,1,19,0.000000,0.744911,0.071157,0.744911,0.207708,0.704816,0.327430,0.627875,0.420627,0.520320,0.479746,0.390866,0.500000,0.250000,0.500000,-0.250000,0.479746,-0.390866,0.420627,-0.520320,0.327430,-0.627875,0.207708,-0.704816,0.071157,-0.744911,0.000000,-0.744911,0.000000,-0.750000,-0.500000,-0.750000,-0.500000,0.750000,0.000000,0.750000,0.000000,0.744911,0.000000,0.744911,
$1*%
G04 Aperture macros list end*
%ADD10C,0.100000*%
%ADD11C,0.150000*%
%ADD12C,0.300000*%
%ADD13C,0.400000*%
%ADD14O,1.800000X1.800000*%
%ADD15O,1.500000X1.500000*%
%ADD16O,1.700000X1.700000*%
%ADD17R,1.700000X3.500000*%
%ADD18R,1.700000X1.700000*%
%ADD19R,3.500000X1.700000*%
%ADD20C,1.280000*%
%ADD21RoundRect,0.102000X-0.762000X-0.762000X0.762000X-0.762000X0.762000X0.762000X-0.762000X0.762000X0*%
%ADD22C,1.728000*%
%ADD23C,6.404000*%
%ADD24R,2.900000X3.200000*%
%ADD25RoundRect,0.237500X-0.237500X0.300000X-0.237500X-0.300000X0.237500X-0.300000X0.237500X0.300000X0*%
%ADD26RoundRect,0.237500X0.237500X-0.300000X0.237500X0.300000X-0.237500X0.300000X-0.237500X-0.300000X0*%
%ADD27RoundRect,0.250000X-0.725000X0.600000X-0.725000X-0.600000X0.725000X-0.600000X0.725000X0.600000X0*%
%ADD28O,1.950000X1.700000*%
%ADD29FreePoly0,180.000000*%
%ADD30FreePoly1,180.000000*%
%ADD31RoundRect,0.237500X0.237500X-0.250000X0.237500X0.250000X-0.237500X0.250000X-0.237500X-0.250000X0*%
%ADD32RoundRect,0.237500X-0.250000X-0.237500X0.250000X-0.237500X0.250000X0.237500X-0.250000X0.237500X0*%
%ADD33R,5.100000X2.150000*%
%ADD34RoundRect,0.237500X0.300000X0.237500X-0.300000X0.237500X-0.300000X-0.237500X0.300000X-0.237500X0*%
%ADD35RoundRect,0.237500X0.250000X0.237500X-0.250000X0.237500X-0.250000X-0.237500X0.250000X-0.237500X0*%
%ADD36RoundRect,0.237500X-0.300000X-0.237500X0.300000X-0.237500X0.300000X0.237500X-0.300000X0.237500X0*%
%ADD37RoundRect,0.250000X-0.600000X-0.750000X0.600000X-0.750000X0.600000X0.750000X-0.600000X0.750000X0*%
%ADD38O,1.700000X2.000000*%
%ADD39R,1.525000X0.650000*%
%ADD40RoundRect,0.237500X-0.287500X-0.237500X0.287500X-0.237500X0.287500X0.237500X-0.287500X0.237500X0*%
%ADD41RoundRect,0.250000X-0.600000X-0.725000X0.600000X-0.725000X0.600000X0.725000X-0.600000X0.725000X0*%
%ADD42O,1.700000X1.950000*%
%ADD43RoundRect,0.237500X-0.237500X0.250000X-0.237500X-0.250000X0.237500X-0.250000X0.237500X0.250000X0*%
%ADD44RoundRect,0.150000X0.150000X-0.587500X0.150000X0.587500X-0.150000X0.587500X-0.150000X-0.587500X0*%
%ADD45RoundRect,0.250000X0.600000X0.725000X-0.600000X0.725000X-0.600000X-0.725000X0.600000X-0.725000X0*%
%ADD46C,2.025000*%
%ADD47RoundRect,0.150000X-0.587500X-0.150000X0.587500X-0.150000X0.587500X0.150000X-0.587500X0.150000X0*%
%ADD48R,1.950000X0.650000*%
%ADD49RoundRect,0.102000X-0.754000X-0.754000X0.754000X-0.754000X0.754000X0.754000X-0.754000X0.754000X0*%
%ADD50C,1.712000*%
%ADD51R,0.850000X0.250000*%
%ADD52R,0.250000X0.850000*%
%ADD53R,1.026000X1.075000*%
G04 APERTURE END LIST*
D10*
D11*
X177002200Y-166007200D02*
X285002200Y-166007200D01*
X285002200Y-198007200D01*
X177002200Y-198007200D01*
X177002200Y-166007200D01*
D10*
D11*
X10000000Y-10000000D02*
X287002200Y-10000000D01*
X287002200Y-200007200D01*
X10000000Y-200007200D01*
X10000000Y-10000000D01*
D10*
D11*
X12000000Y-12000000D02*
X285002200Y-12000000D01*
X285002200Y-198007200D01*
X12000000Y-198007200D01*
X12000000Y-12000000D01*
D10*
D11*
X60000000Y-12000000D02*
X60000000Y-10000000D01*
D10*
D11*
X110000000Y-12000000D02*
X110000000Y-10000000D01*
D10*
D11*
X160000000Y-12000000D02*
X160000000Y-10000000D01*
D10*
D11*
X210000000Y-12000000D02*
X210000000Y-10000000D01*
D10*
D11*
X260000000Y-12000000D02*
X260000000Y-10000000D01*
D10*
D11*
X36089160Y-11593604D02*
X35346303Y-11593604D01*
X35717731Y-11593604D02*
X35717731Y-10293604D01*
X35717731Y-10293604D02*
X35593922Y-10479319D01*
X35593922Y-10479319D02*
X35470112Y-10603128D01*
X35470112Y-10603128D02*
X35346303Y-10665033D01*
D10*
D11*
X85346303Y-10417414D02*
X85408207Y-10355509D01*
X85408207Y-10355509D02*
X85532017Y-10293604D01*
X85532017Y-10293604D02*
X85841541Y-10293604D01*
X85841541Y-10293604D02*
X85965350Y-10355509D01*
X85965350Y-10355509D02*
X86027255Y-10417414D01*
X86027255Y-10417414D02*
X86089160Y-10541223D01*
X86089160Y-10541223D02*
X86089160Y-10665033D01*
X86089160Y-10665033D02*
X86027255Y-10850747D01*
X86027255Y-10850747D02*
X85284398Y-11593604D01*
X85284398Y-11593604D02*
X86089160Y-11593604D01*
D10*
D11*
X135284398Y-10293604D02*
X136089160Y-10293604D01*
X136089160Y-10293604D02*
X135655826Y-10788842D01*
X135655826Y-10788842D02*
X135841541Y-10788842D01*
X135841541Y-10788842D02*
X135965350Y-10850747D01*
X135965350Y-10850747D02*
X136027255Y-10912652D01*
X136027255Y-10912652D02*
X136089160Y-11036461D01*
X136089160Y-11036461D02*
X136089160Y-11345985D01*
X136089160Y-11345985D02*
X136027255Y-11469795D01*
X136027255Y-11469795D02*
X135965350Y-11531700D01*
X135965350Y-11531700D02*
X135841541Y-11593604D01*
X135841541Y-11593604D02*
X135470112Y-11593604D01*
X135470112Y-11593604D02*
X135346303Y-11531700D01*
X135346303Y-11531700D02*
X135284398Y-11469795D01*
D10*
D11*
X185965350Y-10726938D02*
X185965350Y-11593604D01*
X185655826Y-10231700D02*
X185346303Y-11160271D01*
X185346303Y-11160271D02*
X186151064Y-11160271D01*
D10*
D11*
X236027255Y-10293604D02*
X235408207Y-10293604D01*
X235408207Y-10293604D02*
X235346303Y-10912652D01*
X235346303Y-10912652D02*
X235408207Y-10850747D01*
X235408207Y-10850747D02*
X235532017Y-10788842D01*
X235532017Y-10788842D02*
X235841541Y-10788842D01*
X235841541Y-10788842D02*
X235965350Y-10850747D01*
X235965350Y-10850747D02*
X236027255Y-10912652D01*
X236027255Y-10912652D02*
X236089160Y-11036461D01*
X236089160Y-11036461D02*
X236089160Y-11345985D01*
X236089160Y-11345985D02*
X236027255Y-11469795D01*
X236027255Y-11469795D02*
X235965350Y-11531700D01*
X235965350Y-11531700D02*
X235841541Y-11593604D01*
X235841541Y-11593604D02*
X235532017Y-11593604D01*
X235532017Y-11593604D02*
X235408207Y-11531700D01*
X235408207Y-11531700D02*
X235346303Y-11469795D01*
D10*
D11*
X285965350Y-10293604D02*
X285717731Y-10293604D01*
X285717731Y-10293604D02*
X285593922Y-10355509D01*
X285593922Y-10355509D02*
X285532017Y-10417414D01*
X285532017Y-10417414D02*
X285408207Y-10603128D01*
X285408207Y-10603128D02*
X285346303Y-10850747D01*
X285346303Y-10850747D02*
X285346303Y-11345985D01*
X285346303Y-11345985D02*
X285408207Y-11469795D01*
X285408207Y-11469795D02*
X285470112Y-11531700D01*
X285470112Y-11531700D02*
X285593922Y-11593604D01*
X285593922Y-11593604D02*
X285841541Y-11593604D01*
X285841541Y-11593604D02*
X285965350Y-11531700D01*
X285965350Y-11531700D02*
X286027255Y-11469795D01*
X286027255Y-11469795D02*
X286089160Y-11345985D01*
X286089160Y-11345985D02*
X286089160Y-11036461D01*
X286089160Y-11036461D02*
X286027255Y-10912652D01*
X286027255Y-10912652D02*
X285965350Y-10850747D01*
X285965350Y-10850747D02*
X285841541Y-10788842D01*
X285841541Y-10788842D02*
X285593922Y-10788842D01*
X285593922Y-10788842D02*
X285470112Y-10850747D01*
X285470112Y-10850747D02*
X285408207Y-10912652D01*
X285408207Y-10912652D02*
X285346303Y-11036461D01*
D10*
D11*
X60000000Y-198007200D02*
X60000000Y-200007200D01*
D10*
D11*
X110000000Y-198007200D02*
X110000000Y-200007200D01*
D10*
D11*
X160000000Y-198007200D02*
X160000000Y-200007200D01*
D10*
D11*
X210000000Y-198007200D02*
X210000000Y-200007200D01*
D10*
D11*
X260000000Y-198007200D02*
X260000000Y-200007200D01*
D10*
D11*
X36089160Y-199600804D02*
X35346303Y-199600804D01*
X35717731Y-199600804D02*
X35717731Y-198300804D01*
X35717731Y-198300804D02*
X35593922Y-198486519D01*
X35593922Y-198486519D02*
X35470112Y-198610328D01*
X35470112Y-198610328D02*
X35346303Y-198672233D01*
D10*
D11*
X85346303Y-198424614D02*
X85408207Y-198362709D01*
X85408207Y-198362709D02*
X85532017Y-198300804D01*
X85532017Y-198300804D02*
X85841541Y-198300804D01*
X85841541Y-198300804D02*
X85965350Y-198362709D01*
X85965350Y-198362709D02*
X86027255Y-198424614D01*
X86027255Y-198424614D02*
X86089160Y-198548423D01*
X86089160Y-198548423D02*
X86089160Y-198672233D01*
X86089160Y-198672233D02*
X86027255Y-198857947D01*
X86027255Y-198857947D02*
X85284398Y-199600804D01*
X85284398Y-199600804D02*
X86089160Y-199600804D01*
D10*
D11*
X135284398Y-198300804D02*
X136089160Y-198300804D01*
X136089160Y-198300804D02*
X135655826Y-198796042D01*
X135655826Y-198796042D02*
X135841541Y-198796042D01*
X135841541Y-198796042D02*
X135965350Y-198857947D01*
X135965350Y-198857947D02*
X136027255Y-198919852D01*
X136027255Y-198919852D02*
X136089160Y-199043661D01*
X136089160Y-199043661D02*
X136089160Y-199353185D01*
X136089160Y-199353185D02*
X136027255Y-199476995D01*
X136027255Y-199476995D02*
X135965350Y-199538900D01*
X135965350Y-199538900D02*
X135841541Y-199600804D01*
X135841541Y-199600804D02*
X135470112Y-199600804D01*
X135470112Y-199600804D02*
X135346303Y-199538900D01*
X135346303Y-199538900D02*
X135284398Y-199476995D01*
D10*
D11*
X185965350Y-198734138D02*
X185965350Y-199600804D01*
X185655826Y-198238900D02*
X185346303Y-199167471D01*
X185346303Y-199167471D02*
X186151064Y-199167471D01*
D10*
D11*
X236027255Y-198300804D02*
X235408207Y-198300804D01*
X235408207Y-198300804D02*
X235346303Y-198919852D01*
X235346303Y-198919852D02*
X235408207Y-198857947D01*
X235408207Y-198857947D02*
X235532017Y-198796042D01*
X235532017Y-198796042D02*
X235841541Y-198796042D01*
X235841541Y-198796042D02*
X235965350Y-198857947D01*
X235965350Y-198857947D02*
X236027255Y-198919852D01*
X236027255Y-198919852D02*
X236089160Y-199043661D01*
X236089160Y-199043661D02*
X236089160Y-199353185D01*
X236089160Y-199353185D02*
X236027255Y-199476995D01*
X236027255Y-199476995D02*
X235965350Y-199538900D01*
X235965350Y-199538900D02*
X235841541Y-199600804D01*
X235841541Y-199600804D02*
X235532017Y-199600804D01*
X235532017Y-199600804D02*
X235408207Y-199538900D01*
X235408207Y-199538900D02*
X235346303Y-199476995D01*
D10*
D11*
X285965350Y-198300804D02*
X285717731Y-198300804D01*
X285717731Y-198300804D02*
X285593922Y-198362709D01*
X285593922Y-198362709D02*
X285532017Y-198424614D01*
X285532017Y-198424614D02*
X285408207Y-198610328D01*
X285408207Y-198610328D02*
X285346303Y-198857947D01*
X285346303Y-198857947D02*
X285346303Y-199353185D01*
X285346303Y-199353185D02*
X285408207Y-199476995D01*
X285408207Y-199476995D02*
X285470112Y-199538900D01*
X285470112Y-199538900D02*
X285593922Y-199600804D01*
X285593922Y-199600804D02*
X285841541Y-199600804D01*
X285841541Y-199600804D02*
X285965350Y-199538900D01*
X285965350Y-199538900D02*
X286027255Y-199476995D01*
X286027255Y-199476995D02*
X286089160Y-199353185D01*
X286089160Y-199353185D02*
X286089160Y-199043661D01*
X286089160Y-199043661D02*
X286027255Y-198919852D01*
X286027255Y-198919852D02*
X285965350Y-198857947D01*
X285965350Y-198857947D02*
X285841541Y-198796042D01*
X285841541Y-198796042D02*
X285593922Y-198796042D01*
X285593922Y-198796042D02*
X285470112Y-198857947D01*
X285470112Y-198857947D02*
X285408207Y-198919852D01*
X285408207Y-198919852D02*
X285346303Y-199043661D01*
D10*
D11*
X10000000Y-60000000D02*
X12000000Y-60000000D01*
D10*
D11*
X10000000Y-110000000D02*
X12000000Y-110000000D01*
D10*
D11*
X10000000Y-160000000D02*
X12000000Y-160000000D01*
D10*
D11*
X10690476Y-35222176D02*
X11309523Y-35222176D01*
X10566666Y-35593604D02*
X10999999Y-34293604D01*
X10999999Y-34293604D02*
X11433333Y-35593604D01*
D10*
D11*
X11092857Y-84912652D02*
X11278571Y-84974557D01*
X11278571Y-84974557D02*
X11340476Y-85036461D01*
X11340476Y-85036461D02*
X11402380Y-85160271D01*
X11402380Y-85160271D02*
X11402380Y-85345985D01*
X11402380Y-85345985D02*
X11340476Y-85469795D01*
X11340476Y-85469795D02*
X11278571Y-85531700D01*
X11278571Y-85531700D02*
X11154761Y-85593604D01*
X11154761Y-85593604D02*
X10659523Y-85593604D01*
X10659523Y-85593604D02*
X10659523Y-84293604D01*
X10659523Y-84293604D02*
X11092857Y-84293604D01*
X11092857Y-84293604D02*
X11216666Y-84355509D01*
X11216666Y-84355509D02*
X11278571Y-84417414D01*
X11278571Y-84417414D02*
X11340476Y-84541223D01*
X11340476Y-84541223D02*
X11340476Y-84665033D01*
X11340476Y-84665033D02*
X11278571Y-84788842D01*
X11278571Y-84788842D02*
X11216666Y-84850747D01*
X11216666Y-84850747D02*
X11092857Y-84912652D01*
X11092857Y-84912652D02*
X10659523Y-84912652D01*
D10*
D11*
X11402380Y-135469795D02*
X11340476Y-135531700D01*
X11340476Y-135531700D02*
X11154761Y-135593604D01*
X11154761Y-135593604D02*
X11030952Y-135593604D01*
X11030952Y-135593604D02*
X10845238Y-135531700D01*
X10845238Y-135531700D02*
X10721428Y-135407890D01*
X10721428Y-135407890D02*
X10659523Y-135284080D01*
X10659523Y-135284080D02*
X10597619Y-135036461D01*
X10597619Y-135036461D02*
X10597619Y-134850747D01*
X10597619Y-134850747D02*
X10659523Y-134603128D01*
X10659523Y-134603128D02*
X10721428Y-134479319D01*
X10721428Y-134479319D02*
X10845238Y-134355509D01*
X10845238Y-134355509D02*
X11030952Y-134293604D01*
X11030952Y-134293604D02*
X11154761Y-134293604D01*
X11154761Y-134293604D02*
X11340476Y-134355509D01*
X11340476Y-134355509D02*
X11402380Y-134417414D01*
D10*
D11*
X10659523Y-185593604D02*
X10659523Y-184293604D01*
X10659523Y-184293604D02*
X10969047Y-184293604D01*
X10969047Y-184293604D02*
X11154761Y-184355509D01*
X11154761Y-184355509D02*
X11278571Y-184479319D01*
X11278571Y-184479319D02*
X11340476Y-184603128D01*
X11340476Y-184603128D02*
X11402380Y-184850747D01*
X11402380Y-184850747D02*
X11402380Y-185036461D01*
X11402380Y-185036461D02*
X11340476Y-185284080D01*
X11340476Y-185284080D02*
X11278571Y-185407890D01*
X11278571Y-185407890D02*
X11154761Y-185531700D01*
X11154761Y-185531700D02*
X10969047Y-185593604D01*
X10969047Y-185593604D02*
X10659523Y-185593604D01*
D10*
D11*
X287002200Y-60000000D02*
X285002200Y-60000000D01*
D10*
D11*
X287002200Y-110000000D02*
X285002200Y-110000000D01*
D10*
D11*
X287002200Y-160000000D02*
X285002200Y-160000000D01*
D10*
D11*
X285692676Y-35222176D02*
X286311723Y-35222176D01*
X285568866Y-35593604D02*
X286002199Y-34293604D01*
X286002199Y-34293604D02*
X286435533Y-35593604D01*
D10*
D11*
X286095057Y-84912652D02*
X286280771Y-84974557D01*
X286280771Y-84974557D02*
X286342676Y-85036461D01*
X286342676Y-85036461D02*
X286404580Y-85160271D01*
X286404580Y-85160271D02*
X286404580Y-85345985D01*
X286404580Y-85345985D02*
X286342676Y-85469795D01*
X286342676Y-85469795D02*
X286280771Y-85531700D01*
X286280771Y-85531700D02*
X286156961Y-85593604D01*
X286156961Y-85593604D02*
X285661723Y-85593604D01*
X285661723Y-85593604D02*
X285661723Y-84293604D01*
X285661723Y-84293604D02*
X286095057Y-84293604D01*
X286095057Y-84293604D02*
X286218866Y-84355509D01*
X286218866Y-84355509D02*
X286280771Y-84417414D01*
X286280771Y-84417414D02*
X286342676Y-84541223D01*
X286342676Y-84541223D02*
X286342676Y-84665033D01*
X286342676Y-84665033D02*
X286280771Y-84788842D01*
X286280771Y-84788842D02*
X286218866Y-84850747D01*
X286218866Y-84850747D02*
X286095057Y-84912652D01*
X286095057Y-84912652D02*
X285661723Y-84912652D01*
D10*
D11*
X286404580Y-135469795D02*
X286342676Y-135531700D01*
X286342676Y-135531700D02*
X286156961Y-135593604D01*
X286156961Y-135593604D02*
X286033152Y-135593604D01*
X286033152Y-135593604D02*
X285847438Y-135531700D01*
X285847438Y-135531700D02*
X285723628Y-135407890D01*
X285723628Y-135407890D02*
X285661723Y-135284080D01*
X285661723Y-135284080D02*
X285599819Y-135036461D01*
X285599819Y-135036461D02*
X285599819Y-134850747D01*
X285599819Y-134850747D02*
X285661723Y-134603128D01*
X285661723Y-134603128D02*
X285723628Y-134479319D01*
X285723628Y-134479319D02*
X285847438Y-134355509D01*
X285847438Y-134355509D02*
X286033152Y-134293604D01*
X286033152Y-134293604D02*
X286156961Y-134293604D01*
X286156961Y-134293604D02*
X286342676Y-134355509D01*
X286342676Y-134355509D02*
X286404580Y-134417414D01*
D10*
D11*
X285661723Y-185593604D02*
X285661723Y-184293604D01*
X285661723Y-184293604D02*
X285971247Y-184293604D01*
X285971247Y-184293604D02*
X286156961Y-184355509D01*
X286156961Y-184355509D02*
X286280771Y-184479319D01*
X286280771Y-184479319D02*
X286342676Y-184603128D01*
X286342676Y-184603128D02*
X286404580Y-184850747D01*
X286404580Y-184850747D02*
X286404580Y-185036461D01*
X286404580Y-185036461D02*
X286342676Y-185284080D01*
X286342676Y-185284080D02*
X286280771Y-185407890D01*
X286280771Y-185407890D02*
X286156961Y-185531700D01*
X286156961Y-185531700D02*
X285971247Y-185593604D01*
X285971247Y-185593604D02*
X285661723Y-185593604D01*
D10*
D11*
X200458026Y-193793328D02*
X200458026Y-192293328D01*
X200458026Y-192293328D02*
X200815169Y-192293328D01*
X200815169Y-192293328D02*
X201029455Y-192364757D01*
X201029455Y-192364757D02*
X201172312Y-192507614D01*
X201172312Y-192507614D02*
X201243741Y-192650471D01*
X201243741Y-192650471D02*
X201315169Y-192936185D01*
X201315169Y-192936185D02*
X201315169Y-193150471D01*
X201315169Y-193150471D02*
X201243741Y-193436185D01*
X201243741Y-193436185D02*
X201172312Y-193579042D01*
X201172312Y-193579042D02*
X201029455Y-193721900D01*
X201029455Y-193721900D02*
X200815169Y-193793328D01*
X200815169Y-193793328D02*
X200458026Y-193793328D01*
X202600884Y-193793328D02*
X202600884Y-193007614D01*
X202600884Y-193007614D02*
X202529455Y-192864757D01*
X202529455Y-192864757D02*
X202386598Y-192793328D01*
X202386598Y-192793328D02*
X202100884Y-192793328D01*
X202100884Y-192793328D02*
X201958026Y-192864757D01*
X202600884Y-193721900D02*
X202458026Y-193793328D01*
X202458026Y-193793328D02*
X202100884Y-193793328D01*
X202100884Y-193793328D02*
X201958026Y-193721900D01*
X201958026Y-193721900D02*
X201886598Y-193579042D01*
X201886598Y-193579042D02*
X201886598Y-193436185D01*
X201886598Y-193436185D02*
X201958026Y-193293328D01*
X201958026Y-193293328D02*
X202100884Y-193221900D01*
X202100884Y-193221900D02*
X202458026Y-193221900D01*
X202458026Y-193221900D02*
X202600884Y-193150471D01*
X203100884Y-192793328D02*
X203672312Y-192793328D01*
X203315169Y-192293328D02*
X203315169Y-193579042D01*
X203315169Y-193579042D02*
X203386598Y-193721900D01*
X203386598Y-193721900D02*
X203529455Y-193793328D01*
X203529455Y-193793328D02*
X203672312Y-193793328D01*
X204743741Y-193721900D02*
X204600884Y-193793328D01*
X204600884Y-193793328D02*
X204315170Y-193793328D01*
X204315170Y-193793328D02*
X204172312Y-193721900D01*
X204172312Y-193721900D02*
X204100884Y-193579042D01*
X204100884Y-193579042D02*
X204100884Y-193007614D01*
X204100884Y-193007614D02*
X204172312Y-192864757D01*
X204172312Y-192864757D02*
X204315170Y-192793328D01*
X204315170Y-192793328D02*
X204600884Y-192793328D01*
X204600884Y-192793328D02*
X204743741Y-192864757D01*
X204743741Y-192864757D02*
X204815170Y-193007614D01*
X204815170Y-193007614D02*
X204815170Y-193150471D01*
X204815170Y-193150471D02*
X204100884Y-193293328D01*
X205458026Y-193650471D02*
X205529455Y-193721900D01*
X205529455Y-193721900D02*
X205458026Y-193793328D01*
X205458026Y-193793328D02*
X205386598Y-193721900D01*
X205386598Y-193721900D02*
X205458026Y-193650471D01*
X205458026Y-193650471D02*
X205458026Y-193793328D01*
X205458026Y-192864757D02*
X205529455Y-192936185D01*
X205529455Y-192936185D02*
X205458026Y-193007614D01*
X205458026Y-193007614D02*
X205386598Y-192936185D01*
X205386598Y-192936185D02*
X205458026Y-192864757D01*
X205458026Y-192864757D02*
X205458026Y-193007614D01*
D10*
D11*
X177002200Y-194507200D02*
X285002200Y-194507200D01*
D10*
D11*
X178458026Y-196593328D02*
X178458026Y-195093328D01*
X179315169Y-196593328D02*
X178672312Y-195736185D01*
X179315169Y-195093328D02*
X178458026Y-195950471D01*
X179958026Y-196593328D02*
X179958026Y-195593328D01*
X179958026Y-195093328D02*
X179886598Y-195164757D01*
X179886598Y-195164757D02*
X179958026Y-195236185D01*
X179958026Y-195236185D02*
X180029455Y-195164757D01*
X180029455Y-195164757D02*
X179958026Y-195093328D01*
X179958026Y-195093328D02*
X179958026Y-195236185D01*
X181529455Y-196450471D02*
X181458027Y-196521900D01*
X181458027Y-196521900D02*
X181243741Y-196593328D01*
X181243741Y-196593328D02*
X181100884Y-196593328D01*
X181100884Y-196593328D02*
X180886598Y-196521900D01*
X180886598Y-196521900D02*
X180743741Y-196379042D01*
X180743741Y-196379042D02*
X180672312Y-196236185D01*
X180672312Y-196236185D02*
X180600884Y-195950471D01*
X180600884Y-195950471D02*
X180600884Y-195736185D01*
X180600884Y-195736185D02*
X180672312Y-195450471D01*
X180672312Y-195450471D02*
X180743741Y-195307614D01*
X180743741Y-195307614D02*
X180886598Y-195164757D01*
X180886598Y-195164757D02*
X181100884Y-195093328D01*
X181100884Y-195093328D02*
X181243741Y-195093328D01*
X181243741Y-195093328D02*
X181458027Y-195164757D01*
X181458027Y-195164757D02*
X181529455Y-195236185D01*
X182815170Y-196593328D02*
X182815170Y-195807614D01*
X182815170Y-195807614D02*
X182743741Y-195664757D01*
X182743741Y-195664757D02*
X182600884Y-195593328D01*
X182600884Y-195593328D02*
X182315170Y-195593328D01*
X182315170Y-195593328D02*
X182172312Y-195664757D01*
X182815170Y-196521900D02*
X182672312Y-196593328D01*
X182672312Y-196593328D02*
X182315170Y-196593328D01*
X182315170Y-196593328D02*
X182172312Y-196521900D01*
X182172312Y-196521900D02*
X182100884Y-196379042D01*
X182100884Y-196379042D02*
X182100884Y-196236185D01*
X182100884Y-196236185D02*
X182172312Y-196093328D01*
X182172312Y-196093328D02*
X182315170Y-196021900D01*
X182315170Y-196021900D02*
X182672312Y-196021900D01*
X182672312Y-196021900D02*
X182815170Y-195950471D01*
X184172313Y-196593328D02*
X184172313Y-195093328D01*
X184172313Y-196521900D02*
X184029455Y-196593328D01*
X184029455Y-196593328D02*
X183743741Y-196593328D01*
X183743741Y-196593328D02*
X183600884Y-196521900D01*
X183600884Y-196521900D02*
X183529455Y-196450471D01*
X183529455Y-196450471D02*
X183458027Y-196307614D01*
X183458027Y-196307614D02*
X183458027Y-195879042D01*
X183458027Y-195879042D02*
X183529455Y-195736185D01*
X183529455Y-195736185D02*
X183600884Y-195664757D01*
X183600884Y-195664757D02*
X183743741Y-195593328D01*
X183743741Y-195593328D02*
X184029455Y-195593328D01*
X184029455Y-195593328D02*
X184172313Y-195664757D01*
X186029455Y-195807614D02*
X186529455Y-195807614D01*
X186743741Y-196593328D02*
X186029455Y-196593328D01*
X186029455Y-196593328D02*
X186029455Y-195093328D01*
X186029455Y-195093328D02*
X186743741Y-195093328D01*
X187386598Y-196450471D02*
X187458027Y-196521900D01*
X187458027Y-196521900D02*
X187386598Y-196593328D01*
X187386598Y-196593328D02*
X187315170Y-196521900D01*
X187315170Y-196521900D02*
X187386598Y-196450471D01*
X187386598Y-196450471D02*
X187386598Y-196593328D01*
X188100884Y-196593328D02*
X188100884Y-195093328D01*
X188100884Y-195093328D02*
X188458027Y-195093328D01*
X188458027Y-195093328D02*
X188672313Y-195164757D01*
X188672313Y-195164757D02*
X188815170Y-195307614D01*
X188815170Y-195307614D02*
X188886599Y-195450471D01*
X188886599Y-195450471D02*
X188958027Y-195736185D01*
X188958027Y-195736185D02*
X188958027Y-195950471D01*
X188958027Y-195950471D02*
X188886599Y-196236185D01*
X188886599Y-196236185D02*
X188815170Y-196379042D01*
X188815170Y-196379042D02*
X188672313Y-196521900D01*
X188672313Y-196521900D02*
X188458027Y-196593328D01*
X188458027Y-196593328D02*
X188100884Y-196593328D01*
X189600884Y-196450471D02*
X189672313Y-196521900D01*
X189672313Y-196521900D02*
X189600884Y-196593328D01*
X189600884Y-196593328D02*
X189529456Y-196521900D01*
X189529456Y-196521900D02*
X189600884Y-196450471D01*
X189600884Y-196450471D02*
X189600884Y-196593328D01*
X190243742Y-196164757D02*
X190958028Y-196164757D01*
X190100885Y-196593328D02*
X190600885Y-195093328D01*
X190600885Y-195093328D02*
X191100885Y-196593328D01*
X191600884Y-196450471D02*
X191672313Y-196521900D01*
X191672313Y-196521900D02*
X191600884Y-196593328D01*
X191600884Y-196593328D02*
X191529456Y-196521900D01*
X191529456Y-196521900D02*
X191600884Y-196450471D01*
X191600884Y-196450471D02*
X191600884Y-196593328D01*
X193672313Y-195736185D02*
X193529456Y-195664757D01*
X193529456Y-195664757D02*
X193458027Y-195593328D01*
X193458027Y-195593328D02*
X193386599Y-195450471D01*
X193386599Y-195450471D02*
X193386599Y-195379042D01*
X193386599Y-195379042D02*
X193458027Y-195236185D01*
X193458027Y-195236185D02*
X193529456Y-195164757D01*
X193529456Y-195164757D02*
X193672313Y-195093328D01*
X193672313Y-195093328D02*
X193958027Y-195093328D01*
X193958027Y-195093328D02*
X194100885Y-195164757D01*
X194100885Y-195164757D02*
X194172313Y-195236185D01*
X194172313Y-195236185D02*
X194243742Y-195379042D01*
X194243742Y-195379042D02*
X194243742Y-195450471D01*
X194243742Y-195450471D02*
X194172313Y-195593328D01*
X194172313Y-195593328D02*
X194100885Y-195664757D01*
X194100885Y-195664757D02*
X193958027Y-195736185D01*
X193958027Y-195736185D02*
X193672313Y-195736185D01*
X193672313Y-195736185D02*
X193529456Y-195807614D01*
X193529456Y-195807614D02*
X193458027Y-195879042D01*
X193458027Y-195879042D02*
X193386599Y-196021900D01*
X193386599Y-196021900D02*
X193386599Y-196307614D01*
X193386599Y-196307614D02*
X193458027Y-196450471D01*
X193458027Y-196450471D02*
X193529456Y-196521900D01*
X193529456Y-196521900D02*
X193672313Y-196593328D01*
X193672313Y-196593328D02*
X193958027Y-196593328D01*
X193958027Y-196593328D02*
X194100885Y-196521900D01*
X194100885Y-196521900D02*
X194172313Y-196450471D01*
X194172313Y-196450471D02*
X194243742Y-196307614D01*
X194243742Y-196307614D02*
X194243742Y-196021900D01*
X194243742Y-196021900D02*
X194172313Y-195879042D01*
X194172313Y-195879042D02*
X194100885Y-195807614D01*
X194100885Y-195807614D02*
X193958027Y-195736185D01*
X194886598Y-196450471D02*
X194958027Y-196521900D01*
X194958027Y-196521900D02*
X194886598Y-196593328D01*
X194886598Y-196593328D02*
X194815170Y-196521900D01*
X194815170Y-196521900D02*
X194886598Y-196450471D01*
X194886598Y-196450471D02*
X194886598Y-196593328D01*
X195886599Y-195093328D02*
X196029456Y-195093328D01*
X196029456Y-195093328D02*
X196172313Y-195164757D01*
X196172313Y-195164757D02*
X196243742Y-195236185D01*
X196243742Y-195236185D02*
X196315170Y-195379042D01*
X196315170Y-195379042D02*
X196386599Y-195664757D01*
X196386599Y-195664757D02*
X196386599Y-196021900D01*
X196386599Y-196021900D02*
X196315170Y-196307614D01*
X196315170Y-196307614D02*
X196243742Y-196450471D01*
X196243742Y-196450471D02*
X196172313Y-196521900D01*
X196172313Y-196521900D02*
X196029456Y-196593328D01*
X196029456Y-196593328D02*
X195886599Y-196593328D01*
X195886599Y-196593328D02*
X195743742Y-196521900D01*
X195743742Y-196521900D02*
X195672313Y-196450471D01*
X195672313Y-196450471D02*
X195600884Y-196307614D01*
X195600884Y-196307614D02*
X195529456Y-196021900D01*
X195529456Y-196021900D02*
X195529456Y-195664757D01*
X195529456Y-195664757D02*
X195600884Y-195379042D01*
X195600884Y-195379042D02*
X195672313Y-195236185D01*
X195672313Y-195236185D02*
X195743742Y-195164757D01*
X195743742Y-195164757D02*
X195886599Y-195093328D01*
X197029455Y-196450471D02*
X197100884Y-196521900D01*
X197100884Y-196521900D02*
X197029455Y-196593328D01*
X197029455Y-196593328D02*
X196958027Y-196521900D01*
X196958027Y-196521900D02*
X197029455Y-196450471D01*
X197029455Y-196450471D02*
X197029455Y-196593328D01*
X197672313Y-195236185D02*
X197743741Y-195164757D01*
X197743741Y-195164757D02*
X197886599Y-195093328D01*
X197886599Y-195093328D02*
X198243741Y-195093328D01*
X198243741Y-195093328D02*
X198386599Y-195164757D01*
X198386599Y-195164757D02*
X198458027Y-195236185D01*
X198458027Y-195236185D02*
X198529456Y-195379042D01*
X198529456Y-195379042D02*
X198529456Y-195521900D01*
X198529456Y-195521900D02*
X198458027Y-195736185D01*
X198458027Y-195736185D02*
X197600884Y-196593328D01*
X197600884Y-196593328D02*
X198529456Y-196593328D01*
D10*
D11*
X177002200Y-191507200D02*
X285002200Y-191507200D01*
D10*
D12*
X264413853Y-193785528D02*
X263913853Y-193071242D01*
X263556710Y-193785528D02*
X263556710Y-192285528D01*
X263556710Y-192285528D02*
X264128139Y-192285528D01*
X264128139Y-192285528D02*
X264270996Y-192356957D01*
X264270996Y-192356957D02*
X264342425Y-192428385D01*
X264342425Y-192428385D02*
X264413853Y-192571242D01*
X264413853Y-192571242D02*
X264413853Y-192785528D01*
X264413853Y-192785528D02*
X264342425Y-192928385D01*
X264342425Y-192928385D02*
X264270996Y-192999814D01*
X264270996Y-192999814D02*
X264128139Y-193071242D01*
X264128139Y-193071242D02*
X263556710Y-193071242D01*
X265628139Y-193714100D02*
X265485282Y-193785528D01*
X265485282Y-193785528D02*
X265199568Y-193785528D01*
X265199568Y-193785528D02*
X265056710Y-193714100D01*
X265056710Y-193714100D02*
X264985282Y-193571242D01*
X264985282Y-193571242D02*
X264985282Y-192999814D01*
X264985282Y-192999814D02*
X265056710Y-192856957D01*
X265056710Y-192856957D02*
X265199568Y-192785528D01*
X265199568Y-192785528D02*
X265485282Y-192785528D01*
X265485282Y-192785528D02*
X265628139Y-192856957D01*
X265628139Y-192856957D02*
X265699568Y-192999814D01*
X265699568Y-192999814D02*
X265699568Y-193142671D01*
X265699568Y-193142671D02*
X264985282Y-193285528D01*
X266199567Y-192785528D02*
X266556710Y-193785528D01*
X266556710Y-193785528D02*
X266913853Y-192785528D01*
X267485281Y-193642671D02*
X267556710Y-193714100D01*
X267556710Y-193714100D02*
X267485281Y-193785528D01*
X267485281Y-193785528D02*
X267413853Y-193714100D01*
X267413853Y-193714100D02*
X267485281Y-193642671D01*
X267485281Y-193642671D02*
X267485281Y-193785528D01*
X267485281Y-192856957D02*
X267556710Y-192928385D01*
X267556710Y-192928385D02*
X267485281Y-192999814D01*
X267485281Y-192999814D02*
X267413853Y-192928385D01*
X267413853Y-192928385D02*
X267485281Y-192856957D01*
X267485281Y-192856957D02*
X267485281Y-192999814D01*
D10*
D11*
X178386598Y-193721900D02*
X178600884Y-193793328D01*
X178600884Y-193793328D02*
X178958026Y-193793328D01*
X178958026Y-193793328D02*
X179100884Y-193721900D01*
X179100884Y-193721900D02*
X179172312Y-193650471D01*
X179172312Y-193650471D02*
X179243741Y-193507614D01*
X179243741Y-193507614D02*
X179243741Y-193364757D01*
X179243741Y-193364757D02*
X179172312Y-193221900D01*
X179172312Y-193221900D02*
X179100884Y-193150471D01*
X179100884Y-193150471D02*
X178958026Y-193079042D01*
X178958026Y-193079042D02*
X178672312Y-193007614D01*
X178672312Y-193007614D02*
X178529455Y-192936185D01*
X178529455Y-192936185D02*
X178458026Y-192864757D01*
X178458026Y-192864757D02*
X178386598Y-192721900D01*
X178386598Y-192721900D02*
X178386598Y-192579042D01*
X178386598Y-192579042D02*
X178458026Y-192436185D01*
X178458026Y-192436185D02*
X178529455Y-192364757D01*
X178529455Y-192364757D02*
X178672312Y-192293328D01*
X178672312Y-192293328D02*
X179029455Y-192293328D01*
X179029455Y-192293328D02*
X179243741Y-192364757D01*
X179886597Y-193793328D02*
X179886597Y-192793328D01*
X179886597Y-192293328D02*
X179815169Y-192364757D01*
X179815169Y-192364757D02*
X179886597Y-192436185D01*
X179886597Y-192436185D02*
X179958026Y-192364757D01*
X179958026Y-192364757D02*
X179886597Y-192293328D01*
X179886597Y-192293328D02*
X179886597Y-192436185D01*
X180458026Y-192793328D02*
X181243741Y-192793328D01*
X181243741Y-192793328D02*
X180458026Y-193793328D01*
X180458026Y-193793328D02*
X181243741Y-193793328D01*
X182386598Y-193721900D02*
X182243741Y-193793328D01*
X182243741Y-193793328D02*
X181958027Y-193793328D01*
X181958027Y-193793328D02*
X181815169Y-193721900D01*
X181815169Y-193721900D02*
X181743741Y-193579042D01*
X181743741Y-193579042D02*
X181743741Y-193007614D01*
X181743741Y-193007614D02*
X181815169Y-192864757D01*
X181815169Y-192864757D02*
X181958027Y-192793328D01*
X181958027Y-192793328D02*
X182243741Y-192793328D01*
X182243741Y-192793328D02*
X182386598Y-192864757D01*
X182386598Y-192864757D02*
X182458027Y-193007614D01*
X182458027Y-193007614D02*
X182458027Y-193150471D01*
X182458027Y-193150471D02*
X181743741Y-193293328D01*
X183100883Y-193650471D02*
X183172312Y-193721900D01*
X183172312Y-193721900D02*
X183100883Y-193793328D01*
X183100883Y-193793328D02*
X183029455Y-193721900D01*
X183029455Y-193721900D02*
X183100883Y-193650471D01*
X183100883Y-193650471D02*
X183100883Y-193793328D01*
X183100883Y-192864757D02*
X183172312Y-192936185D01*
X183172312Y-192936185D02*
X183100883Y-193007614D01*
X183100883Y-193007614D02*
X183029455Y-192936185D01*
X183029455Y-192936185D02*
X183100883Y-192864757D01*
X183100883Y-192864757D02*
X183100883Y-193007614D01*
X184886598Y-193364757D02*
X185600884Y-193364757D01*
X184743741Y-193793328D02*
X185243741Y-192293328D01*
X185243741Y-192293328D02*
X185743741Y-193793328D01*
X186886598Y-192793328D02*
X186886598Y-193793328D01*
X186529455Y-192221900D02*
X186172312Y-193293328D01*
X186172312Y-193293328D02*
X187100883Y-193293328D01*
D10*
D11*
X263458026Y-196593328D02*
X263458026Y-195093328D01*
X264815170Y-196593328D02*
X264815170Y-195093328D01*
X264815170Y-196521900D02*
X264672312Y-196593328D01*
X264672312Y-196593328D02*
X264386598Y-196593328D01*
X264386598Y-196593328D02*
X264243741Y-196521900D01*
X264243741Y-196521900D02*
X264172312Y-196450471D01*
X264172312Y-196450471D02*
X264100884Y-196307614D01*
X264100884Y-196307614D02*
X264100884Y-195879042D01*
X264100884Y-195879042D02*
X264172312Y-195736185D01*
X264172312Y-195736185D02*
X264243741Y-195664757D01*
X264243741Y-195664757D02*
X264386598Y-195593328D01*
X264386598Y-195593328D02*
X264672312Y-195593328D01*
X264672312Y-195593328D02*
X264815170Y-195664757D01*
X265529455Y-196450471D02*
X265600884Y-196521900D01*
X265600884Y-196521900D02*
X265529455Y-196593328D01*
X265529455Y-196593328D02*
X265458027Y-196521900D01*
X265458027Y-196521900D02*
X265529455Y-196450471D01*
X265529455Y-196450471D02*
X265529455Y-196593328D01*
X265529455Y-195664757D02*
X265600884Y-195736185D01*
X265600884Y-195736185D02*
X265529455Y-195807614D01*
X265529455Y-195807614D02*
X265458027Y-195736185D01*
X265458027Y-195736185D02*
X265529455Y-195664757D01*
X265529455Y-195664757D02*
X265529455Y-195807614D01*
X268172313Y-196593328D02*
X267315170Y-196593328D01*
X267743741Y-196593328D02*
X267743741Y-195093328D01*
X267743741Y-195093328D02*
X267600884Y-195307614D01*
X267600884Y-195307614D02*
X267458027Y-195450471D01*
X267458027Y-195450471D02*
X267315170Y-195521900D01*
X269886598Y-195021900D02*
X268600884Y-196950471D01*
X271172313Y-196593328D02*
X270315170Y-196593328D01*
X270743741Y-196593328D02*
X270743741Y-195093328D01*
X270743741Y-195093328D02*
X270600884Y-195307614D01*
X270600884Y-195307614D02*
X270458027Y-195450471D01*
X270458027Y-195450471D02*
X270315170Y-195521900D01*
D10*
D11*
X177002200Y-187507200D02*
X285002200Y-187507200D01*
D10*
D13*
X178693928Y-188211638D02*
X179836785Y-188211638D01*
X179015357Y-190211638D02*
X179265357Y-188211638D01*
X180253452Y-190211638D02*
X180420119Y-188878304D01*
X180503452Y-188211638D02*
X180396309Y-188306876D01*
X180396309Y-188306876D02*
X180479643Y-188402114D01*
X180479643Y-188402114D02*
X180586786Y-188306876D01*
X180586786Y-188306876D02*
X180503452Y-188211638D01*
X180503452Y-188211638D02*
X180479643Y-188402114D01*
X181086786Y-188878304D02*
X181848690Y-188878304D01*
X181455833Y-188211638D02*
X181241548Y-189925923D01*
X181241548Y-189925923D02*
X181312976Y-190116400D01*
X181312976Y-190116400D02*
X181491548Y-190211638D01*
X181491548Y-190211638D02*
X181682024Y-190211638D01*
X182634405Y-190211638D02*
X182455833Y-190116400D01*
X182455833Y-190116400D02*
X182384405Y-189925923D01*
X182384405Y-189925923D02*
X182598690Y-188211638D01*
X184170119Y-190116400D02*
X183967738Y-190211638D01*
X183967738Y-190211638D02*
X183586785Y-190211638D01*
X183586785Y-190211638D02*
X183408214Y-190116400D01*
X183408214Y-190116400D02*
X183336785Y-189925923D01*
X183336785Y-189925923D02*
X183432024Y-189164019D01*
X183432024Y-189164019D02*
X183551071Y-188973542D01*
X183551071Y-188973542D02*
X183753452Y-188878304D01*
X183753452Y-188878304D02*
X184134404Y-188878304D01*
X184134404Y-188878304D02*
X184312976Y-188973542D01*
X184312976Y-188973542D02*
X184384404Y-189164019D01*
X184384404Y-189164019D02*
X184360595Y-189354495D01*
X184360595Y-189354495D02*
X183384404Y-189544971D01*
X185134405Y-190021161D02*
X185217738Y-190116400D01*
X185217738Y-190116400D02*
X185110595Y-190211638D01*
X185110595Y-190211638D02*
X185027262Y-190116400D01*
X185027262Y-190116400D02*
X185134405Y-190021161D01*
X185134405Y-190021161D02*
X185110595Y-190211638D01*
X185265357Y-188973542D02*
X185348690Y-189068780D01*
X185348690Y-189068780D02*
X185241548Y-189164019D01*
X185241548Y-189164019D02*
X185158214Y-189068780D01*
X185158214Y-189068780D02*
X185265357Y-188973542D01*
X185265357Y-188973542D02*
X185241548Y-189164019D01*
D10*
D11*
X178958026Y-185607614D02*
X178458026Y-185607614D01*
X178458026Y-186393328D02*
X178458026Y-184893328D01*
X178458026Y-184893328D02*
X179172312Y-184893328D01*
X179743740Y-186393328D02*
X179743740Y-185393328D01*
X179743740Y-184893328D02*
X179672312Y-184964757D01*
X179672312Y-184964757D02*
X179743740Y-185036185D01*
X179743740Y-185036185D02*
X179815169Y-184964757D01*
X179815169Y-184964757D02*
X179743740Y-184893328D01*
X179743740Y-184893328D02*
X179743740Y-185036185D01*
X180672312Y-186393328D02*
X180529455Y-186321900D01*
X180529455Y-186321900D02*
X180458026Y-186179042D01*
X180458026Y-186179042D02*
X180458026Y-184893328D01*
X181815169Y-186321900D02*
X181672312Y-186393328D01*
X181672312Y-186393328D02*
X181386598Y-186393328D01*
X181386598Y-186393328D02*
X181243740Y-186321900D01*
X181243740Y-186321900D02*
X181172312Y-186179042D01*
X181172312Y-186179042D02*
X181172312Y-185607614D01*
X181172312Y-185607614D02*
X181243740Y-185464757D01*
X181243740Y-185464757D02*
X181386598Y-185393328D01*
X181386598Y-185393328D02*
X181672312Y-185393328D01*
X181672312Y-185393328D02*
X181815169Y-185464757D01*
X181815169Y-185464757D02*
X181886598Y-185607614D01*
X181886598Y-185607614D02*
X181886598Y-185750471D01*
X181886598Y-185750471D02*
X181172312Y-185893328D01*
X182529454Y-186250471D02*
X182600883Y-186321900D01*
X182600883Y-186321900D02*
X182529454Y-186393328D01*
X182529454Y-186393328D02*
X182458026Y-186321900D01*
X182458026Y-186321900D02*
X182529454Y-186250471D01*
X182529454Y-186250471D02*
X182529454Y-186393328D01*
X182529454Y-185464757D02*
X182600883Y-185536185D01*
X182600883Y-185536185D02*
X182529454Y-185607614D01*
X182529454Y-185607614D02*
X182458026Y-185536185D01*
X182458026Y-185536185D02*
X182529454Y-185464757D01*
X182529454Y-185464757D02*
X182529454Y-185607614D01*
X185029455Y-185393328D02*
X185029455Y-186393328D01*
X184386597Y-185393328D02*
X184386597Y-186179042D01*
X184386597Y-186179042D02*
X184458026Y-186321900D01*
X184458026Y-186321900D02*
X184600883Y-186393328D01*
X184600883Y-186393328D02*
X184815169Y-186393328D01*
X184815169Y-186393328D02*
X184958026Y-186321900D01*
X184958026Y-186321900D02*
X185029455Y-186250471D01*
X185743740Y-185393328D02*
X185743740Y-186393328D01*
X185743740Y-185536185D02*
X185815169Y-185464757D01*
X185815169Y-185464757D02*
X185958026Y-185393328D01*
X185958026Y-185393328D02*
X186172312Y-185393328D01*
X186172312Y-185393328D02*
X186315169Y-185464757D01*
X186315169Y-185464757D02*
X186386598Y-185607614D01*
X186386598Y-185607614D02*
X186386598Y-186393328D01*
X187100883Y-186393328D02*
X187100883Y-185393328D01*
X187100883Y-184893328D02*
X187029455Y-184964757D01*
X187029455Y-184964757D02*
X187100883Y-185036185D01*
X187100883Y-185036185D02*
X187172312Y-184964757D01*
X187172312Y-184964757D02*
X187100883Y-184893328D01*
X187100883Y-184893328D02*
X187100883Y-185036185D01*
X187672312Y-185393328D02*
X188029455Y-186393328D01*
X188029455Y-186393328D02*
X188386598Y-185393328D01*
X189529455Y-186321900D02*
X189386598Y-186393328D01*
X189386598Y-186393328D02*
X189100884Y-186393328D01*
X189100884Y-186393328D02*
X188958026Y-186321900D01*
X188958026Y-186321900D02*
X188886598Y-186179042D01*
X188886598Y-186179042D02*
X188886598Y-185607614D01*
X188886598Y-185607614D02*
X188958026Y-185464757D01*
X188958026Y-185464757D02*
X189100884Y-185393328D01*
X189100884Y-185393328D02*
X189386598Y-185393328D01*
X189386598Y-185393328D02*
X189529455Y-185464757D01*
X189529455Y-185464757D02*
X189600884Y-185607614D01*
X189600884Y-185607614D02*
X189600884Y-185750471D01*
X189600884Y-185750471D02*
X188886598Y-185893328D01*
X190243740Y-186393328D02*
X190243740Y-185393328D01*
X190243740Y-185679042D02*
X190315169Y-185536185D01*
X190315169Y-185536185D02*
X190386598Y-185464757D01*
X190386598Y-185464757D02*
X190529455Y-185393328D01*
X190529455Y-185393328D02*
X190672312Y-185393328D01*
X191100883Y-186321900D02*
X191243740Y-186393328D01*
X191243740Y-186393328D02*
X191529454Y-186393328D01*
X191529454Y-186393328D02*
X191672311Y-186321900D01*
X191672311Y-186321900D02*
X191743740Y-186179042D01*
X191743740Y-186179042D02*
X191743740Y-186107614D01*
X191743740Y-186107614D02*
X191672311Y-185964757D01*
X191672311Y-185964757D02*
X191529454Y-185893328D01*
X191529454Y-185893328D02*
X191315169Y-185893328D01*
X191315169Y-185893328D02*
X191172311Y-185821900D01*
X191172311Y-185821900D02*
X191100883Y-185679042D01*
X191100883Y-185679042D02*
X191100883Y-185607614D01*
X191100883Y-185607614D02*
X191172311Y-185464757D01*
X191172311Y-185464757D02*
X191315169Y-185393328D01*
X191315169Y-185393328D02*
X191529454Y-185393328D01*
X191529454Y-185393328D02*
X191672311Y-185464757D01*
X193029455Y-186393328D02*
X193029455Y-185607614D01*
X193029455Y-185607614D02*
X192958026Y-185464757D01*
X192958026Y-185464757D02*
X192815169Y-185393328D01*
X192815169Y-185393328D02*
X192529455Y-185393328D01*
X192529455Y-185393328D02*
X192386597Y-185464757D01*
X193029455Y-186321900D02*
X192886597Y-186393328D01*
X192886597Y-186393328D02*
X192529455Y-186393328D01*
X192529455Y-186393328D02*
X192386597Y-186321900D01*
X192386597Y-186321900D02*
X192315169Y-186179042D01*
X192315169Y-186179042D02*
X192315169Y-186036185D01*
X192315169Y-186036185D02*
X192386597Y-185893328D01*
X192386597Y-185893328D02*
X192529455Y-185821900D01*
X192529455Y-185821900D02*
X192886597Y-185821900D01*
X192886597Y-185821900D02*
X193029455Y-185750471D01*
X193958026Y-186393328D02*
X193815169Y-186321900D01*
X193815169Y-186321900D02*
X193743740Y-186179042D01*
X193743740Y-186179042D02*
X193743740Y-184893328D01*
X195386597Y-186250471D02*
X195315169Y-186321900D01*
X195315169Y-186321900D02*
X195100883Y-186393328D01*
X195100883Y-186393328D02*
X194958026Y-186393328D01*
X194958026Y-186393328D02*
X194743740Y-186321900D01*
X194743740Y-186321900D02*
X194600883Y-186179042D01*
X194600883Y-186179042D02*
X194529454Y-186036185D01*
X194529454Y-186036185D02*
X194458026Y-185750471D01*
X194458026Y-185750471D02*
X194458026Y-185536185D01*
X194458026Y-185536185D02*
X194529454Y-185250471D01*
X194529454Y-185250471D02*
X194600883Y-185107614D01*
X194600883Y-185107614D02*
X194743740Y-184964757D01*
X194743740Y-184964757D02*
X194958026Y-184893328D01*
X194958026Y-184893328D02*
X195100883Y-184893328D01*
X195100883Y-184893328D02*
X195315169Y-184964757D01*
X195315169Y-184964757D02*
X195386597Y-185036185D01*
X196243740Y-186393328D02*
X196100883Y-186321900D01*
X196100883Y-186321900D02*
X196029454Y-186250471D01*
X196029454Y-186250471D02*
X195958026Y-186107614D01*
X195958026Y-186107614D02*
X195958026Y-185679042D01*
X195958026Y-185679042D02*
X196029454Y-185536185D01*
X196029454Y-185536185D02*
X196100883Y-185464757D01*
X196100883Y-185464757D02*
X196243740Y-185393328D01*
X196243740Y-185393328D02*
X196458026Y-185393328D01*
X196458026Y-185393328D02*
X196600883Y-185464757D01*
X196600883Y-185464757D02*
X196672312Y-185536185D01*
X196672312Y-185536185D02*
X196743740Y-185679042D01*
X196743740Y-185679042D02*
X196743740Y-186107614D01*
X196743740Y-186107614D02*
X196672312Y-186250471D01*
X196672312Y-186250471D02*
X196600883Y-186321900D01*
X196600883Y-186321900D02*
X196458026Y-186393328D01*
X196458026Y-186393328D02*
X196243740Y-186393328D01*
X197386597Y-185393328D02*
X197386597Y-186393328D01*
X197386597Y-185536185D02*
X197458026Y-185464757D01*
X197458026Y-185464757D02*
X197600883Y-185393328D01*
X197600883Y-185393328D02*
X197815169Y-185393328D01*
X197815169Y-185393328D02*
X197958026Y-185464757D01*
X197958026Y-185464757D02*
X198029455Y-185607614D01*
X198029455Y-185607614D02*
X198029455Y-186393328D01*
X198743740Y-185393328D02*
X198743740Y-186393328D01*
X198743740Y-185536185D02*
X198815169Y-185464757D01*
X198815169Y-185464757D02*
X198958026Y-185393328D01*
X198958026Y-185393328D02*
X199172312Y-185393328D01*
X199172312Y-185393328D02*
X199315169Y-185464757D01*
X199315169Y-185464757D02*
X199386598Y-185607614D01*
X199386598Y-185607614D02*
X199386598Y-186393328D01*
X200672312Y-186321900D02*
X200529455Y-186393328D01*
X200529455Y-186393328D02*
X200243741Y-186393328D01*
X200243741Y-186393328D02*
X200100883Y-186321900D01*
X200100883Y-186321900D02*
X200029455Y-186179042D01*
X200029455Y-186179042D02*
X200029455Y-185607614D01*
X200029455Y-185607614D02*
X200100883Y-185464757D01*
X200100883Y-185464757D02*
X200243741Y-185393328D01*
X200243741Y-185393328D02*
X200529455Y-185393328D01*
X200529455Y-185393328D02*
X200672312Y-185464757D01*
X200672312Y-185464757D02*
X200743741Y-185607614D01*
X200743741Y-185607614D02*
X200743741Y-185750471D01*
X200743741Y-185750471D02*
X200029455Y-185893328D01*
X202029455Y-186321900D02*
X201886597Y-186393328D01*
X201886597Y-186393328D02*
X201600883Y-186393328D01*
X201600883Y-186393328D02*
X201458026Y-186321900D01*
X201458026Y-186321900D02*
X201386597Y-186250471D01*
X201386597Y-186250471D02*
X201315169Y-186107614D01*
X201315169Y-186107614D02*
X201315169Y-185679042D01*
X201315169Y-185679042D02*
X201386597Y-185536185D01*
X201386597Y-185536185D02*
X201458026Y-185464757D01*
X201458026Y-185464757D02*
X201600883Y-185393328D01*
X201600883Y-185393328D02*
X201886597Y-185393328D01*
X201886597Y-185393328D02*
X202029455Y-185464757D01*
X202458026Y-185393328D02*
X203029454Y-185393328D01*
X202672311Y-184893328D02*
X202672311Y-186179042D01*
X202672311Y-186179042D02*
X202743740Y-186321900D01*
X202743740Y-186321900D02*
X202886597Y-186393328D01*
X202886597Y-186393328D02*
X203029454Y-186393328D01*
X203743740Y-186393328D02*
X203600883Y-186321900D01*
X203600883Y-186321900D02*
X203529454Y-186250471D01*
X203529454Y-186250471D02*
X203458026Y-186107614D01*
X203458026Y-186107614D02*
X203458026Y-185679042D01*
X203458026Y-185679042D02*
X203529454Y-185536185D01*
X203529454Y-185536185D02*
X203600883Y-185464757D01*
X203600883Y-185464757D02*
X203743740Y-185393328D01*
X203743740Y-185393328D02*
X203958026Y-185393328D01*
X203958026Y-185393328D02*
X204100883Y-185464757D01*
X204100883Y-185464757D02*
X204172312Y-185536185D01*
X204172312Y-185536185D02*
X204243740Y-185679042D01*
X204243740Y-185679042D02*
X204243740Y-186107614D01*
X204243740Y-186107614D02*
X204172312Y-186250471D01*
X204172312Y-186250471D02*
X204100883Y-186321900D01*
X204100883Y-186321900D02*
X203958026Y-186393328D01*
X203958026Y-186393328D02*
X203743740Y-186393328D01*
X204886597Y-186393328D02*
X204886597Y-185393328D01*
X204886597Y-185679042D02*
X204958026Y-185536185D01*
X204958026Y-185536185D02*
X205029455Y-185464757D01*
X205029455Y-185464757D02*
X205172312Y-185393328D01*
X205172312Y-185393328D02*
X205315169Y-185393328D01*
X206315168Y-185607614D02*
X206529454Y-185679042D01*
X206529454Y-185679042D02*
X206600883Y-185750471D01*
X206600883Y-185750471D02*
X206672311Y-185893328D01*
X206672311Y-185893328D02*
X206672311Y-186107614D01*
X206672311Y-186107614D02*
X206600883Y-186250471D01*
X206600883Y-186250471D02*
X206529454Y-186321900D01*
X206529454Y-186321900D02*
X206386597Y-186393328D01*
X206386597Y-186393328D02*
X205815168Y-186393328D01*
X205815168Y-186393328D02*
X205815168Y-184893328D01*
X205815168Y-184893328D02*
X206315168Y-184893328D01*
X206315168Y-184893328D02*
X206458026Y-184964757D01*
X206458026Y-184964757D02*
X206529454Y-185036185D01*
X206529454Y-185036185D02*
X206600883Y-185179042D01*
X206600883Y-185179042D02*
X206600883Y-185321900D01*
X206600883Y-185321900D02*
X206529454Y-185464757D01*
X206529454Y-185464757D02*
X206458026Y-185536185D01*
X206458026Y-185536185D02*
X206315168Y-185607614D01*
X206315168Y-185607614D02*
X205815168Y-185607614D01*
X207529454Y-186393328D02*
X207386597Y-186321900D01*
X207386597Y-186321900D02*
X207315168Y-186250471D01*
X207315168Y-186250471D02*
X207243740Y-186107614D01*
X207243740Y-186107614D02*
X207243740Y-185679042D01*
X207243740Y-185679042D02*
X207315168Y-185536185D01*
X207315168Y-185536185D02*
X207386597Y-185464757D01*
X207386597Y-185464757D02*
X207529454Y-185393328D01*
X207529454Y-185393328D02*
X207743740Y-185393328D01*
X207743740Y-185393328D02*
X207886597Y-185464757D01*
X207886597Y-185464757D02*
X207958026Y-185536185D01*
X207958026Y-185536185D02*
X208029454Y-185679042D01*
X208029454Y-185679042D02*
X208029454Y-186107614D01*
X208029454Y-186107614D02*
X207958026Y-186250471D01*
X207958026Y-186250471D02*
X207886597Y-186321900D01*
X207886597Y-186321900D02*
X207743740Y-186393328D01*
X207743740Y-186393328D02*
X207529454Y-186393328D01*
X209315169Y-186393328D02*
X209315169Y-185607614D01*
X209315169Y-185607614D02*
X209243740Y-185464757D01*
X209243740Y-185464757D02*
X209100883Y-185393328D01*
X209100883Y-185393328D02*
X208815169Y-185393328D01*
X208815169Y-185393328D02*
X208672311Y-185464757D01*
X209315169Y-186321900D02*
X209172311Y-186393328D01*
X209172311Y-186393328D02*
X208815169Y-186393328D01*
X208815169Y-186393328D02*
X208672311Y-186321900D01*
X208672311Y-186321900D02*
X208600883Y-186179042D01*
X208600883Y-186179042D02*
X208600883Y-186036185D01*
X208600883Y-186036185D02*
X208672311Y-185893328D01*
X208672311Y-185893328D02*
X208815169Y-185821900D01*
X208815169Y-185821900D02*
X209172311Y-185821900D01*
X209172311Y-185821900D02*
X209315169Y-185750471D01*
X210029454Y-186393328D02*
X210029454Y-185393328D01*
X210029454Y-185679042D02*
X210100883Y-185536185D01*
X210100883Y-185536185D02*
X210172312Y-185464757D01*
X210172312Y-185464757D02*
X210315169Y-185393328D01*
X210315169Y-185393328D02*
X210458026Y-185393328D01*
X211600883Y-186393328D02*
X211600883Y-184893328D01*
X211600883Y-186321900D02*
X211458025Y-186393328D01*
X211458025Y-186393328D02*
X211172311Y-186393328D01*
X211172311Y-186393328D02*
X211029454Y-186321900D01*
X211029454Y-186321900D02*
X210958025Y-186250471D01*
X210958025Y-186250471D02*
X210886597Y-186107614D01*
X210886597Y-186107614D02*
X210886597Y-185679042D01*
X210886597Y-185679042D02*
X210958025Y-185536185D01*
X210958025Y-185536185D02*
X211029454Y-185464757D01*
X211029454Y-185464757D02*
X211172311Y-185393328D01*
X211172311Y-185393328D02*
X211458025Y-185393328D01*
X211458025Y-185393328D02*
X211600883Y-185464757D01*
X212315168Y-186250471D02*
X212386597Y-186321900D01*
X212386597Y-186321900D02*
X212315168Y-186393328D01*
X212315168Y-186393328D02*
X212243740Y-186321900D01*
X212243740Y-186321900D02*
X212315168Y-186250471D01*
X212315168Y-186250471D02*
X212315168Y-186393328D01*
X213029454Y-186393328D02*
X213029454Y-184893328D01*
X213172312Y-185821900D02*
X213600883Y-186393328D01*
X213600883Y-185393328D02*
X213029454Y-185964757D01*
X214243740Y-186393328D02*
X214243740Y-185393328D01*
X214243740Y-184893328D02*
X214172312Y-184964757D01*
X214172312Y-184964757D02*
X214243740Y-185036185D01*
X214243740Y-185036185D02*
X214315169Y-184964757D01*
X214315169Y-184964757D02*
X214243740Y-184893328D01*
X214243740Y-184893328D02*
X214243740Y-185036185D01*
X215600884Y-186321900D02*
X215458026Y-186393328D01*
X215458026Y-186393328D02*
X215172312Y-186393328D01*
X215172312Y-186393328D02*
X215029455Y-186321900D01*
X215029455Y-186321900D02*
X214958026Y-186250471D01*
X214958026Y-186250471D02*
X214886598Y-186107614D01*
X214886598Y-186107614D02*
X214886598Y-185679042D01*
X214886598Y-185679042D02*
X214958026Y-185536185D01*
X214958026Y-185536185D02*
X215029455Y-185464757D01*
X215029455Y-185464757D02*
X215172312Y-185393328D01*
X215172312Y-185393328D02*
X215458026Y-185393328D01*
X215458026Y-185393328D02*
X215600884Y-185464757D01*
X216886598Y-186393328D02*
X216886598Y-185607614D01*
X216886598Y-185607614D02*
X216815169Y-185464757D01*
X216815169Y-185464757D02*
X216672312Y-185393328D01*
X216672312Y-185393328D02*
X216386598Y-185393328D01*
X216386598Y-185393328D02*
X216243740Y-185464757D01*
X216886598Y-186321900D02*
X216743740Y-186393328D01*
X216743740Y-186393328D02*
X216386598Y-186393328D01*
X216386598Y-186393328D02*
X216243740Y-186321900D01*
X216243740Y-186321900D02*
X216172312Y-186179042D01*
X216172312Y-186179042D02*
X216172312Y-186036185D01*
X216172312Y-186036185D02*
X216243740Y-185893328D01*
X216243740Y-185893328D02*
X216386598Y-185821900D01*
X216386598Y-185821900D02*
X216743740Y-185821900D01*
X216743740Y-185821900D02*
X216886598Y-185750471D01*
X218243741Y-186393328D02*
X218243741Y-184893328D01*
X218243741Y-186321900D02*
X218100883Y-186393328D01*
X218100883Y-186393328D02*
X217815169Y-186393328D01*
X217815169Y-186393328D02*
X217672312Y-186321900D01*
X217672312Y-186321900D02*
X217600883Y-186250471D01*
X217600883Y-186250471D02*
X217529455Y-186107614D01*
X217529455Y-186107614D02*
X217529455Y-185679042D01*
X217529455Y-185679042D02*
X217600883Y-185536185D01*
X217600883Y-185536185D02*
X217672312Y-185464757D01*
X217672312Y-185464757D02*
X217815169Y-185393328D01*
X217815169Y-185393328D02*
X218100883Y-185393328D01*
X218100883Y-185393328D02*
X218243741Y-185464757D01*
X218600884Y-186536185D02*
X219743741Y-186536185D01*
X220100883Y-185393328D02*
X220100883Y-186893328D01*
X220100883Y-185464757D02*
X220243741Y-185393328D01*
X220243741Y-185393328D02*
X220529455Y-185393328D01*
X220529455Y-185393328D02*
X220672312Y-185464757D01*
X220672312Y-185464757D02*
X220743741Y-185536185D01*
X220743741Y-185536185D02*
X220815169Y-185679042D01*
X220815169Y-185679042D02*
X220815169Y-186107614D01*
X220815169Y-186107614D02*
X220743741Y-186250471D01*
X220743741Y-186250471D02*
X220672312Y-186321900D01*
X220672312Y-186321900D02*
X220529455Y-186393328D01*
X220529455Y-186393328D02*
X220243741Y-186393328D01*
X220243741Y-186393328D02*
X220100883Y-186321900D01*
X222100884Y-186321900D02*
X221958026Y-186393328D01*
X221958026Y-186393328D02*
X221672312Y-186393328D01*
X221672312Y-186393328D02*
X221529455Y-186321900D01*
X221529455Y-186321900D02*
X221458026Y-186250471D01*
X221458026Y-186250471D02*
X221386598Y-186107614D01*
X221386598Y-186107614D02*
X221386598Y-185679042D01*
X221386598Y-185679042D02*
X221458026Y-185536185D01*
X221458026Y-185536185D02*
X221529455Y-185464757D01*
X221529455Y-185464757D02*
X221672312Y-185393328D01*
X221672312Y-185393328D02*
X221958026Y-185393328D01*
X221958026Y-185393328D02*
X222100884Y-185464757D01*
X222743740Y-186393328D02*
X222743740Y-184893328D01*
X222743740Y-185464757D02*
X222886598Y-185393328D01*
X222886598Y-185393328D02*
X223172312Y-185393328D01*
X223172312Y-185393328D02*
X223315169Y-185464757D01*
X223315169Y-185464757D02*
X223386598Y-185536185D01*
X223386598Y-185536185D02*
X223458026Y-185679042D01*
X223458026Y-185679042D02*
X223458026Y-186107614D01*
X223458026Y-186107614D02*
X223386598Y-186250471D01*
X223386598Y-186250471D02*
X223315169Y-186321900D01*
X223315169Y-186321900D02*
X223172312Y-186393328D01*
X223172312Y-186393328D02*
X222886598Y-186393328D01*
X222886598Y-186393328D02*
X222743740Y-186321900D01*
D10*
D11*
X177002200Y-181507200D02*
X285002200Y-181507200D01*
D10*
D11*
X178386598Y-183621900D02*
X178600884Y-183693328D01*
X178600884Y-183693328D02*
X178958026Y-183693328D01*
X178958026Y-183693328D02*
X179100884Y-183621900D01*
X179100884Y-183621900D02*
X179172312Y-183550471D01*
X179172312Y-183550471D02*
X179243741Y-183407614D01*
X179243741Y-183407614D02*
X179243741Y-183264757D01*
X179243741Y-183264757D02*
X179172312Y-183121900D01*
X179172312Y-183121900D02*
X179100884Y-183050471D01*
X179100884Y-183050471D02*
X178958026Y-182979042D01*
X178958026Y-182979042D02*
X178672312Y-182907614D01*
X178672312Y-182907614D02*
X178529455Y-182836185D01*
X178529455Y-182836185D02*
X178458026Y-182764757D01*
X178458026Y-182764757D02*
X178386598Y-182621900D01*
X178386598Y-182621900D02*
X178386598Y-182479042D01*
X178386598Y-182479042D02*
X178458026Y-182336185D01*
X178458026Y-182336185D02*
X178529455Y-182264757D01*
X178529455Y-182264757D02*
X178672312Y-182193328D01*
X178672312Y-182193328D02*
X179029455Y-182193328D01*
X179029455Y-182193328D02*
X179243741Y-182264757D01*
X179886597Y-183693328D02*
X179886597Y-182193328D01*
X180529455Y-183693328D02*
X180529455Y-182907614D01*
X180529455Y-182907614D02*
X180458026Y-182764757D01*
X180458026Y-182764757D02*
X180315169Y-182693328D01*
X180315169Y-182693328D02*
X180100883Y-182693328D01*
X180100883Y-182693328D02*
X179958026Y-182764757D01*
X179958026Y-182764757D02*
X179886597Y-182836185D01*
X181815169Y-183621900D02*
X181672312Y-183693328D01*
X181672312Y-183693328D02*
X181386598Y-183693328D01*
X181386598Y-183693328D02*
X181243740Y-183621900D01*
X181243740Y-183621900D02*
X181172312Y-183479042D01*
X181172312Y-183479042D02*
X181172312Y-182907614D01*
X181172312Y-182907614D02*
X181243740Y-182764757D01*
X181243740Y-182764757D02*
X181386598Y-182693328D01*
X181386598Y-182693328D02*
X181672312Y-182693328D01*
X181672312Y-182693328D02*
X181815169Y-182764757D01*
X181815169Y-182764757D02*
X181886598Y-182907614D01*
X181886598Y-182907614D02*
X181886598Y-183050471D01*
X181886598Y-183050471D02*
X181172312Y-183193328D01*
X183100883Y-183621900D02*
X182958026Y-183693328D01*
X182958026Y-183693328D02*
X182672312Y-183693328D01*
X182672312Y-183693328D02*
X182529454Y-183621900D01*
X182529454Y-183621900D02*
X182458026Y-183479042D01*
X182458026Y-183479042D02*
X182458026Y-182907614D01*
X182458026Y-182907614D02*
X182529454Y-182764757D01*
X182529454Y-182764757D02*
X182672312Y-182693328D01*
X182672312Y-182693328D02*
X182958026Y-182693328D01*
X182958026Y-182693328D02*
X183100883Y-182764757D01*
X183100883Y-182764757D02*
X183172312Y-182907614D01*
X183172312Y-182907614D02*
X183172312Y-183050471D01*
X183172312Y-183050471D02*
X182458026Y-183193328D01*
X183600883Y-182693328D02*
X184172311Y-182693328D01*
X183815168Y-182193328D02*
X183815168Y-183479042D01*
X183815168Y-183479042D02*
X183886597Y-183621900D01*
X183886597Y-183621900D02*
X184029454Y-183693328D01*
X184029454Y-183693328D02*
X184172311Y-183693328D01*
X184672311Y-183550471D02*
X184743740Y-183621900D01*
X184743740Y-183621900D02*
X184672311Y-183693328D01*
X184672311Y-183693328D02*
X184600883Y-183621900D01*
X184600883Y-183621900D02*
X184672311Y-183550471D01*
X184672311Y-183550471D02*
X184672311Y-183693328D01*
X184672311Y-182764757D02*
X184743740Y-182836185D01*
X184743740Y-182836185D02*
X184672311Y-182907614D01*
X184672311Y-182907614D02*
X184600883Y-182836185D01*
X184600883Y-182836185D02*
X184672311Y-182764757D01*
X184672311Y-182764757D02*
X184672311Y-182907614D01*
D10*
D11*
X197002200Y-191507200D02*
X197002200Y-194507200D01*
D10*
D11*
X261002200Y-191507200D02*
X261002200Y-198007200D01*
D14*
X49152000Y-94419000D03*
D15*
X52182000Y-94119000D03*
X52182000Y-89269000D03*
D14*
X49152000Y-88969000D03*
D16*
X49022000Y-100584000D03*
D17*
X49022000Y-101484000D03*
D16*
X51562000Y-100584000D03*
D17*
X51562000Y-101484000D03*
D18*
X54102000Y-100584000D03*
D17*
X54102000Y-101484000D03*
D16*
X56642000Y-100584000D03*
D17*
X56642000Y-101484000D03*
D16*
X59182000Y-100584000D03*
D17*
X59182000Y-101484000D03*
D16*
X61722000Y-100584000D03*
D17*
X61722000Y-101484000D03*
D16*
X64262000Y-100584000D03*
D17*
X64262000Y-101484000D03*
D18*
X66802000Y-100584000D03*
D17*
X66802000Y-101484000D03*
D16*
X69342000Y-100584000D03*
D17*
X69342000Y-101484000D03*
D16*
X71882000Y-100584000D03*
D17*
X71882000Y-101484000D03*
D16*
X74422000Y-100584000D03*
D17*
X74422000Y-101484000D03*
D16*
X76962000Y-100584000D03*
D17*
X76962000Y-101484000D03*
D18*
X79502000Y-100584000D03*
D17*
X79502000Y-101484000D03*
D16*
X82042000Y-100584000D03*
D17*
X82042000Y-101484000D03*
D16*
X84582000Y-100584000D03*
D17*
X84582000Y-101484000D03*
D16*
X87122000Y-100584000D03*
D17*
X87122000Y-101484000D03*
D16*
X89662000Y-100584000D03*
D17*
X89662000Y-101484000D03*
D18*
X92202000Y-100584000D03*
D17*
X92202000Y-101484000D03*
D16*
X94742000Y-100584000D03*
D17*
X94742000Y-101484000D03*
D16*
X97282000Y-100584000D03*
D17*
X97282000Y-101484000D03*
D16*
X97282000Y-82804000D03*
D17*
X97282000Y-81904000D03*
D16*
X94742000Y-82804000D03*
D17*
X94742000Y-81904000D03*
D18*
X92202000Y-82804000D03*
D17*
X92202000Y-81904000D03*
D16*
X89662000Y-82804000D03*
D17*
X89662000Y-81904000D03*
D16*
X87122000Y-82804000D03*
D17*
X87122000Y-81904000D03*
D16*
X84582000Y-82804000D03*
D17*
X84582000Y-81904000D03*
D16*
X82042000Y-82804000D03*
D17*
X82042000Y-81904000D03*
D18*
X79502000Y-82804000D03*
D17*
X79502000Y-81904000D03*
D16*
X76962000Y-82804000D03*
D17*
X76962000Y-81904000D03*
D16*
X74422000Y-82804000D03*
D17*
X74422000Y-81904000D03*
D16*
X71882000Y-82804000D03*
D17*
X71882000Y-81904000D03*
D16*
X69342000Y-82804000D03*
D17*
X69342000Y-81904000D03*
D18*
X66802000Y-82804000D03*
D17*
X66802000Y-81904000D03*
D16*
X64262000Y-82804000D03*
D17*
X64262000Y-81904000D03*
D16*
X61722000Y-82804000D03*
D17*
X61722000Y-81904000D03*
D16*
X59182000Y-82804000D03*
D17*
X59182000Y-81904000D03*
D16*
X56642000Y-82804000D03*
D17*
X56642000Y-81904000D03*
D18*
X54102000Y-82804000D03*
D17*
X54102000Y-81904000D03*
D16*
X51562000Y-82804000D03*
D17*
X51562000Y-81904000D03*
D16*
X49022000Y-82804000D03*
D17*
X49022000Y-81904000D03*
D16*
X97052000Y-94234000D03*
D19*
X97952000Y-94234000D03*
D18*
X97052000Y-91694000D03*
D19*
X97952000Y-91694000D03*
D16*
X97052000Y-89154000D03*
D19*
X97952000Y-89154000D03*
D20*
X98171000Y-57785000D03*
X98171000Y-60325000D03*
X98171000Y-62865000D03*
D21*
X103552000Y-72638000D03*
D22*
X103552000Y-70098000D03*
X106092000Y-72638000D03*
X106092000Y-70098000D03*
X108632000Y-72638000D03*
X108632000Y-70098000D03*
X111172000Y-72638000D03*
X111172000Y-70098000D03*
X113712000Y-72638000D03*
X113712000Y-70098000D03*
X116252000Y-72638000D03*
X116252000Y-70098000D03*
X118792000Y-72638000D03*
X118792000Y-70098000D03*
X121332000Y-72638000D03*
X121332000Y-70098000D03*
X123872000Y-72638000D03*
X123872000Y-70098000D03*
X126412000Y-72638000D03*
X126412000Y-70098000D03*
X128952000Y-72638000D03*
X128952000Y-70098000D03*
X131492000Y-72638000D03*
X131492000Y-70098000D03*
X134032000Y-72638000D03*
X134032000Y-70098000D03*
X136572000Y-72638000D03*
X136572000Y-70098000D03*
X139112000Y-72638000D03*
X139112000Y-70098000D03*
X141652000Y-72638000D03*
X141652000Y-70098000D03*
X144192000Y-72638000D03*
X144192000Y-70098000D03*
X146732000Y-72638000D03*
X146732000Y-70098000D03*
X149272000Y-72638000D03*
X149272000Y-70098000D03*
X151812000Y-72638000D03*
X151812000Y-70098000D03*
D23*
X98682000Y-71368000D03*
X156682000Y-71368000D03*
X156682000Y-120368000D03*
X98682000Y-120368000D03*
D24*
X114560000Y-63373000D03*
X108960000Y-63373000D03*
D25*
X108712000Y-54663000D03*
X108712000Y-56388000D03*
D26*
X101346000Y-104367500D03*
X101346000Y-102642500D03*
D27*
X56896000Y-111873000D03*
D28*
X56896000Y-114373000D03*
X56896000Y-116873000D03*
X56896000Y-119373000D03*
X56896000Y-121873000D03*
X56896000Y-124373000D03*
X56896000Y-126873000D03*
D29*
X144018000Y-115951000D03*
D30*
X142718000Y-115951000D03*
D31*
X151675000Y-122537500D03*
X151675000Y-120712500D03*
D32*
X120753500Y-61849000D03*
X122578500Y-61849000D03*
D33*
X133840000Y-93218000D03*
X125240000Y-93218000D03*
D25*
X92202000Y-55144500D03*
X92202000Y-56869500D03*
D26*
X127127000Y-56639250D03*
X127127000Y-54914250D03*
D31*
X86741000Y-119380000D03*
X86741000Y-117555000D03*
D25*
X113284000Y-54663000D03*
X113284000Y-56388000D03*
D29*
X120904000Y-120136000D03*
D30*
X119604000Y-120136000D03*
D18*
X155194000Y-88900000D03*
D16*
X157734000Y-88900000D03*
X155194000Y-91440000D03*
X157734000Y-91440000D03*
X155194000Y-93980000D03*
X157734000Y-93980000D03*
X155194000Y-96520000D03*
X157734000Y-96520000D03*
D18*
X65024000Y-118491000D03*
D16*
X67564000Y-118491000D03*
X70104000Y-118491000D03*
D25*
X110266000Y-54663000D03*
X110266000Y-56388000D03*
D29*
X144018000Y-118491000D03*
D30*
X142718000Y-118491000D03*
D31*
X73660000Y-119380000D03*
X73660000Y-117555000D03*
D25*
X114935000Y-54663000D03*
X114935000Y-56388000D03*
D29*
X120925000Y-116400000D03*
D30*
X119625000Y-116400000D03*
D32*
X135762500Y-131875000D03*
X137587500Y-131875000D03*
D34*
X125537500Y-64000000D03*
X123812500Y-64000000D03*
D35*
X119149500Y-91948000D03*
X117324500Y-91948000D03*
D36*
X79936000Y-111887000D03*
X81661000Y-111887000D03*
D26*
X131250000Y-56687500D03*
X131250000Y-54962500D03*
D37*
X150007000Y-127614000D03*
D38*
X152507000Y-127614000D03*
D32*
X153562000Y-105204500D03*
X155387000Y-105204500D03*
D36*
X137362500Y-59825000D03*
X139087500Y-59825000D03*
D39*
X108622000Y-88265000D03*
X108622000Y-89535000D03*
X108622000Y-90805000D03*
X108622000Y-92075000D03*
X108622000Y-93345000D03*
X108622000Y-94615000D03*
X108622000Y-95885000D03*
X108622000Y-97155000D03*
X114046000Y-97155000D03*
X114046000Y-95885000D03*
X114046000Y-94615000D03*
X114046000Y-93345000D03*
X114046000Y-92075000D03*
X114046000Y-90805000D03*
X114046000Y-89535000D03*
X114046000Y-88265000D03*
D33*
X149461000Y-93218000D03*
X140861000Y-93218000D03*
D26*
X129200000Y-56637500D03*
X129200000Y-54912500D03*
D37*
X141371000Y-127614000D03*
D38*
X143871000Y-127614000D03*
D27*
X56790000Y-55746000D03*
D28*
X56790000Y-58246000D03*
X56790000Y-60746000D03*
X56790000Y-63246000D03*
X56790000Y-65746000D03*
X56790000Y-68246000D03*
X56790000Y-70746000D03*
D18*
X129540000Y-79756000D03*
D16*
X129540000Y-82296000D03*
X129540000Y-84836000D03*
D40*
X88801000Y-70739000D03*
X90551000Y-70739000D03*
D37*
X120924000Y-127614000D03*
D38*
X123424000Y-127614000D03*
D32*
X103712000Y-89916000D03*
X105537000Y-89916000D03*
D34*
X132561500Y-65659000D03*
X130836500Y-65659000D03*
X122274500Y-53550000D03*
X120549500Y-53550000D03*
D35*
X119587000Y-77343000D03*
X117762000Y-77343000D03*
D41*
X104454000Y-127614000D03*
D42*
X106954000Y-127614000D03*
X109454000Y-127614000D03*
X111954000Y-127614000D03*
D32*
X147085000Y-103553500D03*
X148910000Y-103553500D03*
D35*
X119149500Y-93472000D03*
X117324500Y-93472000D03*
D32*
X103712000Y-92964000D03*
X105537000Y-92964000D03*
D18*
X77804000Y-118491000D03*
D16*
X80344000Y-118491000D03*
X82884000Y-118491000D03*
D41*
X77470000Y-127614000D03*
D42*
X79970000Y-127614000D03*
X82470000Y-127614000D03*
D43*
X122174000Y-56261000D03*
X122174000Y-58086000D03*
D44*
X153101000Y-110411500D03*
X155001000Y-110411500D03*
X154051000Y-108536500D03*
D35*
X119149500Y-90424000D03*
X117324500Y-90424000D03*
D32*
X103712000Y-88392000D03*
X105537000Y-88392000D03*
D45*
X83312000Y-62230000D03*
D42*
X80812000Y-62230000D03*
X78312000Y-62230000D03*
X75812000Y-62230000D03*
X73312000Y-62230000D03*
X70812000Y-62230000D03*
X68312000Y-62230000D03*
X65812000Y-62230000D03*
D36*
X67362500Y-122425000D03*
X69087500Y-122425000D03*
D32*
X147085000Y-105077500D03*
X148910000Y-105077500D03*
D25*
X111760000Y-54663000D03*
X111760000Y-56388000D03*
D35*
X119149500Y-94996000D03*
X117324500Y-94996000D03*
D36*
X117362500Y-88425000D03*
X119087500Y-88425000D03*
D44*
X147005000Y-110284500D03*
X148905000Y-110284500D03*
X147955000Y-108409500D03*
D35*
X119634000Y-80391000D03*
X117809000Y-80391000D03*
D32*
X130786500Y-64008000D03*
X132611500Y-64008000D03*
D18*
X135001000Y-54864000D03*
D16*
X137541000Y-54864000D03*
D46*
X146410000Y-62450000D03*
X146410000Y-54830000D03*
X151410000Y-62450000D03*
X151410000Y-54830000D03*
X156410000Y-62450000D03*
X156410000Y-54830000D03*
D35*
X119634000Y-78867000D03*
X117809000Y-78867000D03*
D36*
X67209500Y-113284000D03*
X68934500Y-113284000D03*
D35*
X135581500Y-59825000D03*
X133756500Y-59825000D03*
D47*
X62006000Y-74361000D03*
X62006000Y-76261000D03*
X63881000Y-75311000D03*
D41*
X63747000Y-127508000D03*
D42*
X66247000Y-127508000D03*
X68747000Y-127508000D03*
X71247000Y-127508000D03*
D48*
X104876000Y-76200000D03*
X104876000Y-77470000D03*
X104876000Y-78740000D03*
X104876000Y-80010000D03*
X104876000Y-81280000D03*
X104876000Y-82550000D03*
X104876000Y-83820000D03*
X104876000Y-85090000D03*
X114326000Y-85090000D03*
X114326000Y-83820000D03*
X114326000Y-82550000D03*
X114326000Y-81280000D03*
X114326000Y-80010000D03*
X114326000Y-78740000D03*
X114326000Y-77470000D03*
X114326000Y-76200000D03*
D32*
X153562000Y-103680500D03*
X155387000Y-103680500D03*
D37*
X129560000Y-127614000D03*
D38*
X132060000Y-127614000D03*
D26*
X120777000Y-106934000D03*
X120777000Y-105209000D03*
D41*
X90865000Y-127614000D03*
D42*
X93365000Y-127614000D03*
X95865000Y-127614000D03*
X98365000Y-127614000D03*
D49*
X123952000Y-102362000D03*
D50*
X123952000Y-104902000D03*
X123952000Y-107442000D03*
X123952000Y-109982000D03*
X123952000Y-112522000D03*
X123952000Y-115062000D03*
X123952000Y-117602000D03*
X123952000Y-120142000D03*
X136652000Y-102362000D03*
X136652000Y-104902000D03*
X136652000Y-107442000D03*
X136652000Y-109982000D03*
X136652000Y-112522000D03*
X136652000Y-115062000D03*
X136652000Y-117602000D03*
X136652000Y-120142000D03*
X131572000Y-120142000D03*
X134112000Y-120142000D03*
D18*
X153425000Y-77825000D03*
D16*
X155965000Y-77825000D03*
X153425000Y-80365000D03*
X155965000Y-80365000D03*
X153425000Y-82905000D03*
X155965000Y-82905000D03*
D51*
X128651000Y-61341000D03*
X128651000Y-60891000D03*
X128651000Y-60441000D03*
X128651000Y-59991000D03*
X128651000Y-59541000D03*
D52*
X128101000Y-58991000D03*
X127651000Y-58991000D03*
X127201000Y-58991000D03*
X126751000Y-58991000D03*
X126301000Y-58991000D03*
D51*
X125751000Y-59541000D03*
X125751000Y-59991000D03*
X125751000Y-60441000D03*
X125751000Y-60891000D03*
X125751000Y-61341000D03*
D52*
X126301000Y-61891000D03*
X126751000Y-61891000D03*
X127201000Y-61891000D03*
X127651000Y-61891000D03*
X128101000Y-61891000D03*
D53*
X127201000Y-60441000D03*
D35*
X94361000Y-65151000D03*
X92536000Y-65151000D03*
D32*
X103712000Y-94488000D03*
X105537000Y-94488000D03*
X135843000Y-128681000D03*
X137668000Y-128681000D03*
D31*
X147100000Y-122512500D03*
X147100000Y-120687500D03*
D36*
X79237500Y-122725000D03*
X80962500Y-122725000D03*
D31*
X118872000Y-58086000D03*
X118872000Y-56261000D03*
D49*
X104140000Y-102108000D03*
D50*
X104140000Y-104648000D03*
X104140000Y-107188000D03*
X104140000Y-109728000D03*
X104140000Y-112268000D03*
X104140000Y-114808000D03*
X104140000Y-117348000D03*
X104140000Y-119888000D03*
X116840000Y-102108000D03*
X116840000Y-104648000D03*
X116840000Y-107188000D03*
X116840000Y-109728000D03*
X116840000Y-112268000D03*
X116840000Y-114808000D03*
X116840000Y-117348000D03*
X116840000Y-119888000D03*
X111760000Y-119888000D03*
X114300000Y-119888000D03*
D35*
X122602000Y-60325000D03*
X120777000Y-60325000D03*
D31*
X116967000Y-57681500D03*
X116967000Y-55856500D03*
X120523000Y-58109500D03*
X120523000Y-56284500D03*
D43*
X125603000Y-55348500D03*
X125603000Y-57173500D03*
M02*
