M48
; DRILL file {KiCad 8.0.2} date 2024-05-26T03:41:14+0200
; FORMAT={-:-/ absolute / metric / decimal}
; #@! TF.CreationDate,2024-05-26T03:41:14+02:00
; #@! TF.GenerationSoftware,Kicad,Pcbnew,8.0.2
; #@! TF.FileFunction,Plated,1,2,PTH
FMAT,2
METRIC
; #@! TA.AperFunction,Plated,PTH,ViaDrill
T1C0.300
; #@! TA.AperFunction,Plated,PTH,ViaDrill
T2C0.400
; #@! TA.AperFunction,Plated,PTH,ComponentDrill
T3C0.780
; #@! TA.AperFunction,Plated,PTH,ComponentDrill
T4C0.950
; #@! TA.AperFunction,Plated,PTH,ComponentDrill
T5C1.000
; #@! TA.AperFunction,Plated,PTH,ComponentDrill
T6C1.016
; #@! TA.AperFunction,Plated,PTH,ComponentDrill
T7C1.020
; #@! TA.AperFunction,Plated,PTH,ComponentDrill
T8C1.350
; #@! TA.AperFunction,Plated,PTH,ComponentDrill
T9C2.750
%
G90
G05
T1
X127.889Y-62.942
X128.143Y-57.962
T2
X52.578Y-85.725
X56.495Y-76.261
X60.225Y-88.175
X62.738Y-65.913
X64.262Y-68.453
X65.475Y-88.05
X65.65Y-95.0
X66.05Y-89.05
X66.421Y-68.453
X66.875Y-75.311
X67.082Y-114.808
X67.85Y-98.15
X68.072Y-73.914
X68.199Y-77.978
X68.199Y-94.361
X68.6Y-88.375
X69.2Y-91.375
X69.596Y-65.913
X71.05Y-97.65
X71.247Y-122.809
X71.325Y-95.8
X71.35Y-94.575
X71.592Y-89.108
X71.725Y-121.075
X72.263Y-66.421
X73.406Y-85.598
X73.725Y-89.275
X73.95Y-92.7
X74.295Y-108.204
X74.93Y-73.66
X74.93Y-89.154
X75.05Y-121.55
X75.946Y-88.646
X76.138Y-91.387
X77.47Y-73.66
X78.105Y-91.821
X79.375Y-73.279
X79.936Y-114.808
X80.391Y-98.679
X81.788Y-109.982
X81.915Y-106.934
X82.025Y-94.025
X82.042Y-74.295
X82.042Y-89.027
X82.129Y-122.936
X83.425Y-115.3
X83.693Y-89.027
X83.947Y-106.172
X84.836Y-88.646
X85.125Y-93.3
X85.471Y-77.47
X85.979Y-88.646
X86.35Y-94.025
X86.487Y-74.93
X87.757Y-75.819
X87.757Y-94.742
X88.011Y-88.683
X88.224Y-87.611
X88.302Y-85.344
X88.302Y-86.614
X88.646Y-114.173
X89.15Y-98.775
X89.154Y-106.553
X89.281Y-73.279
X89.925Y-87.525
X90.575Y-85.525
X90.805Y-98.298
X90.927Y-89.276
X90.932Y-95.631
X91.821Y-72.898
X91.948Y-61.849
X92.202Y-58.928
X93.025Y-85.3
X93.06Y-95.482
X93.472Y-96.393
X93.725Y-78.025
X93.75Y-114.3
X94.107Y-85.725
X94.175Y-91.244
X95.25Y-96.647
X95.313Y-85.915
X96.52Y-78.74
X96.75Y-76.125
X97.225Y-87.525
X97.409Y-85.471
X98.925Y-105.7
X99.35Y-79.05
X100.076Y-79.883
X100.203Y-115.316
X100.203Y-131.191
X100.33Y-87.503
X101.125Y-85.55
X101.6Y-88.519
X101.6Y-92.202
X101.65Y-97.2
X101.661Y-83.763
X101.8Y-76.275
X102.235Y-84.582
X102.275Y-60.95
X102.425Y-77.914
X102.55Y-65.15
X103.087Y-81.775
X103.15Y-80.625
X103.775Y-99.625
X104.394Y-96.266
X105.6Y-58.483
X105.664Y-62.103
X106.35Y-96.95
X106.426Y-115.189
X106.766Y-89.191
X107.175Y-80.775
X107.315Y-76.275
X107.315Y-77.47
X107.315Y-78.613
X107.823Y-74.676
X107.823Y-98.552
X107.825Y-101.9
X108.712Y-57.785
X108.745Y-84.92
X108.966Y-117.221
X109.95Y-81.15
X110.236Y-57.785
X110.35Y-96.8
X110.527Y-95.55
X111.225Y-105.0
X111.76Y-57.912
X111.85Y-84.3
X112.0Y-95.9
X112.125Y-98.375
X112.2Y-91.525
X112.268Y-76.454
X112.268Y-104.648
X112.425Y-89.925
X112.875Y-115.35
X113.284Y-57.912
X113.35Y-98.4
X114.039Y-101.711
X114.05Y-99.275
X114.3Y-110.49
X114.801Y-104.505
X114.808Y-103.505
X114.825Y-117.825
X114.95Y-57.85
X115.462Y-96.388
X115.57Y-123.063
X115.725Y-88.225
X115.825Y-92.0
X116.1Y-90.075
X116.55Y-86.775
X116.85Y-82.175
X116.967Y-54.864
X117.025Y-66.525
X117.45Y-84.675
X117.987Y-98.838
X118.3Y-97.1
X118.85Y-110.15
X118.872Y-54.991
X118.872Y-59.309
X119.275Y-81.85
X119.45Y-107.0
X119.7Y-99.859
X119.715Y-84.646
X119.85Y-96.65
X120.05Y-111.875
X120.269Y-123.19
X120.396Y-103.632
X120.48Y-85.945
X120.725Y-87.925
X121.0Y-95.825
X121.075Y-108.992
X121.125Y-64.0
X121.802Y-89.027
X122.216Y-59.234
X122.301Y-85.09
X122.425Y-108.55
X123.571Y-56.388
X123.698Y-53.721
X124.079Y-58.801
X124.079Y-62.267
X124.206Y-57.658
X124.714Y-78.359
X125.025Y-99.475
X125.222Y-116.459
X125.608Y-121.925
X125.73Y-86.36
X125.95Y-104.775
X126.475Y-109.975
X126.619Y-113.03
X126.95Y-63.975
X127.254Y-119.253
X127.3Y-106.7
X127.381Y-122.682
X127.6Y-109.6
X127.762Y-104.902
X127.762Y-133.096
X128.2Y-54.9
X129.921Y-118.237
X130.175Y-59.225
X130.25Y-54.9
X130.825Y-109.825
X130.974Y-105.918
X131.475Y-60.825
X131.826Y-100.838
X132.4Y-54.975
X132.85Y-95.475
X133.325Y-107.2
X133.375Y-104.7
X134.366Y-61.849
X135.001Y-86.741
X135.475Y-66.8
X136.85Y-77.375
X137.275Y-98.225
X138.775Y-99.224
X139.025Y-97.2
X140.775Y-77.175
X142.175Y-65.2
X142.24Y-83.439
X143.675Y-120.4
X145.725Y-84.575
X146.525Y-75.45
X147.325Y-116.625
X147.701Y-81.788
X147.701Y-84.963
X148.082Y-99.949
X148.325Y-87.2
X148.55Y-82.725
X148.6Y-106.55
X148.85Y-112.75
X149.425Y-84.875
X151.1Y-104.675
X152.075Y-100.965
X152.275Y-116.75
X154.075Y-106.8
X154.95Y-112.975
X156.825Y-102.05
X159.375Y-100.75
T3
X98.171Y-57.785
X98.171Y-60.325
X98.171Y-62.865
T4
X56.79Y-55.746
X56.79Y-58.246
X56.79Y-60.746
X56.79Y-63.246
X56.79Y-65.746
X56.79Y-68.246
X56.79Y-70.746
X56.896Y-111.873
X56.896Y-114.373
X56.896Y-116.873
X56.896Y-119.373
X56.896Y-121.873
X56.896Y-124.373
X56.896Y-126.873
X63.747Y-127.508
X65.812Y-62.23
X66.247Y-127.508
X68.312Y-62.23
X68.747Y-127.508
X70.812Y-62.23
X71.247Y-127.508
X73.312Y-62.23
X75.812Y-62.23
X77.47Y-127.614
X78.312Y-62.23
X79.97Y-127.614
X80.812Y-62.23
X82.47Y-127.614
X83.312Y-62.23
X90.865Y-127.614
X93.365Y-127.614
X95.865Y-127.614
X98.365Y-127.614
X104.454Y-127.614
X106.954Y-127.614
X109.454Y-127.614
X111.954Y-127.614
T5
X65.024Y-118.491
X67.564Y-118.491
X70.104Y-118.491
X77.804Y-118.491
X80.344Y-118.491
X82.884Y-118.491
X104.14Y-102.108
X104.14Y-104.648
X104.14Y-107.188
X104.14Y-109.728
X104.14Y-112.268
X104.14Y-114.808
X104.14Y-117.348
X104.14Y-119.888
X111.76Y-119.888
X114.3Y-119.888
X116.84Y-102.108
X116.84Y-104.648
X116.84Y-107.188
X116.84Y-109.728
X116.84Y-112.268
X116.84Y-114.808
X116.84Y-117.348
X116.84Y-119.888
X120.924Y-127.614
X123.424Y-127.614
X123.952Y-102.362
X123.952Y-104.902
X123.952Y-107.442
X123.952Y-109.982
X123.952Y-112.522
X123.952Y-115.062
X123.952Y-117.602
X123.952Y-120.142
X129.54Y-79.756
X129.54Y-82.296
X129.54Y-84.836
X129.56Y-127.614
X131.572Y-120.142
X132.06Y-127.614
X134.112Y-120.142
X135.001Y-54.864
X136.652Y-102.362
X136.652Y-104.902
X136.652Y-107.442
X136.652Y-109.982
X136.652Y-112.522
X136.652Y-115.062
X136.652Y-117.602
X136.652Y-120.142
X137.541Y-54.864
X141.371Y-127.614
X143.871Y-127.614
X150.007Y-127.614
X152.507Y-127.614
X153.425Y-77.825
X153.425Y-80.365
X153.425Y-82.905
X155.194Y-88.9
X155.194Y-91.44
X155.194Y-93.98
X155.194Y-96.52
X155.965Y-77.825
X155.965Y-80.365
X155.965Y-82.905
X157.734Y-88.9
X157.734Y-91.44
X157.734Y-93.98
X157.734Y-96.52
T6
X103.552Y-70.098
X103.552Y-72.638
X106.092Y-70.098
X106.092Y-72.638
X108.632Y-70.098
X108.632Y-72.638
X111.172Y-70.098
X111.172Y-72.638
X113.712Y-70.098
X113.712Y-72.638
X116.252Y-70.098
X116.252Y-72.638
X118.792Y-70.098
X118.792Y-72.638
X121.332Y-70.098
X121.332Y-72.638
X123.872Y-70.098
X123.872Y-72.638
X126.412Y-70.098
X126.412Y-72.638
X128.952Y-70.098
X128.952Y-72.638
X131.492Y-70.098
X131.492Y-72.638
X134.032Y-70.098
X134.032Y-72.638
X136.572Y-70.098
X136.572Y-72.638
X139.112Y-70.098
X139.112Y-72.638
X141.652Y-70.098
X141.652Y-72.638
X144.192Y-70.098
X144.192Y-72.638
X146.732Y-70.098
X146.732Y-72.638
X149.272Y-70.098
X149.272Y-72.638
X151.812Y-70.098
X151.812Y-72.638
T7
X49.022Y-82.804
X49.022Y-100.584
X51.562Y-82.804
X51.562Y-100.584
X54.102Y-82.804
X54.102Y-100.584
X56.642Y-82.804
X56.642Y-100.584
X59.182Y-82.804
X59.182Y-100.584
X61.722Y-82.804
X61.722Y-100.584
X64.262Y-82.804
X64.262Y-100.584
X66.802Y-82.804
X66.802Y-100.584
X69.342Y-82.804
X69.342Y-100.584
X71.882Y-82.804
X71.882Y-100.584
X74.422Y-82.804
X74.422Y-100.584
X76.962Y-82.804
X76.962Y-100.584
X79.502Y-82.804
X79.502Y-100.584
X82.042Y-82.804
X82.042Y-100.584
X84.582Y-82.804
X84.582Y-100.584
X87.122Y-82.804
X87.122Y-100.584
X89.662Y-82.804
X89.662Y-100.584
X92.202Y-82.804
X92.202Y-100.584
X94.742Y-82.804
X94.742Y-100.584
X97.052Y-89.154
X97.052Y-91.694
X97.052Y-94.234
X97.282Y-82.804
X97.282Y-100.584
T8
X146.41Y-54.83
X146.41Y-62.45
X151.41Y-54.83
X151.41Y-62.45
X156.41Y-54.83
X156.41Y-62.45
T9
X98.682Y-71.368
X98.682Y-120.368
X156.682Y-71.368
X156.682Y-120.368
M30
