G04 #@! TF.GenerationSoftware,KiCad,Pcbnew,8.0.2*
G04 #@! TF.CreationDate,2024-05-29T13:55:41+02:00*
G04 #@! TF.ProjectId,universalConnectorBoard,756e6976-6572-4736-916c-436f6e6e6563,rev?*
G04 #@! TF.SameCoordinates,Original*
G04 #@! TF.FileFunction,Legend,Bot*
G04 #@! TF.FilePolarity,Positive*
%FSLAX46Y46*%
G04 Gerber Fmt 4.6, Leading zero omitted, Abs format (unit mm)*
G04 Created by KiCad (PCBNEW 8.0.2) date 2024-05-29 13:55:41*
%MOMM*%
%LPD*%
G01*
G04 APERTURE LIST*
G04 Aperture macros list*
%AMRoundRect*
0 Rectangle with rounded corners*
0 $1 Rounding radius*
0 $2 $3 $4 $5 $6 $7 $8 $9 X,Y pos of 4 corners*
0 Add a 4 corners polygon primitive as box body*
4,1,4,$2,$3,$4,$5,$6,$7,$8,$9,$2,$3,0*
0 Add four circle primitives for the rounded corners*
1,1,$1+$1,$2,$3*
1,1,$1+$1,$4,$5*
1,1,$1+$1,$6,$7*
1,1,$1+$1,$8,$9*
0 Add four rect primitives between the rounded corners*
20,1,$1+$1,$2,$3,$4,$5,0*
20,1,$1+$1,$4,$5,$6,$7,0*
20,1,$1+$1,$6,$7,$8,$9,0*
20,1,$1+$1,$8,$9,$2,$3,0*%
G04 Aperture macros list end*
%ADD10C,0.100000*%
%ADD11C,0.150000*%
%ADD12C,0.300000*%
%ADD13C,0.400000*%
%ADD14C,0.153000*%
%ADD15C,0.250000*%
%ADD16C,0.120000*%
%ADD17RoundRect,0.250000X-0.725000X0.600000X-0.725000X-0.600000X0.725000X-0.600000X0.725000X0.600000X0*%
%ADD18O,1.950000X1.700000*%
%ADD19R,1.700000X1.700000*%
%ADD20O,1.700000X1.700000*%
%ADD21RoundRect,0.250000X-0.600000X-0.750000X0.600000X-0.750000X0.600000X0.750000X-0.600000X0.750000X0*%
%ADD22O,1.700000X2.000000*%
%ADD23C,1.280000*%
%ADD24O,1.800000X1.800000*%
%ADD25O,1.500000X1.500000*%
%ADD26RoundRect,0.250000X-0.600000X-0.725000X0.600000X-0.725000X0.600000X0.725000X-0.600000X0.725000X0*%
%ADD27O,1.700000X1.950000*%
%ADD28RoundRect,0.102000X-0.762000X-0.762000X0.762000X-0.762000X0.762000X0.762000X-0.762000X0.762000X0*%
%ADD29C,1.728000*%
%ADD30C,6.404000*%
%ADD31RoundRect,0.250000X0.600000X0.725000X-0.600000X0.725000X-0.600000X-0.725000X0.600000X-0.725000X0*%
%ADD32C,2.025000*%
%ADD33RoundRect,0.102000X-0.754000X-0.754000X0.754000X-0.754000X0.754000X0.754000X-0.754000X0.754000X0*%
%ADD34C,1.712000*%
%ADD35C,1.500000*%
G04 APERTURE END LIST*
D10*
D11*
X177002200Y-166007200D02*
X285002200Y-166007200D01*
X285002200Y-198007200D01*
X177002200Y-198007200D01*
X177002200Y-166007200D01*
D10*
D11*
X10000000Y-10000000D02*
X287002200Y-10000000D01*
X287002200Y-200007200D01*
X10000000Y-200007200D01*
X10000000Y-10000000D01*
D10*
D11*
X12000000Y-12000000D02*
X285002200Y-12000000D01*
X285002200Y-198007200D01*
X12000000Y-198007200D01*
X12000000Y-12000000D01*
D10*
D11*
X60000000Y-12000000D02*
X60000000Y-10000000D01*
D10*
D11*
X110000000Y-12000000D02*
X110000000Y-10000000D01*
D10*
D11*
X160000000Y-12000000D02*
X160000000Y-10000000D01*
D10*
D11*
X210000000Y-12000000D02*
X210000000Y-10000000D01*
D10*
D11*
X260000000Y-12000000D02*
X260000000Y-10000000D01*
D10*
D11*
X36089160Y-11593604D02*
X35346303Y-11593604D01*
X35717731Y-11593604D02*
X35717731Y-10293604D01*
X35717731Y-10293604D02*
X35593922Y-10479319D01*
X35593922Y-10479319D02*
X35470112Y-10603128D01*
X35470112Y-10603128D02*
X35346303Y-10665033D01*
D10*
D11*
X85346303Y-10417414D02*
X85408207Y-10355509D01*
X85408207Y-10355509D02*
X85532017Y-10293604D01*
X85532017Y-10293604D02*
X85841541Y-10293604D01*
X85841541Y-10293604D02*
X85965350Y-10355509D01*
X85965350Y-10355509D02*
X86027255Y-10417414D01*
X86027255Y-10417414D02*
X86089160Y-10541223D01*
X86089160Y-10541223D02*
X86089160Y-10665033D01*
X86089160Y-10665033D02*
X86027255Y-10850747D01*
X86027255Y-10850747D02*
X85284398Y-11593604D01*
X85284398Y-11593604D02*
X86089160Y-11593604D01*
D10*
D11*
X135284398Y-10293604D02*
X136089160Y-10293604D01*
X136089160Y-10293604D02*
X135655826Y-10788842D01*
X135655826Y-10788842D02*
X135841541Y-10788842D01*
X135841541Y-10788842D02*
X135965350Y-10850747D01*
X135965350Y-10850747D02*
X136027255Y-10912652D01*
X136027255Y-10912652D02*
X136089160Y-11036461D01*
X136089160Y-11036461D02*
X136089160Y-11345985D01*
X136089160Y-11345985D02*
X136027255Y-11469795D01*
X136027255Y-11469795D02*
X135965350Y-11531700D01*
X135965350Y-11531700D02*
X135841541Y-11593604D01*
X135841541Y-11593604D02*
X135470112Y-11593604D01*
X135470112Y-11593604D02*
X135346303Y-11531700D01*
X135346303Y-11531700D02*
X135284398Y-11469795D01*
D10*
D11*
X185965350Y-10726938D02*
X185965350Y-11593604D01*
X185655826Y-10231700D02*
X185346303Y-11160271D01*
X185346303Y-11160271D02*
X186151064Y-11160271D01*
D10*
D11*
X236027255Y-10293604D02*
X235408207Y-10293604D01*
X235408207Y-10293604D02*
X235346303Y-10912652D01*
X235346303Y-10912652D02*
X235408207Y-10850747D01*
X235408207Y-10850747D02*
X235532017Y-10788842D01*
X235532017Y-10788842D02*
X235841541Y-10788842D01*
X235841541Y-10788842D02*
X235965350Y-10850747D01*
X235965350Y-10850747D02*
X236027255Y-10912652D01*
X236027255Y-10912652D02*
X236089160Y-11036461D01*
X236089160Y-11036461D02*
X236089160Y-11345985D01*
X236089160Y-11345985D02*
X236027255Y-11469795D01*
X236027255Y-11469795D02*
X235965350Y-11531700D01*
X235965350Y-11531700D02*
X235841541Y-11593604D01*
X235841541Y-11593604D02*
X235532017Y-11593604D01*
X235532017Y-11593604D02*
X235408207Y-11531700D01*
X235408207Y-11531700D02*
X235346303Y-11469795D01*
D10*
D11*
X285965350Y-10293604D02*
X285717731Y-10293604D01*
X285717731Y-10293604D02*
X285593922Y-10355509D01*
X285593922Y-10355509D02*
X285532017Y-10417414D01*
X285532017Y-10417414D02*
X285408207Y-10603128D01*
X285408207Y-10603128D02*
X285346303Y-10850747D01*
X285346303Y-10850747D02*
X285346303Y-11345985D01*
X285346303Y-11345985D02*
X285408207Y-11469795D01*
X285408207Y-11469795D02*
X285470112Y-11531700D01*
X285470112Y-11531700D02*
X285593922Y-11593604D01*
X285593922Y-11593604D02*
X285841541Y-11593604D01*
X285841541Y-11593604D02*
X285965350Y-11531700D01*
X285965350Y-11531700D02*
X286027255Y-11469795D01*
X286027255Y-11469795D02*
X286089160Y-11345985D01*
X286089160Y-11345985D02*
X286089160Y-11036461D01*
X286089160Y-11036461D02*
X286027255Y-10912652D01*
X286027255Y-10912652D02*
X285965350Y-10850747D01*
X285965350Y-10850747D02*
X285841541Y-10788842D01*
X285841541Y-10788842D02*
X285593922Y-10788842D01*
X285593922Y-10788842D02*
X285470112Y-10850747D01*
X285470112Y-10850747D02*
X285408207Y-10912652D01*
X285408207Y-10912652D02*
X285346303Y-11036461D01*
D10*
D11*
X60000000Y-198007200D02*
X60000000Y-200007200D01*
D10*
D11*
X110000000Y-198007200D02*
X110000000Y-200007200D01*
D10*
D11*
X160000000Y-198007200D02*
X160000000Y-200007200D01*
D10*
D11*
X210000000Y-198007200D02*
X210000000Y-200007200D01*
D10*
D11*
X260000000Y-198007200D02*
X260000000Y-200007200D01*
D10*
D11*
X36089160Y-199600804D02*
X35346303Y-199600804D01*
X35717731Y-199600804D02*
X35717731Y-198300804D01*
X35717731Y-198300804D02*
X35593922Y-198486519D01*
X35593922Y-198486519D02*
X35470112Y-198610328D01*
X35470112Y-198610328D02*
X35346303Y-198672233D01*
D10*
D11*
X85346303Y-198424614D02*
X85408207Y-198362709D01*
X85408207Y-198362709D02*
X85532017Y-198300804D01*
X85532017Y-198300804D02*
X85841541Y-198300804D01*
X85841541Y-198300804D02*
X85965350Y-198362709D01*
X85965350Y-198362709D02*
X86027255Y-198424614D01*
X86027255Y-198424614D02*
X86089160Y-198548423D01*
X86089160Y-198548423D02*
X86089160Y-198672233D01*
X86089160Y-198672233D02*
X86027255Y-198857947D01*
X86027255Y-198857947D02*
X85284398Y-199600804D01*
X85284398Y-199600804D02*
X86089160Y-199600804D01*
D10*
D11*
X135284398Y-198300804D02*
X136089160Y-198300804D01*
X136089160Y-198300804D02*
X135655826Y-198796042D01*
X135655826Y-198796042D02*
X135841541Y-198796042D01*
X135841541Y-198796042D02*
X135965350Y-198857947D01*
X135965350Y-198857947D02*
X136027255Y-198919852D01*
X136027255Y-198919852D02*
X136089160Y-199043661D01*
X136089160Y-199043661D02*
X136089160Y-199353185D01*
X136089160Y-199353185D02*
X136027255Y-199476995D01*
X136027255Y-199476995D02*
X135965350Y-199538900D01*
X135965350Y-199538900D02*
X135841541Y-199600804D01*
X135841541Y-199600804D02*
X135470112Y-199600804D01*
X135470112Y-199600804D02*
X135346303Y-199538900D01*
X135346303Y-199538900D02*
X135284398Y-199476995D01*
D10*
D11*
X185965350Y-198734138D02*
X185965350Y-199600804D01*
X185655826Y-198238900D02*
X185346303Y-199167471D01*
X185346303Y-199167471D02*
X186151064Y-199167471D01*
D10*
D11*
X236027255Y-198300804D02*
X235408207Y-198300804D01*
X235408207Y-198300804D02*
X235346303Y-198919852D01*
X235346303Y-198919852D02*
X235408207Y-198857947D01*
X235408207Y-198857947D02*
X235532017Y-198796042D01*
X235532017Y-198796042D02*
X235841541Y-198796042D01*
X235841541Y-198796042D02*
X235965350Y-198857947D01*
X235965350Y-198857947D02*
X236027255Y-198919852D01*
X236027255Y-198919852D02*
X236089160Y-199043661D01*
X236089160Y-199043661D02*
X236089160Y-199353185D01*
X236089160Y-199353185D02*
X236027255Y-199476995D01*
X236027255Y-199476995D02*
X235965350Y-199538900D01*
X235965350Y-199538900D02*
X235841541Y-199600804D01*
X235841541Y-199600804D02*
X235532017Y-199600804D01*
X235532017Y-199600804D02*
X235408207Y-199538900D01*
X235408207Y-199538900D02*
X235346303Y-199476995D01*
D10*
D11*
X285965350Y-198300804D02*
X285717731Y-198300804D01*
X285717731Y-198300804D02*
X285593922Y-198362709D01*
X285593922Y-198362709D02*
X285532017Y-198424614D01*
X285532017Y-198424614D02*
X285408207Y-198610328D01*
X285408207Y-198610328D02*
X285346303Y-198857947D01*
X285346303Y-198857947D02*
X285346303Y-199353185D01*
X285346303Y-199353185D02*
X285408207Y-199476995D01*
X285408207Y-199476995D02*
X285470112Y-199538900D01*
X285470112Y-199538900D02*
X285593922Y-199600804D01*
X285593922Y-199600804D02*
X285841541Y-199600804D01*
X285841541Y-199600804D02*
X285965350Y-199538900D01*
X285965350Y-199538900D02*
X286027255Y-199476995D01*
X286027255Y-199476995D02*
X286089160Y-199353185D01*
X286089160Y-199353185D02*
X286089160Y-199043661D01*
X286089160Y-199043661D02*
X286027255Y-198919852D01*
X286027255Y-198919852D02*
X285965350Y-198857947D01*
X285965350Y-198857947D02*
X285841541Y-198796042D01*
X285841541Y-198796042D02*
X285593922Y-198796042D01*
X285593922Y-198796042D02*
X285470112Y-198857947D01*
X285470112Y-198857947D02*
X285408207Y-198919852D01*
X285408207Y-198919852D02*
X285346303Y-199043661D01*
D10*
D11*
X10000000Y-60000000D02*
X12000000Y-60000000D01*
D10*
D11*
X10000000Y-110000000D02*
X12000000Y-110000000D01*
D10*
D11*
X10000000Y-160000000D02*
X12000000Y-160000000D01*
D10*
D11*
X10690476Y-35222176D02*
X11309523Y-35222176D01*
X10566666Y-35593604D02*
X10999999Y-34293604D01*
X10999999Y-34293604D02*
X11433333Y-35593604D01*
D10*
D11*
X11092857Y-84912652D02*
X11278571Y-84974557D01*
X11278571Y-84974557D02*
X11340476Y-85036461D01*
X11340476Y-85036461D02*
X11402380Y-85160271D01*
X11402380Y-85160271D02*
X11402380Y-85345985D01*
X11402380Y-85345985D02*
X11340476Y-85469795D01*
X11340476Y-85469795D02*
X11278571Y-85531700D01*
X11278571Y-85531700D02*
X11154761Y-85593604D01*
X11154761Y-85593604D02*
X10659523Y-85593604D01*
X10659523Y-85593604D02*
X10659523Y-84293604D01*
X10659523Y-84293604D02*
X11092857Y-84293604D01*
X11092857Y-84293604D02*
X11216666Y-84355509D01*
X11216666Y-84355509D02*
X11278571Y-84417414D01*
X11278571Y-84417414D02*
X11340476Y-84541223D01*
X11340476Y-84541223D02*
X11340476Y-84665033D01*
X11340476Y-84665033D02*
X11278571Y-84788842D01*
X11278571Y-84788842D02*
X11216666Y-84850747D01*
X11216666Y-84850747D02*
X11092857Y-84912652D01*
X11092857Y-84912652D02*
X10659523Y-84912652D01*
D10*
D11*
X11402380Y-135469795D02*
X11340476Y-135531700D01*
X11340476Y-135531700D02*
X11154761Y-135593604D01*
X11154761Y-135593604D02*
X11030952Y-135593604D01*
X11030952Y-135593604D02*
X10845238Y-135531700D01*
X10845238Y-135531700D02*
X10721428Y-135407890D01*
X10721428Y-135407890D02*
X10659523Y-135284080D01*
X10659523Y-135284080D02*
X10597619Y-135036461D01*
X10597619Y-135036461D02*
X10597619Y-134850747D01*
X10597619Y-134850747D02*
X10659523Y-134603128D01*
X10659523Y-134603128D02*
X10721428Y-134479319D01*
X10721428Y-134479319D02*
X10845238Y-134355509D01*
X10845238Y-134355509D02*
X11030952Y-134293604D01*
X11030952Y-134293604D02*
X11154761Y-134293604D01*
X11154761Y-134293604D02*
X11340476Y-134355509D01*
X11340476Y-134355509D02*
X11402380Y-134417414D01*
D10*
D11*
X10659523Y-185593604D02*
X10659523Y-184293604D01*
X10659523Y-184293604D02*
X10969047Y-184293604D01*
X10969047Y-184293604D02*
X11154761Y-184355509D01*
X11154761Y-184355509D02*
X11278571Y-184479319D01*
X11278571Y-184479319D02*
X11340476Y-184603128D01*
X11340476Y-184603128D02*
X11402380Y-184850747D01*
X11402380Y-184850747D02*
X11402380Y-185036461D01*
X11402380Y-185036461D02*
X11340476Y-185284080D01*
X11340476Y-185284080D02*
X11278571Y-185407890D01*
X11278571Y-185407890D02*
X11154761Y-185531700D01*
X11154761Y-185531700D02*
X10969047Y-185593604D01*
X10969047Y-185593604D02*
X10659523Y-185593604D01*
D10*
D11*
X287002200Y-60000000D02*
X285002200Y-60000000D01*
D10*
D11*
X287002200Y-110000000D02*
X285002200Y-110000000D01*
D10*
D11*
X287002200Y-160000000D02*
X285002200Y-160000000D01*
D10*
D11*
X285692676Y-35222176D02*
X286311723Y-35222176D01*
X285568866Y-35593604D02*
X286002199Y-34293604D01*
X286002199Y-34293604D02*
X286435533Y-35593604D01*
D10*
D11*
X286095057Y-84912652D02*
X286280771Y-84974557D01*
X286280771Y-84974557D02*
X286342676Y-85036461D01*
X286342676Y-85036461D02*
X286404580Y-85160271D01*
X286404580Y-85160271D02*
X286404580Y-85345985D01*
X286404580Y-85345985D02*
X286342676Y-85469795D01*
X286342676Y-85469795D02*
X286280771Y-85531700D01*
X286280771Y-85531700D02*
X286156961Y-85593604D01*
X286156961Y-85593604D02*
X285661723Y-85593604D01*
X285661723Y-85593604D02*
X285661723Y-84293604D01*
X285661723Y-84293604D02*
X286095057Y-84293604D01*
X286095057Y-84293604D02*
X286218866Y-84355509D01*
X286218866Y-84355509D02*
X286280771Y-84417414D01*
X286280771Y-84417414D02*
X286342676Y-84541223D01*
X286342676Y-84541223D02*
X286342676Y-84665033D01*
X286342676Y-84665033D02*
X286280771Y-84788842D01*
X286280771Y-84788842D02*
X286218866Y-84850747D01*
X286218866Y-84850747D02*
X286095057Y-84912652D01*
X286095057Y-84912652D02*
X285661723Y-84912652D01*
D10*
D11*
X286404580Y-135469795D02*
X286342676Y-135531700D01*
X286342676Y-135531700D02*
X286156961Y-135593604D01*
X286156961Y-135593604D02*
X286033152Y-135593604D01*
X286033152Y-135593604D02*
X285847438Y-135531700D01*
X285847438Y-135531700D02*
X285723628Y-135407890D01*
X285723628Y-135407890D02*
X285661723Y-135284080D01*
X285661723Y-135284080D02*
X285599819Y-135036461D01*
X285599819Y-135036461D02*
X285599819Y-134850747D01*
X285599819Y-134850747D02*
X285661723Y-134603128D01*
X285661723Y-134603128D02*
X285723628Y-134479319D01*
X285723628Y-134479319D02*
X285847438Y-134355509D01*
X285847438Y-134355509D02*
X286033152Y-134293604D01*
X286033152Y-134293604D02*
X286156961Y-134293604D01*
X286156961Y-134293604D02*
X286342676Y-134355509D01*
X286342676Y-134355509D02*
X286404580Y-134417414D01*
D10*
D11*
X285661723Y-185593604D02*
X285661723Y-184293604D01*
X285661723Y-184293604D02*
X285971247Y-184293604D01*
X285971247Y-184293604D02*
X286156961Y-184355509D01*
X286156961Y-184355509D02*
X286280771Y-184479319D01*
X286280771Y-184479319D02*
X286342676Y-184603128D01*
X286342676Y-184603128D02*
X286404580Y-184850747D01*
X286404580Y-184850747D02*
X286404580Y-185036461D01*
X286404580Y-185036461D02*
X286342676Y-185284080D01*
X286342676Y-185284080D02*
X286280771Y-185407890D01*
X286280771Y-185407890D02*
X286156961Y-185531700D01*
X286156961Y-185531700D02*
X285971247Y-185593604D01*
X285971247Y-185593604D02*
X285661723Y-185593604D01*
D10*
D11*
X200458026Y-193793328D02*
X200458026Y-192293328D01*
X200458026Y-192293328D02*
X200815169Y-192293328D01*
X200815169Y-192293328D02*
X201029455Y-192364757D01*
X201029455Y-192364757D02*
X201172312Y-192507614D01*
X201172312Y-192507614D02*
X201243741Y-192650471D01*
X201243741Y-192650471D02*
X201315169Y-192936185D01*
X201315169Y-192936185D02*
X201315169Y-193150471D01*
X201315169Y-193150471D02*
X201243741Y-193436185D01*
X201243741Y-193436185D02*
X201172312Y-193579042D01*
X201172312Y-193579042D02*
X201029455Y-193721900D01*
X201029455Y-193721900D02*
X200815169Y-193793328D01*
X200815169Y-193793328D02*
X200458026Y-193793328D01*
X202600884Y-193793328D02*
X202600884Y-193007614D01*
X202600884Y-193007614D02*
X202529455Y-192864757D01*
X202529455Y-192864757D02*
X202386598Y-192793328D01*
X202386598Y-192793328D02*
X202100884Y-192793328D01*
X202100884Y-192793328D02*
X201958026Y-192864757D01*
X202600884Y-193721900D02*
X202458026Y-193793328D01*
X202458026Y-193793328D02*
X202100884Y-193793328D01*
X202100884Y-193793328D02*
X201958026Y-193721900D01*
X201958026Y-193721900D02*
X201886598Y-193579042D01*
X201886598Y-193579042D02*
X201886598Y-193436185D01*
X201886598Y-193436185D02*
X201958026Y-193293328D01*
X201958026Y-193293328D02*
X202100884Y-193221900D01*
X202100884Y-193221900D02*
X202458026Y-193221900D01*
X202458026Y-193221900D02*
X202600884Y-193150471D01*
X203100884Y-192793328D02*
X203672312Y-192793328D01*
X203315169Y-192293328D02*
X203315169Y-193579042D01*
X203315169Y-193579042D02*
X203386598Y-193721900D01*
X203386598Y-193721900D02*
X203529455Y-193793328D01*
X203529455Y-193793328D02*
X203672312Y-193793328D01*
X204743741Y-193721900D02*
X204600884Y-193793328D01*
X204600884Y-193793328D02*
X204315170Y-193793328D01*
X204315170Y-193793328D02*
X204172312Y-193721900D01*
X204172312Y-193721900D02*
X204100884Y-193579042D01*
X204100884Y-193579042D02*
X204100884Y-193007614D01*
X204100884Y-193007614D02*
X204172312Y-192864757D01*
X204172312Y-192864757D02*
X204315170Y-192793328D01*
X204315170Y-192793328D02*
X204600884Y-192793328D01*
X204600884Y-192793328D02*
X204743741Y-192864757D01*
X204743741Y-192864757D02*
X204815170Y-193007614D01*
X204815170Y-193007614D02*
X204815170Y-193150471D01*
X204815170Y-193150471D02*
X204100884Y-193293328D01*
X205458026Y-193650471D02*
X205529455Y-193721900D01*
X205529455Y-193721900D02*
X205458026Y-193793328D01*
X205458026Y-193793328D02*
X205386598Y-193721900D01*
X205386598Y-193721900D02*
X205458026Y-193650471D01*
X205458026Y-193650471D02*
X205458026Y-193793328D01*
X205458026Y-192864757D02*
X205529455Y-192936185D01*
X205529455Y-192936185D02*
X205458026Y-193007614D01*
X205458026Y-193007614D02*
X205386598Y-192936185D01*
X205386598Y-192936185D02*
X205458026Y-192864757D01*
X205458026Y-192864757D02*
X205458026Y-193007614D01*
D10*
D11*
X177002200Y-194507200D02*
X285002200Y-194507200D01*
D10*
D11*
X178458026Y-196593328D02*
X178458026Y-195093328D01*
X179315169Y-196593328D02*
X178672312Y-195736185D01*
X179315169Y-195093328D02*
X178458026Y-195950471D01*
X179958026Y-196593328D02*
X179958026Y-195593328D01*
X179958026Y-195093328D02*
X179886598Y-195164757D01*
X179886598Y-195164757D02*
X179958026Y-195236185D01*
X179958026Y-195236185D02*
X180029455Y-195164757D01*
X180029455Y-195164757D02*
X179958026Y-195093328D01*
X179958026Y-195093328D02*
X179958026Y-195236185D01*
X181529455Y-196450471D02*
X181458027Y-196521900D01*
X181458027Y-196521900D02*
X181243741Y-196593328D01*
X181243741Y-196593328D02*
X181100884Y-196593328D01*
X181100884Y-196593328D02*
X180886598Y-196521900D01*
X180886598Y-196521900D02*
X180743741Y-196379042D01*
X180743741Y-196379042D02*
X180672312Y-196236185D01*
X180672312Y-196236185D02*
X180600884Y-195950471D01*
X180600884Y-195950471D02*
X180600884Y-195736185D01*
X180600884Y-195736185D02*
X180672312Y-195450471D01*
X180672312Y-195450471D02*
X180743741Y-195307614D01*
X180743741Y-195307614D02*
X180886598Y-195164757D01*
X180886598Y-195164757D02*
X181100884Y-195093328D01*
X181100884Y-195093328D02*
X181243741Y-195093328D01*
X181243741Y-195093328D02*
X181458027Y-195164757D01*
X181458027Y-195164757D02*
X181529455Y-195236185D01*
X182815170Y-196593328D02*
X182815170Y-195807614D01*
X182815170Y-195807614D02*
X182743741Y-195664757D01*
X182743741Y-195664757D02*
X182600884Y-195593328D01*
X182600884Y-195593328D02*
X182315170Y-195593328D01*
X182315170Y-195593328D02*
X182172312Y-195664757D01*
X182815170Y-196521900D02*
X182672312Y-196593328D01*
X182672312Y-196593328D02*
X182315170Y-196593328D01*
X182315170Y-196593328D02*
X182172312Y-196521900D01*
X182172312Y-196521900D02*
X182100884Y-196379042D01*
X182100884Y-196379042D02*
X182100884Y-196236185D01*
X182100884Y-196236185D02*
X182172312Y-196093328D01*
X182172312Y-196093328D02*
X182315170Y-196021900D01*
X182315170Y-196021900D02*
X182672312Y-196021900D01*
X182672312Y-196021900D02*
X182815170Y-195950471D01*
X184172313Y-196593328D02*
X184172313Y-195093328D01*
X184172313Y-196521900D02*
X184029455Y-196593328D01*
X184029455Y-196593328D02*
X183743741Y-196593328D01*
X183743741Y-196593328D02*
X183600884Y-196521900D01*
X183600884Y-196521900D02*
X183529455Y-196450471D01*
X183529455Y-196450471D02*
X183458027Y-196307614D01*
X183458027Y-196307614D02*
X183458027Y-195879042D01*
X183458027Y-195879042D02*
X183529455Y-195736185D01*
X183529455Y-195736185D02*
X183600884Y-195664757D01*
X183600884Y-195664757D02*
X183743741Y-195593328D01*
X183743741Y-195593328D02*
X184029455Y-195593328D01*
X184029455Y-195593328D02*
X184172313Y-195664757D01*
X186029455Y-195807614D02*
X186529455Y-195807614D01*
X186743741Y-196593328D02*
X186029455Y-196593328D01*
X186029455Y-196593328D02*
X186029455Y-195093328D01*
X186029455Y-195093328D02*
X186743741Y-195093328D01*
X187386598Y-196450471D02*
X187458027Y-196521900D01*
X187458027Y-196521900D02*
X187386598Y-196593328D01*
X187386598Y-196593328D02*
X187315170Y-196521900D01*
X187315170Y-196521900D02*
X187386598Y-196450471D01*
X187386598Y-196450471D02*
X187386598Y-196593328D01*
X188100884Y-196593328D02*
X188100884Y-195093328D01*
X188100884Y-195093328D02*
X188458027Y-195093328D01*
X188458027Y-195093328D02*
X188672313Y-195164757D01*
X188672313Y-195164757D02*
X188815170Y-195307614D01*
X188815170Y-195307614D02*
X188886599Y-195450471D01*
X188886599Y-195450471D02*
X188958027Y-195736185D01*
X188958027Y-195736185D02*
X188958027Y-195950471D01*
X188958027Y-195950471D02*
X188886599Y-196236185D01*
X188886599Y-196236185D02*
X188815170Y-196379042D01*
X188815170Y-196379042D02*
X188672313Y-196521900D01*
X188672313Y-196521900D02*
X188458027Y-196593328D01*
X188458027Y-196593328D02*
X188100884Y-196593328D01*
X189600884Y-196450471D02*
X189672313Y-196521900D01*
X189672313Y-196521900D02*
X189600884Y-196593328D01*
X189600884Y-196593328D02*
X189529456Y-196521900D01*
X189529456Y-196521900D02*
X189600884Y-196450471D01*
X189600884Y-196450471D02*
X189600884Y-196593328D01*
X190243742Y-196164757D02*
X190958028Y-196164757D01*
X190100885Y-196593328D02*
X190600885Y-195093328D01*
X190600885Y-195093328D02*
X191100885Y-196593328D01*
X191600884Y-196450471D02*
X191672313Y-196521900D01*
X191672313Y-196521900D02*
X191600884Y-196593328D01*
X191600884Y-196593328D02*
X191529456Y-196521900D01*
X191529456Y-196521900D02*
X191600884Y-196450471D01*
X191600884Y-196450471D02*
X191600884Y-196593328D01*
X193672313Y-195736185D02*
X193529456Y-195664757D01*
X193529456Y-195664757D02*
X193458027Y-195593328D01*
X193458027Y-195593328D02*
X193386599Y-195450471D01*
X193386599Y-195450471D02*
X193386599Y-195379042D01*
X193386599Y-195379042D02*
X193458027Y-195236185D01*
X193458027Y-195236185D02*
X193529456Y-195164757D01*
X193529456Y-195164757D02*
X193672313Y-195093328D01*
X193672313Y-195093328D02*
X193958027Y-195093328D01*
X193958027Y-195093328D02*
X194100885Y-195164757D01*
X194100885Y-195164757D02*
X194172313Y-195236185D01*
X194172313Y-195236185D02*
X194243742Y-195379042D01*
X194243742Y-195379042D02*
X194243742Y-195450471D01*
X194243742Y-195450471D02*
X194172313Y-195593328D01*
X194172313Y-195593328D02*
X194100885Y-195664757D01*
X194100885Y-195664757D02*
X193958027Y-195736185D01*
X193958027Y-195736185D02*
X193672313Y-195736185D01*
X193672313Y-195736185D02*
X193529456Y-195807614D01*
X193529456Y-195807614D02*
X193458027Y-195879042D01*
X193458027Y-195879042D02*
X193386599Y-196021900D01*
X193386599Y-196021900D02*
X193386599Y-196307614D01*
X193386599Y-196307614D02*
X193458027Y-196450471D01*
X193458027Y-196450471D02*
X193529456Y-196521900D01*
X193529456Y-196521900D02*
X193672313Y-196593328D01*
X193672313Y-196593328D02*
X193958027Y-196593328D01*
X193958027Y-196593328D02*
X194100885Y-196521900D01*
X194100885Y-196521900D02*
X194172313Y-196450471D01*
X194172313Y-196450471D02*
X194243742Y-196307614D01*
X194243742Y-196307614D02*
X194243742Y-196021900D01*
X194243742Y-196021900D02*
X194172313Y-195879042D01*
X194172313Y-195879042D02*
X194100885Y-195807614D01*
X194100885Y-195807614D02*
X193958027Y-195736185D01*
X194886598Y-196450471D02*
X194958027Y-196521900D01*
X194958027Y-196521900D02*
X194886598Y-196593328D01*
X194886598Y-196593328D02*
X194815170Y-196521900D01*
X194815170Y-196521900D02*
X194886598Y-196450471D01*
X194886598Y-196450471D02*
X194886598Y-196593328D01*
X195886599Y-195093328D02*
X196029456Y-195093328D01*
X196029456Y-195093328D02*
X196172313Y-195164757D01*
X196172313Y-195164757D02*
X196243742Y-195236185D01*
X196243742Y-195236185D02*
X196315170Y-195379042D01*
X196315170Y-195379042D02*
X196386599Y-195664757D01*
X196386599Y-195664757D02*
X196386599Y-196021900D01*
X196386599Y-196021900D02*
X196315170Y-196307614D01*
X196315170Y-196307614D02*
X196243742Y-196450471D01*
X196243742Y-196450471D02*
X196172313Y-196521900D01*
X196172313Y-196521900D02*
X196029456Y-196593328D01*
X196029456Y-196593328D02*
X195886599Y-196593328D01*
X195886599Y-196593328D02*
X195743742Y-196521900D01*
X195743742Y-196521900D02*
X195672313Y-196450471D01*
X195672313Y-196450471D02*
X195600884Y-196307614D01*
X195600884Y-196307614D02*
X195529456Y-196021900D01*
X195529456Y-196021900D02*
X195529456Y-195664757D01*
X195529456Y-195664757D02*
X195600884Y-195379042D01*
X195600884Y-195379042D02*
X195672313Y-195236185D01*
X195672313Y-195236185D02*
X195743742Y-195164757D01*
X195743742Y-195164757D02*
X195886599Y-195093328D01*
X197029455Y-196450471D02*
X197100884Y-196521900D01*
X197100884Y-196521900D02*
X197029455Y-196593328D01*
X197029455Y-196593328D02*
X196958027Y-196521900D01*
X196958027Y-196521900D02*
X197029455Y-196450471D01*
X197029455Y-196450471D02*
X197029455Y-196593328D01*
X197672313Y-195236185D02*
X197743741Y-195164757D01*
X197743741Y-195164757D02*
X197886599Y-195093328D01*
X197886599Y-195093328D02*
X198243741Y-195093328D01*
X198243741Y-195093328D02*
X198386599Y-195164757D01*
X198386599Y-195164757D02*
X198458027Y-195236185D01*
X198458027Y-195236185D02*
X198529456Y-195379042D01*
X198529456Y-195379042D02*
X198529456Y-195521900D01*
X198529456Y-195521900D02*
X198458027Y-195736185D01*
X198458027Y-195736185D02*
X197600884Y-196593328D01*
X197600884Y-196593328D02*
X198529456Y-196593328D01*
D10*
D11*
X177002200Y-191507200D02*
X285002200Y-191507200D01*
D10*
D12*
X264413853Y-193785528D02*
X263913853Y-193071242D01*
X263556710Y-193785528D02*
X263556710Y-192285528D01*
X263556710Y-192285528D02*
X264128139Y-192285528D01*
X264128139Y-192285528D02*
X264270996Y-192356957D01*
X264270996Y-192356957D02*
X264342425Y-192428385D01*
X264342425Y-192428385D02*
X264413853Y-192571242D01*
X264413853Y-192571242D02*
X264413853Y-192785528D01*
X264413853Y-192785528D02*
X264342425Y-192928385D01*
X264342425Y-192928385D02*
X264270996Y-192999814D01*
X264270996Y-192999814D02*
X264128139Y-193071242D01*
X264128139Y-193071242D02*
X263556710Y-193071242D01*
X265628139Y-193714100D02*
X265485282Y-193785528D01*
X265485282Y-193785528D02*
X265199568Y-193785528D01*
X265199568Y-193785528D02*
X265056710Y-193714100D01*
X265056710Y-193714100D02*
X264985282Y-193571242D01*
X264985282Y-193571242D02*
X264985282Y-192999814D01*
X264985282Y-192999814D02*
X265056710Y-192856957D01*
X265056710Y-192856957D02*
X265199568Y-192785528D01*
X265199568Y-192785528D02*
X265485282Y-192785528D01*
X265485282Y-192785528D02*
X265628139Y-192856957D01*
X265628139Y-192856957D02*
X265699568Y-192999814D01*
X265699568Y-192999814D02*
X265699568Y-193142671D01*
X265699568Y-193142671D02*
X264985282Y-193285528D01*
X266199567Y-192785528D02*
X266556710Y-193785528D01*
X266556710Y-193785528D02*
X266913853Y-192785528D01*
X267485281Y-193642671D02*
X267556710Y-193714100D01*
X267556710Y-193714100D02*
X267485281Y-193785528D01*
X267485281Y-193785528D02*
X267413853Y-193714100D01*
X267413853Y-193714100D02*
X267485281Y-193642671D01*
X267485281Y-193642671D02*
X267485281Y-193785528D01*
X267485281Y-192856957D02*
X267556710Y-192928385D01*
X267556710Y-192928385D02*
X267485281Y-192999814D01*
X267485281Y-192999814D02*
X267413853Y-192928385D01*
X267413853Y-192928385D02*
X267485281Y-192856957D01*
X267485281Y-192856957D02*
X267485281Y-192999814D01*
D10*
D11*
X178386598Y-193721900D02*
X178600884Y-193793328D01*
X178600884Y-193793328D02*
X178958026Y-193793328D01*
X178958026Y-193793328D02*
X179100884Y-193721900D01*
X179100884Y-193721900D02*
X179172312Y-193650471D01*
X179172312Y-193650471D02*
X179243741Y-193507614D01*
X179243741Y-193507614D02*
X179243741Y-193364757D01*
X179243741Y-193364757D02*
X179172312Y-193221900D01*
X179172312Y-193221900D02*
X179100884Y-193150471D01*
X179100884Y-193150471D02*
X178958026Y-193079042D01*
X178958026Y-193079042D02*
X178672312Y-193007614D01*
X178672312Y-193007614D02*
X178529455Y-192936185D01*
X178529455Y-192936185D02*
X178458026Y-192864757D01*
X178458026Y-192864757D02*
X178386598Y-192721900D01*
X178386598Y-192721900D02*
X178386598Y-192579042D01*
X178386598Y-192579042D02*
X178458026Y-192436185D01*
X178458026Y-192436185D02*
X178529455Y-192364757D01*
X178529455Y-192364757D02*
X178672312Y-192293328D01*
X178672312Y-192293328D02*
X179029455Y-192293328D01*
X179029455Y-192293328D02*
X179243741Y-192364757D01*
X179886597Y-193793328D02*
X179886597Y-192793328D01*
X179886597Y-192293328D02*
X179815169Y-192364757D01*
X179815169Y-192364757D02*
X179886597Y-192436185D01*
X179886597Y-192436185D02*
X179958026Y-192364757D01*
X179958026Y-192364757D02*
X179886597Y-192293328D01*
X179886597Y-192293328D02*
X179886597Y-192436185D01*
X180458026Y-192793328D02*
X181243741Y-192793328D01*
X181243741Y-192793328D02*
X180458026Y-193793328D01*
X180458026Y-193793328D02*
X181243741Y-193793328D01*
X182386598Y-193721900D02*
X182243741Y-193793328D01*
X182243741Y-193793328D02*
X181958027Y-193793328D01*
X181958027Y-193793328D02*
X181815169Y-193721900D01*
X181815169Y-193721900D02*
X181743741Y-193579042D01*
X181743741Y-193579042D02*
X181743741Y-193007614D01*
X181743741Y-193007614D02*
X181815169Y-192864757D01*
X181815169Y-192864757D02*
X181958027Y-192793328D01*
X181958027Y-192793328D02*
X182243741Y-192793328D01*
X182243741Y-192793328D02*
X182386598Y-192864757D01*
X182386598Y-192864757D02*
X182458027Y-193007614D01*
X182458027Y-193007614D02*
X182458027Y-193150471D01*
X182458027Y-193150471D02*
X181743741Y-193293328D01*
X183100883Y-193650471D02*
X183172312Y-193721900D01*
X183172312Y-193721900D02*
X183100883Y-193793328D01*
X183100883Y-193793328D02*
X183029455Y-193721900D01*
X183029455Y-193721900D02*
X183100883Y-193650471D01*
X183100883Y-193650471D02*
X183100883Y-193793328D01*
X183100883Y-192864757D02*
X183172312Y-192936185D01*
X183172312Y-192936185D02*
X183100883Y-193007614D01*
X183100883Y-193007614D02*
X183029455Y-192936185D01*
X183029455Y-192936185D02*
X183100883Y-192864757D01*
X183100883Y-192864757D02*
X183100883Y-193007614D01*
X184886598Y-193364757D02*
X185600884Y-193364757D01*
X184743741Y-193793328D02*
X185243741Y-192293328D01*
X185243741Y-192293328D02*
X185743741Y-193793328D01*
X186886598Y-192793328D02*
X186886598Y-193793328D01*
X186529455Y-192221900D02*
X186172312Y-193293328D01*
X186172312Y-193293328D02*
X187100883Y-193293328D01*
D10*
D11*
X263458026Y-196593328D02*
X263458026Y-195093328D01*
X264815170Y-196593328D02*
X264815170Y-195093328D01*
X264815170Y-196521900D02*
X264672312Y-196593328D01*
X264672312Y-196593328D02*
X264386598Y-196593328D01*
X264386598Y-196593328D02*
X264243741Y-196521900D01*
X264243741Y-196521900D02*
X264172312Y-196450471D01*
X264172312Y-196450471D02*
X264100884Y-196307614D01*
X264100884Y-196307614D02*
X264100884Y-195879042D01*
X264100884Y-195879042D02*
X264172312Y-195736185D01*
X264172312Y-195736185D02*
X264243741Y-195664757D01*
X264243741Y-195664757D02*
X264386598Y-195593328D01*
X264386598Y-195593328D02*
X264672312Y-195593328D01*
X264672312Y-195593328D02*
X264815170Y-195664757D01*
X265529455Y-196450471D02*
X265600884Y-196521900D01*
X265600884Y-196521900D02*
X265529455Y-196593328D01*
X265529455Y-196593328D02*
X265458027Y-196521900D01*
X265458027Y-196521900D02*
X265529455Y-196450471D01*
X265529455Y-196450471D02*
X265529455Y-196593328D01*
X265529455Y-195664757D02*
X265600884Y-195736185D01*
X265600884Y-195736185D02*
X265529455Y-195807614D01*
X265529455Y-195807614D02*
X265458027Y-195736185D01*
X265458027Y-195736185D02*
X265529455Y-195664757D01*
X265529455Y-195664757D02*
X265529455Y-195807614D01*
X268172313Y-196593328D02*
X267315170Y-196593328D01*
X267743741Y-196593328D02*
X267743741Y-195093328D01*
X267743741Y-195093328D02*
X267600884Y-195307614D01*
X267600884Y-195307614D02*
X267458027Y-195450471D01*
X267458027Y-195450471D02*
X267315170Y-195521900D01*
X269886598Y-195021900D02*
X268600884Y-196950471D01*
X271172313Y-196593328D02*
X270315170Y-196593328D01*
X270743741Y-196593328D02*
X270743741Y-195093328D01*
X270743741Y-195093328D02*
X270600884Y-195307614D01*
X270600884Y-195307614D02*
X270458027Y-195450471D01*
X270458027Y-195450471D02*
X270315170Y-195521900D01*
D10*
D11*
X177002200Y-187507200D02*
X285002200Y-187507200D01*
D10*
D13*
X178693928Y-188211638D02*
X179836785Y-188211638D01*
X179015357Y-190211638D02*
X179265357Y-188211638D01*
X180253452Y-190211638D02*
X180420119Y-188878304D01*
X180503452Y-188211638D02*
X180396309Y-188306876D01*
X180396309Y-188306876D02*
X180479643Y-188402114D01*
X180479643Y-188402114D02*
X180586786Y-188306876D01*
X180586786Y-188306876D02*
X180503452Y-188211638D01*
X180503452Y-188211638D02*
X180479643Y-188402114D01*
X181086786Y-188878304D02*
X181848690Y-188878304D01*
X181455833Y-188211638D02*
X181241548Y-189925923D01*
X181241548Y-189925923D02*
X181312976Y-190116400D01*
X181312976Y-190116400D02*
X181491548Y-190211638D01*
X181491548Y-190211638D02*
X181682024Y-190211638D01*
X182634405Y-190211638D02*
X182455833Y-190116400D01*
X182455833Y-190116400D02*
X182384405Y-189925923D01*
X182384405Y-189925923D02*
X182598690Y-188211638D01*
X184170119Y-190116400D02*
X183967738Y-190211638D01*
X183967738Y-190211638D02*
X183586785Y-190211638D01*
X183586785Y-190211638D02*
X183408214Y-190116400D01*
X183408214Y-190116400D02*
X183336785Y-189925923D01*
X183336785Y-189925923D02*
X183432024Y-189164019D01*
X183432024Y-189164019D02*
X183551071Y-188973542D01*
X183551071Y-188973542D02*
X183753452Y-188878304D01*
X183753452Y-188878304D02*
X184134404Y-188878304D01*
X184134404Y-188878304D02*
X184312976Y-188973542D01*
X184312976Y-188973542D02*
X184384404Y-189164019D01*
X184384404Y-189164019D02*
X184360595Y-189354495D01*
X184360595Y-189354495D02*
X183384404Y-189544971D01*
X185134405Y-190021161D02*
X185217738Y-190116400D01*
X185217738Y-190116400D02*
X185110595Y-190211638D01*
X185110595Y-190211638D02*
X185027262Y-190116400D01*
X185027262Y-190116400D02*
X185134405Y-190021161D01*
X185134405Y-190021161D02*
X185110595Y-190211638D01*
X185265357Y-188973542D02*
X185348690Y-189068780D01*
X185348690Y-189068780D02*
X185241548Y-189164019D01*
X185241548Y-189164019D02*
X185158214Y-189068780D01*
X185158214Y-189068780D02*
X185265357Y-188973542D01*
X185265357Y-188973542D02*
X185241548Y-189164019D01*
D10*
D11*
X178958026Y-185607614D02*
X178458026Y-185607614D01*
X178458026Y-186393328D02*
X178458026Y-184893328D01*
X178458026Y-184893328D02*
X179172312Y-184893328D01*
X179743740Y-186393328D02*
X179743740Y-185393328D01*
X179743740Y-184893328D02*
X179672312Y-184964757D01*
X179672312Y-184964757D02*
X179743740Y-185036185D01*
X179743740Y-185036185D02*
X179815169Y-184964757D01*
X179815169Y-184964757D02*
X179743740Y-184893328D01*
X179743740Y-184893328D02*
X179743740Y-185036185D01*
X180672312Y-186393328D02*
X180529455Y-186321900D01*
X180529455Y-186321900D02*
X180458026Y-186179042D01*
X180458026Y-186179042D02*
X180458026Y-184893328D01*
X181815169Y-186321900D02*
X181672312Y-186393328D01*
X181672312Y-186393328D02*
X181386598Y-186393328D01*
X181386598Y-186393328D02*
X181243740Y-186321900D01*
X181243740Y-186321900D02*
X181172312Y-186179042D01*
X181172312Y-186179042D02*
X181172312Y-185607614D01*
X181172312Y-185607614D02*
X181243740Y-185464757D01*
X181243740Y-185464757D02*
X181386598Y-185393328D01*
X181386598Y-185393328D02*
X181672312Y-185393328D01*
X181672312Y-185393328D02*
X181815169Y-185464757D01*
X181815169Y-185464757D02*
X181886598Y-185607614D01*
X181886598Y-185607614D02*
X181886598Y-185750471D01*
X181886598Y-185750471D02*
X181172312Y-185893328D01*
X182529454Y-186250471D02*
X182600883Y-186321900D01*
X182600883Y-186321900D02*
X182529454Y-186393328D01*
X182529454Y-186393328D02*
X182458026Y-186321900D01*
X182458026Y-186321900D02*
X182529454Y-186250471D01*
X182529454Y-186250471D02*
X182529454Y-186393328D01*
X182529454Y-185464757D02*
X182600883Y-185536185D01*
X182600883Y-185536185D02*
X182529454Y-185607614D01*
X182529454Y-185607614D02*
X182458026Y-185536185D01*
X182458026Y-185536185D02*
X182529454Y-185464757D01*
X182529454Y-185464757D02*
X182529454Y-185607614D01*
X185029455Y-185393328D02*
X185029455Y-186393328D01*
X184386597Y-185393328D02*
X184386597Y-186179042D01*
X184386597Y-186179042D02*
X184458026Y-186321900D01*
X184458026Y-186321900D02*
X184600883Y-186393328D01*
X184600883Y-186393328D02*
X184815169Y-186393328D01*
X184815169Y-186393328D02*
X184958026Y-186321900D01*
X184958026Y-186321900D02*
X185029455Y-186250471D01*
X185743740Y-185393328D02*
X185743740Y-186393328D01*
X185743740Y-185536185D02*
X185815169Y-185464757D01*
X185815169Y-185464757D02*
X185958026Y-185393328D01*
X185958026Y-185393328D02*
X186172312Y-185393328D01*
X186172312Y-185393328D02*
X186315169Y-185464757D01*
X186315169Y-185464757D02*
X186386598Y-185607614D01*
X186386598Y-185607614D02*
X186386598Y-186393328D01*
X187100883Y-186393328D02*
X187100883Y-185393328D01*
X187100883Y-184893328D02*
X187029455Y-184964757D01*
X187029455Y-184964757D02*
X187100883Y-185036185D01*
X187100883Y-185036185D02*
X187172312Y-184964757D01*
X187172312Y-184964757D02*
X187100883Y-184893328D01*
X187100883Y-184893328D02*
X187100883Y-185036185D01*
X187672312Y-185393328D02*
X188029455Y-186393328D01*
X188029455Y-186393328D02*
X188386598Y-185393328D01*
X189529455Y-186321900D02*
X189386598Y-186393328D01*
X189386598Y-186393328D02*
X189100884Y-186393328D01*
X189100884Y-186393328D02*
X188958026Y-186321900D01*
X188958026Y-186321900D02*
X188886598Y-186179042D01*
X188886598Y-186179042D02*
X188886598Y-185607614D01*
X188886598Y-185607614D02*
X188958026Y-185464757D01*
X188958026Y-185464757D02*
X189100884Y-185393328D01*
X189100884Y-185393328D02*
X189386598Y-185393328D01*
X189386598Y-185393328D02*
X189529455Y-185464757D01*
X189529455Y-185464757D02*
X189600884Y-185607614D01*
X189600884Y-185607614D02*
X189600884Y-185750471D01*
X189600884Y-185750471D02*
X188886598Y-185893328D01*
X190243740Y-186393328D02*
X190243740Y-185393328D01*
X190243740Y-185679042D02*
X190315169Y-185536185D01*
X190315169Y-185536185D02*
X190386598Y-185464757D01*
X190386598Y-185464757D02*
X190529455Y-185393328D01*
X190529455Y-185393328D02*
X190672312Y-185393328D01*
X191100883Y-186321900D02*
X191243740Y-186393328D01*
X191243740Y-186393328D02*
X191529454Y-186393328D01*
X191529454Y-186393328D02*
X191672311Y-186321900D01*
X191672311Y-186321900D02*
X191743740Y-186179042D01*
X191743740Y-186179042D02*
X191743740Y-186107614D01*
X191743740Y-186107614D02*
X191672311Y-185964757D01*
X191672311Y-185964757D02*
X191529454Y-185893328D01*
X191529454Y-185893328D02*
X191315169Y-185893328D01*
X191315169Y-185893328D02*
X191172311Y-185821900D01*
X191172311Y-185821900D02*
X191100883Y-185679042D01*
X191100883Y-185679042D02*
X191100883Y-185607614D01*
X191100883Y-185607614D02*
X191172311Y-185464757D01*
X191172311Y-185464757D02*
X191315169Y-185393328D01*
X191315169Y-185393328D02*
X191529454Y-185393328D01*
X191529454Y-185393328D02*
X191672311Y-185464757D01*
X193029455Y-186393328D02*
X193029455Y-185607614D01*
X193029455Y-185607614D02*
X192958026Y-185464757D01*
X192958026Y-185464757D02*
X192815169Y-185393328D01*
X192815169Y-185393328D02*
X192529455Y-185393328D01*
X192529455Y-185393328D02*
X192386597Y-185464757D01*
X193029455Y-186321900D02*
X192886597Y-186393328D01*
X192886597Y-186393328D02*
X192529455Y-186393328D01*
X192529455Y-186393328D02*
X192386597Y-186321900D01*
X192386597Y-186321900D02*
X192315169Y-186179042D01*
X192315169Y-186179042D02*
X192315169Y-186036185D01*
X192315169Y-186036185D02*
X192386597Y-185893328D01*
X192386597Y-185893328D02*
X192529455Y-185821900D01*
X192529455Y-185821900D02*
X192886597Y-185821900D01*
X192886597Y-185821900D02*
X193029455Y-185750471D01*
X193958026Y-186393328D02*
X193815169Y-186321900D01*
X193815169Y-186321900D02*
X193743740Y-186179042D01*
X193743740Y-186179042D02*
X193743740Y-184893328D01*
X195386597Y-186250471D02*
X195315169Y-186321900D01*
X195315169Y-186321900D02*
X195100883Y-186393328D01*
X195100883Y-186393328D02*
X194958026Y-186393328D01*
X194958026Y-186393328D02*
X194743740Y-186321900D01*
X194743740Y-186321900D02*
X194600883Y-186179042D01*
X194600883Y-186179042D02*
X194529454Y-186036185D01*
X194529454Y-186036185D02*
X194458026Y-185750471D01*
X194458026Y-185750471D02*
X194458026Y-185536185D01*
X194458026Y-185536185D02*
X194529454Y-185250471D01*
X194529454Y-185250471D02*
X194600883Y-185107614D01*
X194600883Y-185107614D02*
X194743740Y-184964757D01*
X194743740Y-184964757D02*
X194958026Y-184893328D01*
X194958026Y-184893328D02*
X195100883Y-184893328D01*
X195100883Y-184893328D02*
X195315169Y-184964757D01*
X195315169Y-184964757D02*
X195386597Y-185036185D01*
X196243740Y-186393328D02*
X196100883Y-186321900D01*
X196100883Y-186321900D02*
X196029454Y-186250471D01*
X196029454Y-186250471D02*
X195958026Y-186107614D01*
X195958026Y-186107614D02*
X195958026Y-185679042D01*
X195958026Y-185679042D02*
X196029454Y-185536185D01*
X196029454Y-185536185D02*
X196100883Y-185464757D01*
X196100883Y-185464757D02*
X196243740Y-185393328D01*
X196243740Y-185393328D02*
X196458026Y-185393328D01*
X196458026Y-185393328D02*
X196600883Y-185464757D01*
X196600883Y-185464757D02*
X196672312Y-185536185D01*
X196672312Y-185536185D02*
X196743740Y-185679042D01*
X196743740Y-185679042D02*
X196743740Y-186107614D01*
X196743740Y-186107614D02*
X196672312Y-186250471D01*
X196672312Y-186250471D02*
X196600883Y-186321900D01*
X196600883Y-186321900D02*
X196458026Y-186393328D01*
X196458026Y-186393328D02*
X196243740Y-186393328D01*
X197386597Y-185393328D02*
X197386597Y-186393328D01*
X197386597Y-185536185D02*
X197458026Y-185464757D01*
X197458026Y-185464757D02*
X197600883Y-185393328D01*
X197600883Y-185393328D02*
X197815169Y-185393328D01*
X197815169Y-185393328D02*
X197958026Y-185464757D01*
X197958026Y-185464757D02*
X198029455Y-185607614D01*
X198029455Y-185607614D02*
X198029455Y-186393328D01*
X198743740Y-185393328D02*
X198743740Y-186393328D01*
X198743740Y-185536185D02*
X198815169Y-185464757D01*
X198815169Y-185464757D02*
X198958026Y-185393328D01*
X198958026Y-185393328D02*
X199172312Y-185393328D01*
X199172312Y-185393328D02*
X199315169Y-185464757D01*
X199315169Y-185464757D02*
X199386598Y-185607614D01*
X199386598Y-185607614D02*
X199386598Y-186393328D01*
X200672312Y-186321900D02*
X200529455Y-186393328D01*
X200529455Y-186393328D02*
X200243741Y-186393328D01*
X200243741Y-186393328D02*
X200100883Y-186321900D01*
X200100883Y-186321900D02*
X200029455Y-186179042D01*
X200029455Y-186179042D02*
X200029455Y-185607614D01*
X200029455Y-185607614D02*
X200100883Y-185464757D01*
X200100883Y-185464757D02*
X200243741Y-185393328D01*
X200243741Y-185393328D02*
X200529455Y-185393328D01*
X200529455Y-185393328D02*
X200672312Y-185464757D01*
X200672312Y-185464757D02*
X200743741Y-185607614D01*
X200743741Y-185607614D02*
X200743741Y-185750471D01*
X200743741Y-185750471D02*
X200029455Y-185893328D01*
X202029455Y-186321900D02*
X201886597Y-186393328D01*
X201886597Y-186393328D02*
X201600883Y-186393328D01*
X201600883Y-186393328D02*
X201458026Y-186321900D01*
X201458026Y-186321900D02*
X201386597Y-186250471D01*
X201386597Y-186250471D02*
X201315169Y-186107614D01*
X201315169Y-186107614D02*
X201315169Y-185679042D01*
X201315169Y-185679042D02*
X201386597Y-185536185D01*
X201386597Y-185536185D02*
X201458026Y-185464757D01*
X201458026Y-185464757D02*
X201600883Y-185393328D01*
X201600883Y-185393328D02*
X201886597Y-185393328D01*
X201886597Y-185393328D02*
X202029455Y-185464757D01*
X202458026Y-185393328D02*
X203029454Y-185393328D01*
X202672311Y-184893328D02*
X202672311Y-186179042D01*
X202672311Y-186179042D02*
X202743740Y-186321900D01*
X202743740Y-186321900D02*
X202886597Y-186393328D01*
X202886597Y-186393328D02*
X203029454Y-186393328D01*
X203743740Y-186393328D02*
X203600883Y-186321900D01*
X203600883Y-186321900D02*
X203529454Y-186250471D01*
X203529454Y-186250471D02*
X203458026Y-186107614D01*
X203458026Y-186107614D02*
X203458026Y-185679042D01*
X203458026Y-185679042D02*
X203529454Y-185536185D01*
X203529454Y-185536185D02*
X203600883Y-185464757D01*
X203600883Y-185464757D02*
X203743740Y-185393328D01*
X203743740Y-185393328D02*
X203958026Y-185393328D01*
X203958026Y-185393328D02*
X204100883Y-185464757D01*
X204100883Y-185464757D02*
X204172312Y-185536185D01*
X204172312Y-185536185D02*
X204243740Y-185679042D01*
X204243740Y-185679042D02*
X204243740Y-186107614D01*
X204243740Y-186107614D02*
X204172312Y-186250471D01*
X204172312Y-186250471D02*
X204100883Y-186321900D01*
X204100883Y-186321900D02*
X203958026Y-186393328D01*
X203958026Y-186393328D02*
X203743740Y-186393328D01*
X204886597Y-186393328D02*
X204886597Y-185393328D01*
X204886597Y-185679042D02*
X204958026Y-185536185D01*
X204958026Y-185536185D02*
X205029455Y-185464757D01*
X205029455Y-185464757D02*
X205172312Y-185393328D01*
X205172312Y-185393328D02*
X205315169Y-185393328D01*
X206315168Y-185607614D02*
X206529454Y-185679042D01*
X206529454Y-185679042D02*
X206600883Y-185750471D01*
X206600883Y-185750471D02*
X206672311Y-185893328D01*
X206672311Y-185893328D02*
X206672311Y-186107614D01*
X206672311Y-186107614D02*
X206600883Y-186250471D01*
X206600883Y-186250471D02*
X206529454Y-186321900D01*
X206529454Y-186321900D02*
X206386597Y-186393328D01*
X206386597Y-186393328D02*
X205815168Y-186393328D01*
X205815168Y-186393328D02*
X205815168Y-184893328D01*
X205815168Y-184893328D02*
X206315168Y-184893328D01*
X206315168Y-184893328D02*
X206458026Y-184964757D01*
X206458026Y-184964757D02*
X206529454Y-185036185D01*
X206529454Y-185036185D02*
X206600883Y-185179042D01*
X206600883Y-185179042D02*
X206600883Y-185321900D01*
X206600883Y-185321900D02*
X206529454Y-185464757D01*
X206529454Y-185464757D02*
X206458026Y-185536185D01*
X206458026Y-185536185D02*
X206315168Y-185607614D01*
X206315168Y-185607614D02*
X205815168Y-185607614D01*
X207529454Y-186393328D02*
X207386597Y-186321900D01*
X207386597Y-186321900D02*
X207315168Y-186250471D01*
X207315168Y-186250471D02*
X207243740Y-186107614D01*
X207243740Y-186107614D02*
X207243740Y-185679042D01*
X207243740Y-185679042D02*
X207315168Y-185536185D01*
X207315168Y-185536185D02*
X207386597Y-185464757D01*
X207386597Y-185464757D02*
X207529454Y-185393328D01*
X207529454Y-185393328D02*
X207743740Y-185393328D01*
X207743740Y-185393328D02*
X207886597Y-185464757D01*
X207886597Y-185464757D02*
X207958026Y-185536185D01*
X207958026Y-185536185D02*
X208029454Y-185679042D01*
X208029454Y-185679042D02*
X208029454Y-186107614D01*
X208029454Y-186107614D02*
X207958026Y-186250471D01*
X207958026Y-186250471D02*
X207886597Y-186321900D01*
X207886597Y-186321900D02*
X207743740Y-186393328D01*
X207743740Y-186393328D02*
X207529454Y-186393328D01*
X209315169Y-186393328D02*
X209315169Y-185607614D01*
X209315169Y-185607614D02*
X209243740Y-185464757D01*
X209243740Y-185464757D02*
X209100883Y-185393328D01*
X209100883Y-185393328D02*
X208815169Y-185393328D01*
X208815169Y-185393328D02*
X208672311Y-185464757D01*
X209315169Y-186321900D02*
X209172311Y-186393328D01*
X209172311Y-186393328D02*
X208815169Y-186393328D01*
X208815169Y-186393328D02*
X208672311Y-186321900D01*
X208672311Y-186321900D02*
X208600883Y-186179042D01*
X208600883Y-186179042D02*
X208600883Y-186036185D01*
X208600883Y-186036185D02*
X208672311Y-185893328D01*
X208672311Y-185893328D02*
X208815169Y-185821900D01*
X208815169Y-185821900D02*
X209172311Y-185821900D01*
X209172311Y-185821900D02*
X209315169Y-185750471D01*
X210029454Y-186393328D02*
X210029454Y-185393328D01*
X210029454Y-185679042D02*
X210100883Y-185536185D01*
X210100883Y-185536185D02*
X210172312Y-185464757D01*
X210172312Y-185464757D02*
X210315169Y-185393328D01*
X210315169Y-185393328D02*
X210458026Y-185393328D01*
X211600883Y-186393328D02*
X211600883Y-184893328D01*
X211600883Y-186321900D02*
X211458025Y-186393328D01*
X211458025Y-186393328D02*
X211172311Y-186393328D01*
X211172311Y-186393328D02*
X211029454Y-186321900D01*
X211029454Y-186321900D02*
X210958025Y-186250471D01*
X210958025Y-186250471D02*
X210886597Y-186107614D01*
X210886597Y-186107614D02*
X210886597Y-185679042D01*
X210886597Y-185679042D02*
X210958025Y-185536185D01*
X210958025Y-185536185D02*
X211029454Y-185464757D01*
X211029454Y-185464757D02*
X211172311Y-185393328D01*
X211172311Y-185393328D02*
X211458025Y-185393328D01*
X211458025Y-185393328D02*
X211600883Y-185464757D01*
X212315168Y-186250471D02*
X212386597Y-186321900D01*
X212386597Y-186321900D02*
X212315168Y-186393328D01*
X212315168Y-186393328D02*
X212243740Y-186321900D01*
X212243740Y-186321900D02*
X212315168Y-186250471D01*
X212315168Y-186250471D02*
X212315168Y-186393328D01*
X213029454Y-186393328D02*
X213029454Y-184893328D01*
X213172312Y-185821900D02*
X213600883Y-186393328D01*
X213600883Y-185393328D02*
X213029454Y-185964757D01*
X214243740Y-186393328D02*
X214243740Y-185393328D01*
X214243740Y-184893328D02*
X214172312Y-184964757D01*
X214172312Y-184964757D02*
X214243740Y-185036185D01*
X214243740Y-185036185D02*
X214315169Y-184964757D01*
X214315169Y-184964757D02*
X214243740Y-184893328D01*
X214243740Y-184893328D02*
X214243740Y-185036185D01*
X215600884Y-186321900D02*
X215458026Y-186393328D01*
X215458026Y-186393328D02*
X215172312Y-186393328D01*
X215172312Y-186393328D02*
X215029455Y-186321900D01*
X215029455Y-186321900D02*
X214958026Y-186250471D01*
X214958026Y-186250471D02*
X214886598Y-186107614D01*
X214886598Y-186107614D02*
X214886598Y-185679042D01*
X214886598Y-185679042D02*
X214958026Y-185536185D01*
X214958026Y-185536185D02*
X215029455Y-185464757D01*
X215029455Y-185464757D02*
X215172312Y-185393328D01*
X215172312Y-185393328D02*
X215458026Y-185393328D01*
X215458026Y-185393328D02*
X215600884Y-185464757D01*
X216886598Y-186393328D02*
X216886598Y-185607614D01*
X216886598Y-185607614D02*
X216815169Y-185464757D01*
X216815169Y-185464757D02*
X216672312Y-185393328D01*
X216672312Y-185393328D02*
X216386598Y-185393328D01*
X216386598Y-185393328D02*
X216243740Y-185464757D01*
X216886598Y-186321900D02*
X216743740Y-186393328D01*
X216743740Y-186393328D02*
X216386598Y-186393328D01*
X216386598Y-186393328D02*
X216243740Y-186321900D01*
X216243740Y-186321900D02*
X216172312Y-186179042D01*
X216172312Y-186179042D02*
X216172312Y-186036185D01*
X216172312Y-186036185D02*
X216243740Y-185893328D01*
X216243740Y-185893328D02*
X216386598Y-185821900D01*
X216386598Y-185821900D02*
X216743740Y-185821900D01*
X216743740Y-185821900D02*
X216886598Y-185750471D01*
X218243741Y-186393328D02*
X218243741Y-184893328D01*
X218243741Y-186321900D02*
X218100883Y-186393328D01*
X218100883Y-186393328D02*
X217815169Y-186393328D01*
X217815169Y-186393328D02*
X217672312Y-186321900D01*
X217672312Y-186321900D02*
X217600883Y-186250471D01*
X217600883Y-186250471D02*
X217529455Y-186107614D01*
X217529455Y-186107614D02*
X217529455Y-185679042D01*
X217529455Y-185679042D02*
X217600883Y-185536185D01*
X217600883Y-185536185D02*
X217672312Y-185464757D01*
X217672312Y-185464757D02*
X217815169Y-185393328D01*
X217815169Y-185393328D02*
X218100883Y-185393328D01*
X218100883Y-185393328D02*
X218243741Y-185464757D01*
X218600884Y-186536185D02*
X219743741Y-186536185D01*
X220100883Y-185393328D02*
X220100883Y-186893328D01*
X220100883Y-185464757D02*
X220243741Y-185393328D01*
X220243741Y-185393328D02*
X220529455Y-185393328D01*
X220529455Y-185393328D02*
X220672312Y-185464757D01*
X220672312Y-185464757D02*
X220743741Y-185536185D01*
X220743741Y-185536185D02*
X220815169Y-185679042D01*
X220815169Y-185679042D02*
X220815169Y-186107614D01*
X220815169Y-186107614D02*
X220743741Y-186250471D01*
X220743741Y-186250471D02*
X220672312Y-186321900D01*
X220672312Y-186321900D02*
X220529455Y-186393328D01*
X220529455Y-186393328D02*
X220243741Y-186393328D01*
X220243741Y-186393328D02*
X220100883Y-186321900D01*
X222100884Y-186321900D02*
X221958026Y-186393328D01*
X221958026Y-186393328D02*
X221672312Y-186393328D01*
X221672312Y-186393328D02*
X221529455Y-186321900D01*
X221529455Y-186321900D02*
X221458026Y-186250471D01*
X221458026Y-186250471D02*
X221386598Y-186107614D01*
X221386598Y-186107614D02*
X221386598Y-185679042D01*
X221386598Y-185679042D02*
X221458026Y-185536185D01*
X221458026Y-185536185D02*
X221529455Y-185464757D01*
X221529455Y-185464757D02*
X221672312Y-185393328D01*
X221672312Y-185393328D02*
X221958026Y-185393328D01*
X221958026Y-185393328D02*
X222100884Y-185464757D01*
X222743740Y-186393328D02*
X222743740Y-184893328D01*
X222743740Y-185464757D02*
X222886598Y-185393328D01*
X222886598Y-185393328D02*
X223172312Y-185393328D01*
X223172312Y-185393328D02*
X223315169Y-185464757D01*
X223315169Y-185464757D02*
X223386598Y-185536185D01*
X223386598Y-185536185D02*
X223458026Y-185679042D01*
X223458026Y-185679042D02*
X223458026Y-186107614D01*
X223458026Y-186107614D02*
X223386598Y-186250471D01*
X223386598Y-186250471D02*
X223315169Y-186321900D01*
X223315169Y-186321900D02*
X223172312Y-186393328D01*
X223172312Y-186393328D02*
X222886598Y-186393328D01*
X222886598Y-186393328D02*
X222743740Y-186321900D01*
D10*
D11*
X177002200Y-181507200D02*
X285002200Y-181507200D01*
D10*
D11*
X178386598Y-183621900D02*
X178600884Y-183693328D01*
X178600884Y-183693328D02*
X178958026Y-183693328D01*
X178958026Y-183693328D02*
X179100884Y-183621900D01*
X179100884Y-183621900D02*
X179172312Y-183550471D01*
X179172312Y-183550471D02*
X179243741Y-183407614D01*
X179243741Y-183407614D02*
X179243741Y-183264757D01*
X179243741Y-183264757D02*
X179172312Y-183121900D01*
X179172312Y-183121900D02*
X179100884Y-183050471D01*
X179100884Y-183050471D02*
X178958026Y-182979042D01*
X178958026Y-182979042D02*
X178672312Y-182907614D01*
X178672312Y-182907614D02*
X178529455Y-182836185D01*
X178529455Y-182836185D02*
X178458026Y-182764757D01*
X178458026Y-182764757D02*
X178386598Y-182621900D01*
X178386598Y-182621900D02*
X178386598Y-182479042D01*
X178386598Y-182479042D02*
X178458026Y-182336185D01*
X178458026Y-182336185D02*
X178529455Y-182264757D01*
X178529455Y-182264757D02*
X178672312Y-182193328D01*
X178672312Y-182193328D02*
X179029455Y-182193328D01*
X179029455Y-182193328D02*
X179243741Y-182264757D01*
X179886597Y-183693328D02*
X179886597Y-182193328D01*
X180529455Y-183693328D02*
X180529455Y-182907614D01*
X180529455Y-182907614D02*
X180458026Y-182764757D01*
X180458026Y-182764757D02*
X180315169Y-182693328D01*
X180315169Y-182693328D02*
X180100883Y-182693328D01*
X180100883Y-182693328D02*
X179958026Y-182764757D01*
X179958026Y-182764757D02*
X179886597Y-182836185D01*
X181815169Y-183621900D02*
X181672312Y-183693328D01*
X181672312Y-183693328D02*
X181386598Y-183693328D01*
X181386598Y-183693328D02*
X181243740Y-183621900D01*
X181243740Y-183621900D02*
X181172312Y-183479042D01*
X181172312Y-183479042D02*
X181172312Y-182907614D01*
X181172312Y-182907614D02*
X181243740Y-182764757D01*
X181243740Y-182764757D02*
X181386598Y-182693328D01*
X181386598Y-182693328D02*
X181672312Y-182693328D01*
X181672312Y-182693328D02*
X181815169Y-182764757D01*
X181815169Y-182764757D02*
X181886598Y-182907614D01*
X181886598Y-182907614D02*
X181886598Y-183050471D01*
X181886598Y-183050471D02*
X181172312Y-183193328D01*
X183100883Y-183621900D02*
X182958026Y-183693328D01*
X182958026Y-183693328D02*
X182672312Y-183693328D01*
X182672312Y-183693328D02*
X182529454Y-183621900D01*
X182529454Y-183621900D02*
X182458026Y-183479042D01*
X182458026Y-183479042D02*
X182458026Y-182907614D01*
X182458026Y-182907614D02*
X182529454Y-182764757D01*
X182529454Y-182764757D02*
X182672312Y-182693328D01*
X182672312Y-182693328D02*
X182958026Y-182693328D01*
X182958026Y-182693328D02*
X183100883Y-182764757D01*
X183100883Y-182764757D02*
X183172312Y-182907614D01*
X183172312Y-182907614D02*
X183172312Y-183050471D01*
X183172312Y-183050471D02*
X182458026Y-183193328D01*
X183600883Y-182693328D02*
X184172311Y-182693328D01*
X183815168Y-182193328D02*
X183815168Y-183479042D01*
X183815168Y-183479042D02*
X183886597Y-183621900D01*
X183886597Y-183621900D02*
X184029454Y-183693328D01*
X184029454Y-183693328D02*
X184172311Y-183693328D01*
X184672311Y-183550471D02*
X184743740Y-183621900D01*
X184743740Y-183621900D02*
X184672311Y-183693328D01*
X184672311Y-183693328D02*
X184600883Y-183621900D01*
X184600883Y-183621900D02*
X184672311Y-183550471D01*
X184672311Y-183550471D02*
X184672311Y-183693328D01*
X184672311Y-182764757D02*
X184743740Y-182836185D01*
X184743740Y-182836185D02*
X184672311Y-182907614D01*
X184672311Y-182907614D02*
X184600883Y-182836185D01*
X184600883Y-182836185D02*
X184672311Y-182764757D01*
X184672311Y-182764757D02*
X184672311Y-182907614D01*
D10*
D11*
X197002200Y-191507200D02*
X197002200Y-194507200D01*
D10*
D11*
X261002200Y-191507200D02*
X261002200Y-198007200D01*
D14*
X153587438Y-93719663D02*
X153216009Y-93719663D01*
X153401723Y-94719663D02*
X153401723Y-93719663D01*
X153061247Y-93719663D02*
X152627914Y-94719663D01*
X152627914Y-93719663D02*
X153061247Y-94719663D01*
X152442199Y-93719663D02*
X152039818Y-93719663D01*
X152039818Y-93719663D02*
X152256485Y-94100615D01*
X152256485Y-94100615D02*
X152163628Y-94100615D01*
X152163628Y-94100615D02*
X152101723Y-94148234D01*
X152101723Y-94148234D02*
X152070771Y-94195853D01*
X152070771Y-94195853D02*
X152039818Y-94291091D01*
X152039818Y-94291091D02*
X152039818Y-94529186D01*
X152039818Y-94529186D02*
X152070771Y-94624424D01*
X152070771Y-94624424D02*
X152101723Y-94672044D01*
X152101723Y-94672044D02*
X152163628Y-94719663D01*
X152163628Y-94719663D02*
X152349342Y-94719663D01*
X152349342Y-94719663D02*
X152411247Y-94672044D01*
X152411247Y-94672044D02*
X152442199Y-94624424D01*
X151358866Y-93719663D02*
X151142199Y-94719663D01*
X151142199Y-94719663D02*
X150925532Y-93719663D01*
X150337437Y-94624424D02*
X150368389Y-94672044D01*
X150368389Y-94672044D02*
X150461247Y-94719663D01*
X150461247Y-94719663D02*
X150523151Y-94719663D01*
X150523151Y-94719663D02*
X150616008Y-94672044D01*
X150616008Y-94672044D02*
X150677913Y-94576805D01*
X150677913Y-94576805D02*
X150708866Y-94481567D01*
X150708866Y-94481567D02*
X150739818Y-94291091D01*
X150739818Y-94291091D02*
X150739818Y-94148234D01*
X150739818Y-94148234D02*
X150708866Y-93957758D01*
X150708866Y-93957758D02*
X150677913Y-93862520D01*
X150677913Y-93862520D02*
X150616008Y-93767282D01*
X150616008Y-93767282D02*
X150523151Y-93719663D01*
X150523151Y-93719663D02*
X150461247Y-93719663D01*
X150461247Y-93719663D02*
X150368389Y-93767282D01*
X150368389Y-93767282D02*
X150337437Y-93814901D01*
X149687437Y-94624424D02*
X149718389Y-94672044D01*
X149718389Y-94672044D02*
X149811247Y-94719663D01*
X149811247Y-94719663D02*
X149873151Y-94719663D01*
X149873151Y-94719663D02*
X149966008Y-94672044D01*
X149966008Y-94672044D02*
X150027913Y-94576805D01*
X150027913Y-94576805D02*
X150058866Y-94481567D01*
X150058866Y-94481567D02*
X150089818Y-94291091D01*
X150089818Y-94291091D02*
X150089818Y-94148234D01*
X150089818Y-94148234D02*
X150058866Y-93957758D01*
X150058866Y-93957758D02*
X150027913Y-93862520D01*
X150027913Y-93862520D02*
X149966008Y-93767282D01*
X149966008Y-93767282D02*
X149873151Y-93719663D01*
X149873151Y-93719663D02*
X149811247Y-93719663D01*
X149811247Y-93719663D02*
X149718389Y-93767282D01*
X149718389Y-93767282D02*
X149687437Y-93814901D01*
X156556485Y-59219663D02*
X156216009Y-58552996D01*
X156556485Y-58552996D02*
X156216009Y-59219663D01*
X153279104Y-91042282D02*
X153341009Y-90994663D01*
X153341009Y-90994663D02*
X153433866Y-90994663D01*
X153433866Y-90994663D02*
X153526723Y-91042282D01*
X153526723Y-91042282D02*
X153588628Y-91137520D01*
X153588628Y-91137520D02*
X153619581Y-91232758D01*
X153619581Y-91232758D02*
X153650533Y-91423234D01*
X153650533Y-91423234D02*
X153650533Y-91566091D01*
X153650533Y-91566091D02*
X153619581Y-91756567D01*
X153619581Y-91756567D02*
X153588628Y-91851805D01*
X153588628Y-91851805D02*
X153526723Y-91947044D01*
X153526723Y-91947044D02*
X153433866Y-91994663D01*
X153433866Y-91994663D02*
X153371962Y-91994663D01*
X153371962Y-91994663D02*
X153279104Y-91947044D01*
X153279104Y-91947044D02*
X153248152Y-91899424D01*
X153248152Y-91899424D02*
X153248152Y-91566091D01*
X153248152Y-91566091D02*
X153371962Y-91566091D01*
X152969581Y-91994663D02*
X152969581Y-90994663D01*
X152969581Y-90994663D02*
X152598152Y-91994663D01*
X152598152Y-91994663D02*
X152598152Y-90994663D01*
X152288629Y-91994663D02*
X152288629Y-90994663D01*
X152288629Y-90994663D02*
X152133867Y-90994663D01*
X152133867Y-90994663D02*
X152041010Y-91042282D01*
X152041010Y-91042282D02*
X151979105Y-91137520D01*
X151979105Y-91137520D02*
X151948152Y-91232758D01*
X151948152Y-91232758D02*
X151917200Y-91423234D01*
X151917200Y-91423234D02*
X151917200Y-91566091D01*
X151917200Y-91566091D02*
X151948152Y-91756567D01*
X151948152Y-91756567D02*
X151979105Y-91851805D01*
X151979105Y-91851805D02*
X152041010Y-91947044D01*
X152041010Y-91947044D02*
X152133867Y-91994663D01*
X152133867Y-91994663D02*
X152288629Y-91994663D01*
X151236248Y-90994663D02*
X150864819Y-90994663D01*
X151050533Y-91994663D02*
X151050533Y-90994663D01*
X150710057Y-90994663D02*
X150276724Y-91994663D01*
X150276724Y-90994663D02*
X150710057Y-91994663D01*
X149750533Y-91327996D02*
X149750533Y-91994663D01*
X149905295Y-90947044D02*
X150060057Y-91661329D01*
X150060057Y-91661329D02*
X149657676Y-91661329D01*
D15*
X152273622Y-57937476D02*
X152368860Y-57842238D01*
X152368860Y-57842238D02*
X152511717Y-57842238D01*
X152511717Y-57842238D02*
X152654574Y-57937476D01*
X152654574Y-57937476D02*
X152749812Y-58127952D01*
X152749812Y-58127952D02*
X152797431Y-58318428D01*
X152797431Y-58318428D02*
X152845050Y-58699380D01*
X152845050Y-58699380D02*
X152845050Y-58985095D01*
X152845050Y-58985095D02*
X152797431Y-59366047D01*
X152797431Y-59366047D02*
X152749812Y-59556523D01*
X152749812Y-59556523D02*
X152654574Y-59747000D01*
X152654574Y-59747000D02*
X152511717Y-59842238D01*
X152511717Y-59842238D02*
X152416479Y-59842238D01*
X152416479Y-59842238D02*
X152273622Y-59747000D01*
X152273622Y-59747000D02*
X152226003Y-59651761D01*
X152226003Y-59651761D02*
X152226003Y-58985095D01*
X152226003Y-58985095D02*
X152416479Y-58985095D01*
X151797431Y-59842238D02*
X151797431Y-57842238D01*
X151797431Y-57842238D02*
X151226003Y-59842238D01*
X151226003Y-59842238D02*
X151226003Y-57842238D01*
X150749812Y-59842238D02*
X150749812Y-57842238D01*
X150749812Y-57842238D02*
X150511717Y-57842238D01*
X150511717Y-57842238D02*
X150368860Y-57937476D01*
X150368860Y-57937476D02*
X150273622Y-58127952D01*
X150273622Y-58127952D02*
X150226003Y-58318428D01*
X150226003Y-58318428D02*
X150178384Y-58699380D01*
X150178384Y-58699380D02*
X150178384Y-58985095D01*
X150178384Y-58985095D02*
X150226003Y-59366047D01*
X150226003Y-59366047D02*
X150273622Y-59556523D01*
X150273622Y-59556523D02*
X150368860Y-59747000D01*
X150368860Y-59747000D02*
X150511717Y-59842238D01*
X150511717Y-59842238D02*
X150749812Y-59842238D01*
D14*
X153029104Y-95892282D02*
X153091009Y-95844663D01*
X153091009Y-95844663D02*
X153183866Y-95844663D01*
X153183866Y-95844663D02*
X153276723Y-95892282D01*
X153276723Y-95892282D02*
X153338628Y-95987520D01*
X153338628Y-95987520D02*
X153369581Y-96082758D01*
X153369581Y-96082758D02*
X153400533Y-96273234D01*
X153400533Y-96273234D02*
X153400533Y-96416091D01*
X153400533Y-96416091D02*
X153369581Y-96606567D01*
X153369581Y-96606567D02*
X153338628Y-96701805D01*
X153338628Y-96701805D02*
X153276723Y-96797044D01*
X153276723Y-96797044D02*
X153183866Y-96844663D01*
X153183866Y-96844663D02*
X153121962Y-96844663D01*
X153121962Y-96844663D02*
X153029104Y-96797044D01*
X153029104Y-96797044D02*
X152998152Y-96749424D01*
X152998152Y-96749424D02*
X152998152Y-96416091D01*
X152998152Y-96416091D02*
X153121962Y-96416091D01*
X152719581Y-96844663D02*
X152719581Y-95844663D01*
X152719581Y-95844663D02*
X152348152Y-96844663D01*
X152348152Y-96844663D02*
X152348152Y-95844663D01*
X152038629Y-96844663D02*
X152038629Y-95844663D01*
X152038629Y-95844663D02*
X151883867Y-95844663D01*
X151883867Y-95844663D02*
X151791010Y-95892282D01*
X151791010Y-95892282D02*
X151729105Y-95987520D01*
X151729105Y-95987520D02*
X151698152Y-96082758D01*
X151698152Y-96082758D02*
X151667200Y-96273234D01*
X151667200Y-96273234D02*
X151667200Y-96416091D01*
X151667200Y-96416091D02*
X151698152Y-96606567D01*
X151698152Y-96606567D02*
X151729105Y-96701805D01*
X151729105Y-96701805D02*
X151791010Y-96797044D01*
X151791010Y-96797044D02*
X151883867Y-96844663D01*
X151883867Y-96844663D02*
X152038629Y-96844663D01*
X150521962Y-96844663D02*
X150738629Y-96368472D01*
X150893391Y-96844663D02*
X150893391Y-95844663D01*
X150893391Y-95844663D02*
X150645772Y-95844663D01*
X150645772Y-95844663D02*
X150583867Y-95892282D01*
X150583867Y-95892282D02*
X150552914Y-95939901D01*
X150552914Y-95939901D02*
X150521962Y-96035139D01*
X150521962Y-96035139D02*
X150521962Y-96177996D01*
X150521962Y-96177996D02*
X150552914Y-96273234D01*
X150552914Y-96273234D02*
X150583867Y-96320853D01*
X150583867Y-96320853D02*
X150645772Y-96368472D01*
X150645772Y-96368472D02*
X150893391Y-96368472D01*
X150305295Y-95844663D02*
X149871962Y-96844663D01*
X149871962Y-95844663D02*
X150305295Y-96844663D01*
X149686247Y-95844663D02*
X149283866Y-95844663D01*
X149283866Y-95844663D02*
X149500533Y-96225615D01*
X149500533Y-96225615D02*
X149407676Y-96225615D01*
X149407676Y-96225615D02*
X149345771Y-96273234D01*
X149345771Y-96273234D02*
X149314819Y-96320853D01*
X149314819Y-96320853D02*
X149283866Y-96416091D01*
X149283866Y-96416091D02*
X149283866Y-96654186D01*
X149283866Y-96654186D02*
X149314819Y-96749424D01*
X149314819Y-96749424D02*
X149345771Y-96797044D01*
X149345771Y-96797044D02*
X149407676Y-96844663D01*
X149407676Y-96844663D02*
X149593390Y-96844663D01*
X149593390Y-96844663D02*
X149655295Y-96797044D01*
X149655295Y-96797044D02*
X149686247Y-96749424D01*
D15*
X146698622Y-59767238D02*
X147270050Y-59767238D01*
X146984336Y-59767238D02*
X146984336Y-57767238D01*
X146984336Y-57767238D02*
X147079574Y-58052952D01*
X147079574Y-58052952D02*
X147174812Y-58243428D01*
X147174812Y-58243428D02*
X147270050Y-58338666D01*
X146317669Y-57957714D02*
X146270050Y-57862476D01*
X146270050Y-57862476D02*
X146174812Y-57767238D01*
X146174812Y-57767238D02*
X145936717Y-57767238D01*
X145936717Y-57767238D02*
X145841479Y-57862476D01*
X145841479Y-57862476D02*
X145793860Y-57957714D01*
X145793860Y-57957714D02*
X145746241Y-58148190D01*
X145746241Y-58148190D02*
X145746241Y-58338666D01*
X145746241Y-58338666D02*
X145793860Y-58624380D01*
X145793860Y-58624380D02*
X146365288Y-59767238D01*
X146365288Y-59767238D02*
X145746241Y-59767238D01*
X145460526Y-57767238D02*
X145127193Y-59767238D01*
X145127193Y-59767238D02*
X144793860Y-57767238D01*
D14*
X147709719Y-100805418D02*
X146709719Y-100805418D01*
X146709719Y-100805418D02*
X146709719Y-101053037D01*
X146709719Y-101053037D02*
X146757338Y-101114942D01*
X146757338Y-101114942D02*
X146804957Y-101145895D01*
X146804957Y-101145895D02*
X146900195Y-101176847D01*
X146900195Y-101176847D02*
X147043052Y-101176847D01*
X147043052Y-101176847D02*
X147138290Y-101145895D01*
X147138290Y-101145895D02*
X147185909Y-101114942D01*
X147185909Y-101114942D02*
X147233528Y-101053037D01*
X147233528Y-101053037D02*
X147233528Y-100805418D01*
X147709719Y-101455418D02*
X147043052Y-101455418D01*
X147233528Y-101455418D02*
X147138290Y-101486371D01*
X147138290Y-101486371D02*
X147090671Y-101517323D01*
X147090671Y-101517323D02*
X147043052Y-101579228D01*
X147043052Y-101579228D02*
X147043052Y-101641133D01*
X147709719Y-101950657D02*
X147662100Y-101888752D01*
X147662100Y-101888752D02*
X147614480Y-101857799D01*
X147614480Y-101857799D02*
X147519242Y-101826847D01*
X147519242Y-101826847D02*
X147233528Y-101826847D01*
X147233528Y-101826847D02*
X147138290Y-101857799D01*
X147138290Y-101857799D02*
X147090671Y-101888752D01*
X147090671Y-101888752D02*
X147043052Y-101950657D01*
X147043052Y-101950657D02*
X147043052Y-102043514D01*
X147043052Y-102043514D02*
X147090671Y-102105418D01*
X147090671Y-102105418D02*
X147138290Y-102136371D01*
X147138290Y-102136371D02*
X147233528Y-102167323D01*
X147233528Y-102167323D02*
X147519242Y-102167323D01*
X147519242Y-102167323D02*
X147614480Y-102136371D01*
X147614480Y-102136371D02*
X147662100Y-102105418D01*
X147662100Y-102105418D02*
X147709719Y-102043514D01*
X147709719Y-102043514D02*
X147709719Y-101950657D01*
X147043052Y-102445894D02*
X147900195Y-102445894D01*
X147900195Y-102445894D02*
X147995433Y-102414942D01*
X147995433Y-102414942D02*
X148043052Y-102353037D01*
X148043052Y-102353037D02*
X148043052Y-102322085D01*
X146709719Y-102445894D02*
X146757338Y-102414942D01*
X146757338Y-102414942D02*
X146804957Y-102445894D01*
X146804957Y-102445894D02*
X146757338Y-102476847D01*
X146757338Y-102476847D02*
X146709719Y-102445894D01*
X146709719Y-102445894D02*
X146804957Y-102445894D01*
X147662100Y-103003037D02*
X147709719Y-102941133D01*
X147709719Y-102941133D02*
X147709719Y-102817323D01*
X147709719Y-102817323D02*
X147662100Y-102755418D01*
X147662100Y-102755418D02*
X147566861Y-102724466D01*
X147566861Y-102724466D02*
X147185909Y-102724466D01*
X147185909Y-102724466D02*
X147090671Y-102755418D01*
X147090671Y-102755418D02*
X147043052Y-102817323D01*
X147043052Y-102817323D02*
X147043052Y-102941133D01*
X147043052Y-102941133D02*
X147090671Y-103003037D01*
X147090671Y-103003037D02*
X147185909Y-103033990D01*
X147185909Y-103033990D02*
X147281147Y-103033990D01*
X147281147Y-103033990D02*
X147376385Y-102724466D01*
X147662100Y-103591133D02*
X147709719Y-103529228D01*
X147709719Y-103529228D02*
X147709719Y-103405419D01*
X147709719Y-103405419D02*
X147662100Y-103343514D01*
X147662100Y-103343514D02*
X147614480Y-103312561D01*
X147614480Y-103312561D02*
X147519242Y-103281609D01*
X147519242Y-103281609D02*
X147233528Y-103281609D01*
X147233528Y-103281609D02*
X147138290Y-103312561D01*
X147138290Y-103312561D02*
X147090671Y-103343514D01*
X147090671Y-103343514D02*
X147043052Y-103405419D01*
X147043052Y-103405419D02*
X147043052Y-103529228D01*
X147043052Y-103529228D02*
X147090671Y-103591133D01*
X147043052Y-103776847D02*
X147043052Y-104024466D01*
X146709719Y-103869704D02*
X147566861Y-103869704D01*
X147566861Y-103869704D02*
X147662100Y-103900657D01*
X147662100Y-103900657D02*
X147709719Y-103962562D01*
X147709719Y-103962562D02*
X147709719Y-104024466D01*
X147709719Y-104736371D02*
X146709719Y-104736371D01*
X147185909Y-104736371D02*
X147185909Y-105107800D01*
X147709719Y-105107800D02*
X146709719Y-105107800D01*
X147662100Y-105664942D02*
X147709719Y-105603038D01*
X147709719Y-105603038D02*
X147709719Y-105479228D01*
X147709719Y-105479228D02*
X147662100Y-105417323D01*
X147662100Y-105417323D02*
X147566861Y-105386371D01*
X147566861Y-105386371D02*
X147185909Y-105386371D01*
X147185909Y-105386371D02*
X147090671Y-105417323D01*
X147090671Y-105417323D02*
X147043052Y-105479228D01*
X147043052Y-105479228D02*
X147043052Y-105603038D01*
X147043052Y-105603038D02*
X147090671Y-105664942D01*
X147090671Y-105664942D02*
X147185909Y-105695895D01*
X147185909Y-105695895D02*
X147281147Y-105695895D01*
X147281147Y-105695895D02*
X147376385Y-105386371D01*
X147709719Y-106253038D02*
X147185909Y-106253038D01*
X147185909Y-106253038D02*
X147090671Y-106222085D01*
X147090671Y-106222085D02*
X147043052Y-106160181D01*
X147043052Y-106160181D02*
X147043052Y-106036371D01*
X147043052Y-106036371D02*
X147090671Y-105974466D01*
X147662100Y-106253038D02*
X147709719Y-106191133D01*
X147709719Y-106191133D02*
X147709719Y-106036371D01*
X147709719Y-106036371D02*
X147662100Y-105974466D01*
X147662100Y-105974466D02*
X147566861Y-105943514D01*
X147566861Y-105943514D02*
X147471623Y-105943514D01*
X147471623Y-105943514D02*
X147376385Y-105974466D01*
X147376385Y-105974466D02*
X147328766Y-106036371D01*
X147328766Y-106036371D02*
X147328766Y-106191133D01*
X147328766Y-106191133D02*
X147281147Y-106253038D01*
X147709719Y-106655419D02*
X147662100Y-106593514D01*
X147662100Y-106593514D02*
X147566861Y-106562561D01*
X147566861Y-106562561D02*
X146709719Y-106562561D01*
X147043052Y-106810180D02*
X147043052Y-107057799D01*
X146709719Y-106903037D02*
X147566861Y-106903037D01*
X147566861Y-106903037D02*
X147662100Y-106933990D01*
X147662100Y-106933990D02*
X147709719Y-106995895D01*
X147709719Y-106995895D02*
X147709719Y-107057799D01*
X147709719Y-107274466D02*
X146709719Y-107274466D01*
X147709719Y-107553038D02*
X147185909Y-107553038D01*
X147185909Y-107553038D02*
X147090671Y-107522085D01*
X147090671Y-107522085D02*
X147043052Y-107460181D01*
X147043052Y-107460181D02*
X147043052Y-107367324D01*
X147043052Y-107367324D02*
X147090671Y-107305419D01*
X147090671Y-107305419D02*
X147138290Y-107274466D01*
X147709719Y-107862561D02*
X146709719Y-107862561D01*
X147090671Y-107862561D02*
X147043052Y-107924466D01*
X147043052Y-107924466D02*
X147043052Y-108048276D01*
X147043052Y-108048276D02*
X147090671Y-108110180D01*
X147090671Y-108110180D02*
X147138290Y-108141133D01*
X147138290Y-108141133D02*
X147233528Y-108172085D01*
X147233528Y-108172085D02*
X147519242Y-108172085D01*
X147519242Y-108172085D02*
X147614480Y-108141133D01*
X147614480Y-108141133D02*
X147662100Y-108110180D01*
X147662100Y-108110180D02*
X147709719Y-108048276D01*
X147709719Y-108048276D02*
X147709719Y-107924466D01*
X147709719Y-107924466D02*
X147662100Y-107862561D01*
X147709719Y-108543514D02*
X147662100Y-108481609D01*
X147662100Y-108481609D02*
X147614480Y-108450656D01*
X147614480Y-108450656D02*
X147519242Y-108419704D01*
X147519242Y-108419704D02*
X147233528Y-108419704D01*
X147233528Y-108419704D02*
X147138290Y-108450656D01*
X147138290Y-108450656D02*
X147090671Y-108481609D01*
X147090671Y-108481609D02*
X147043052Y-108543514D01*
X147043052Y-108543514D02*
X147043052Y-108636371D01*
X147043052Y-108636371D02*
X147090671Y-108698275D01*
X147090671Y-108698275D02*
X147138290Y-108729228D01*
X147138290Y-108729228D02*
X147233528Y-108760180D01*
X147233528Y-108760180D02*
X147519242Y-108760180D01*
X147519242Y-108760180D02*
X147614480Y-108729228D01*
X147614480Y-108729228D02*
X147662100Y-108698275D01*
X147662100Y-108698275D02*
X147709719Y-108636371D01*
X147709719Y-108636371D02*
X147709719Y-108543514D01*
X147043052Y-108945894D02*
X147043052Y-109193513D01*
X146709719Y-109038751D02*
X147566861Y-109038751D01*
X147566861Y-109038751D02*
X147662100Y-109069704D01*
X147662100Y-109069704D02*
X147709719Y-109131609D01*
X147709719Y-109131609D02*
X147709719Y-109193513D01*
X148319663Y-100712561D02*
X149319663Y-100929228D01*
X149319663Y-100929228D02*
X148319663Y-101145895D01*
X148319663Y-101486371D02*
X148319663Y-101548276D01*
X148319663Y-101548276D02*
X148367282Y-101610180D01*
X148367282Y-101610180D02*
X148414901Y-101641133D01*
X148414901Y-101641133D02*
X148510139Y-101672085D01*
X148510139Y-101672085D02*
X148700615Y-101703038D01*
X148700615Y-101703038D02*
X148938710Y-101703038D01*
X148938710Y-101703038D02*
X149129186Y-101672085D01*
X149129186Y-101672085D02*
X149224424Y-101641133D01*
X149224424Y-101641133D02*
X149272044Y-101610180D01*
X149272044Y-101610180D02*
X149319663Y-101548276D01*
X149319663Y-101548276D02*
X149319663Y-101486371D01*
X149319663Y-101486371D02*
X149272044Y-101424466D01*
X149272044Y-101424466D02*
X149224424Y-101393514D01*
X149224424Y-101393514D02*
X149129186Y-101362561D01*
X149129186Y-101362561D02*
X148938710Y-101331609D01*
X148938710Y-101331609D02*
X148700615Y-101331609D01*
X148700615Y-101331609D02*
X148510139Y-101362561D01*
X148510139Y-101362561D02*
X148414901Y-101393514D01*
X148414901Y-101393514D02*
X148367282Y-101424466D01*
X148367282Y-101424466D02*
X148319663Y-101486371D01*
X149224424Y-101981609D02*
X149272044Y-102012562D01*
X149272044Y-102012562D02*
X149319663Y-101981609D01*
X149319663Y-101981609D02*
X149272044Y-101950657D01*
X149272044Y-101950657D02*
X149224424Y-101981609D01*
X149224424Y-101981609D02*
X149319663Y-101981609D01*
X149319663Y-102631610D02*
X149319663Y-102260181D01*
X149319663Y-102445895D02*
X148319663Y-102445895D01*
X148319663Y-102445895D02*
X148462520Y-102383991D01*
X148462520Y-102383991D02*
X148557758Y-102322086D01*
X148557758Y-102322086D02*
X148605377Y-102260181D01*
X153148152Y-89469663D02*
X153364819Y-88993472D01*
X153519581Y-89469663D02*
X153519581Y-88469663D01*
X153519581Y-88469663D02*
X153271962Y-88469663D01*
X153271962Y-88469663D02*
X153210057Y-88517282D01*
X153210057Y-88517282D02*
X153179104Y-88564901D01*
X153179104Y-88564901D02*
X153148152Y-88660139D01*
X153148152Y-88660139D02*
X153148152Y-88802996D01*
X153148152Y-88802996D02*
X153179104Y-88898234D01*
X153179104Y-88898234D02*
X153210057Y-88945853D01*
X153210057Y-88945853D02*
X153271962Y-88993472D01*
X153271962Y-88993472D02*
X153519581Y-88993472D01*
X152931485Y-88469663D02*
X152498152Y-89469663D01*
X152498152Y-88469663D02*
X152931485Y-89469663D01*
X151971961Y-88802996D02*
X151971961Y-89469663D01*
X152126723Y-88422044D02*
X152281485Y-89136329D01*
X152281485Y-89136329D02*
X151879104Y-89136329D01*
X151229104Y-88469663D02*
X151012437Y-89469663D01*
X151012437Y-89469663D02*
X150795770Y-88469663D01*
X150207675Y-89374424D02*
X150238627Y-89422044D01*
X150238627Y-89422044D02*
X150331485Y-89469663D01*
X150331485Y-89469663D02*
X150393389Y-89469663D01*
X150393389Y-89469663D02*
X150486246Y-89422044D01*
X150486246Y-89422044D02*
X150548151Y-89326805D01*
X150548151Y-89326805D02*
X150579104Y-89231567D01*
X150579104Y-89231567D02*
X150610056Y-89041091D01*
X150610056Y-89041091D02*
X150610056Y-88898234D01*
X150610056Y-88898234D02*
X150579104Y-88707758D01*
X150579104Y-88707758D02*
X150548151Y-88612520D01*
X150548151Y-88612520D02*
X150486246Y-88517282D01*
X150486246Y-88517282D02*
X150393389Y-88469663D01*
X150393389Y-88469663D02*
X150331485Y-88469663D01*
X150331485Y-88469663D02*
X150238627Y-88517282D01*
X150238627Y-88517282D02*
X150207675Y-88564901D01*
X149557675Y-89374424D02*
X149588627Y-89422044D01*
X149588627Y-89422044D02*
X149681485Y-89469663D01*
X149681485Y-89469663D02*
X149743389Y-89469663D01*
X149743389Y-89469663D02*
X149836246Y-89422044D01*
X149836246Y-89422044D02*
X149898151Y-89326805D01*
X149898151Y-89326805D02*
X149929104Y-89231567D01*
X149929104Y-89231567D02*
X149960056Y-89041091D01*
X149960056Y-89041091D02*
X149960056Y-88898234D01*
X149960056Y-88898234D02*
X149929104Y-88707758D01*
X149929104Y-88707758D02*
X149898151Y-88612520D01*
X149898151Y-88612520D02*
X149836246Y-88517282D01*
X149836246Y-88517282D02*
X149743389Y-88469663D01*
X149743389Y-88469663D02*
X149681485Y-88469663D01*
X149681485Y-88469663D02*
X149588627Y-88517282D01*
X149588627Y-88517282D02*
X149557675Y-88564901D01*
X138996238Y-60417663D02*
X138624809Y-60417663D01*
X138810523Y-61417663D02*
X138810523Y-60417663D01*
X138408143Y-61417663D02*
X138408143Y-60417663D01*
X138408143Y-60417663D02*
X138160524Y-60417663D01*
X138160524Y-60417663D02*
X138098619Y-60465282D01*
X138098619Y-60465282D02*
X138067666Y-60512901D01*
X138067666Y-60512901D02*
X138036714Y-60608139D01*
X138036714Y-60608139D02*
X138036714Y-60750996D01*
X138036714Y-60750996D02*
X138067666Y-60846234D01*
X138067666Y-60846234D02*
X138098619Y-60893853D01*
X138098619Y-60893853D02*
X138160524Y-60941472D01*
X138160524Y-60941472D02*
X138408143Y-60941472D01*
X137820047Y-60417663D02*
X137417666Y-60417663D01*
X137417666Y-60417663D02*
X137634333Y-60798615D01*
X137634333Y-60798615D02*
X137541476Y-60798615D01*
X137541476Y-60798615D02*
X137479571Y-60846234D01*
X137479571Y-60846234D02*
X137448619Y-60893853D01*
X137448619Y-60893853D02*
X137417666Y-60989091D01*
X137417666Y-60989091D02*
X137417666Y-61227186D01*
X137417666Y-61227186D02*
X137448619Y-61322424D01*
X137448619Y-61322424D02*
X137479571Y-61370044D01*
X137479571Y-61370044D02*
X137541476Y-61417663D01*
X137541476Y-61417663D02*
X137727190Y-61417663D01*
X137727190Y-61417663D02*
X137789095Y-61370044D01*
X137789095Y-61370044D02*
X137820047Y-61322424D01*
X106320238Y-63206663D02*
X105948809Y-63206663D01*
X106134523Y-64206663D02*
X106134523Y-63206663D01*
X105732143Y-64206663D02*
X105732143Y-63206663D01*
X105732143Y-63206663D02*
X105484524Y-63206663D01*
X105484524Y-63206663D02*
X105422619Y-63254282D01*
X105422619Y-63254282D02*
X105391666Y-63301901D01*
X105391666Y-63301901D02*
X105360714Y-63397139D01*
X105360714Y-63397139D02*
X105360714Y-63539996D01*
X105360714Y-63539996D02*
X105391666Y-63635234D01*
X105391666Y-63635234D02*
X105422619Y-63682853D01*
X105422619Y-63682853D02*
X105484524Y-63730472D01*
X105484524Y-63730472D02*
X105732143Y-63730472D01*
X104803571Y-63539996D02*
X104803571Y-64206663D01*
X104958333Y-63159044D02*
X105113095Y-63873329D01*
X105113095Y-63873329D02*
X104710714Y-63873329D01*
X93754762Y-73931663D02*
X93383333Y-73931663D01*
X93569047Y-74931663D02*
X93569047Y-73931663D01*
X93166667Y-74931663D02*
X93166667Y-73931663D01*
X93166667Y-73931663D02*
X92919048Y-73931663D01*
X92919048Y-73931663D02*
X92857143Y-73979282D01*
X92857143Y-73979282D02*
X92826190Y-74026901D01*
X92826190Y-74026901D02*
X92795238Y-74122139D01*
X92795238Y-74122139D02*
X92795238Y-74264996D01*
X92795238Y-74264996D02*
X92826190Y-74360234D01*
X92826190Y-74360234D02*
X92857143Y-74407853D01*
X92857143Y-74407853D02*
X92919048Y-74455472D01*
X92919048Y-74455472D02*
X93166667Y-74455472D01*
X92176190Y-74931663D02*
X92547619Y-74931663D01*
X92361905Y-74931663D02*
X92361905Y-73931663D01*
X92361905Y-73931663D02*
X92423809Y-74074520D01*
X92423809Y-74074520D02*
X92485714Y-74169758D01*
X92485714Y-74169758D02*
X92547619Y-74217377D01*
X91619047Y-74264996D02*
X91619047Y-74931663D01*
X91773809Y-73884044D02*
X91928571Y-74598329D01*
X91928571Y-74598329D02*
X91526190Y-74598329D01*
X150004762Y-112806663D02*
X149633333Y-112806663D01*
X149819047Y-113806663D02*
X149819047Y-112806663D01*
X149416667Y-113806663D02*
X149416667Y-112806663D01*
X149416667Y-112806663D02*
X149169048Y-112806663D01*
X149169048Y-112806663D02*
X149107143Y-112854282D01*
X149107143Y-112854282D02*
X149076190Y-112901901D01*
X149076190Y-112901901D02*
X149045238Y-112997139D01*
X149045238Y-112997139D02*
X149045238Y-113139996D01*
X149045238Y-113139996D02*
X149076190Y-113235234D01*
X149076190Y-113235234D02*
X149107143Y-113282853D01*
X149107143Y-113282853D02*
X149169048Y-113330472D01*
X149169048Y-113330472D02*
X149416667Y-113330472D01*
X148426190Y-113806663D02*
X148797619Y-113806663D01*
X148611905Y-113806663D02*
X148611905Y-112806663D01*
X148611905Y-112806663D02*
X148673809Y-112949520D01*
X148673809Y-112949520D02*
X148735714Y-113044758D01*
X148735714Y-113044758D02*
X148797619Y-113092377D01*
X148209523Y-112806663D02*
X147807142Y-112806663D01*
X147807142Y-112806663D02*
X148023809Y-113187615D01*
X148023809Y-113187615D02*
X147930952Y-113187615D01*
X147930952Y-113187615D02*
X147869047Y-113235234D01*
X147869047Y-113235234D02*
X147838095Y-113282853D01*
X147838095Y-113282853D02*
X147807142Y-113378091D01*
X147807142Y-113378091D02*
X147807142Y-113616186D01*
X147807142Y-113616186D02*
X147838095Y-113711424D01*
X147838095Y-113711424D02*
X147869047Y-113759044D01*
X147869047Y-113759044D02*
X147930952Y-113806663D01*
X147930952Y-113806663D02*
X148116666Y-113806663D01*
X148116666Y-113806663D02*
X148178571Y-113759044D01*
X148178571Y-113759044D02*
X148209523Y-113711424D01*
X94120238Y-67231663D02*
X93748809Y-67231663D01*
X93934523Y-68231663D02*
X93934523Y-67231663D01*
X93532143Y-68231663D02*
X93532143Y-67231663D01*
X93532143Y-67231663D02*
X93284524Y-67231663D01*
X93284524Y-67231663D02*
X93222619Y-67279282D01*
X93222619Y-67279282D02*
X93191666Y-67326901D01*
X93191666Y-67326901D02*
X93160714Y-67422139D01*
X93160714Y-67422139D02*
X93160714Y-67564996D01*
X93160714Y-67564996D02*
X93191666Y-67660234D01*
X93191666Y-67660234D02*
X93222619Y-67707853D01*
X93222619Y-67707853D02*
X93284524Y-67755472D01*
X93284524Y-67755472D02*
X93532143Y-67755472D01*
X92572619Y-67231663D02*
X92882143Y-67231663D01*
X92882143Y-67231663D02*
X92913095Y-67707853D01*
X92913095Y-67707853D02*
X92882143Y-67660234D01*
X92882143Y-67660234D02*
X92820238Y-67612615D01*
X92820238Y-67612615D02*
X92665476Y-67612615D01*
X92665476Y-67612615D02*
X92603571Y-67660234D01*
X92603571Y-67660234D02*
X92572619Y-67707853D01*
X92572619Y-67707853D02*
X92541666Y-67803091D01*
X92541666Y-67803091D02*
X92541666Y-68041186D01*
X92541666Y-68041186D02*
X92572619Y-68136424D01*
X92572619Y-68136424D02*
X92603571Y-68184044D01*
X92603571Y-68184044D02*
X92665476Y-68231663D01*
X92665476Y-68231663D02*
X92820238Y-68231663D01*
X92820238Y-68231663D02*
X92882143Y-68184044D01*
X92882143Y-68184044D02*
X92913095Y-68136424D01*
X62595238Y-89506663D02*
X62223809Y-89506663D01*
X62409523Y-90506663D02*
X62409523Y-89506663D01*
X62007143Y-90506663D02*
X62007143Y-89506663D01*
X62007143Y-89506663D02*
X61759524Y-89506663D01*
X61759524Y-89506663D02*
X61697619Y-89554282D01*
X61697619Y-89554282D02*
X61666666Y-89601901D01*
X61666666Y-89601901D02*
X61635714Y-89697139D01*
X61635714Y-89697139D02*
X61635714Y-89839996D01*
X61635714Y-89839996D02*
X61666666Y-89935234D01*
X61666666Y-89935234D02*
X61697619Y-89982853D01*
X61697619Y-89982853D02*
X61759524Y-90030472D01*
X61759524Y-90030472D02*
X62007143Y-90030472D01*
X61078571Y-89506663D02*
X61202381Y-89506663D01*
X61202381Y-89506663D02*
X61264285Y-89554282D01*
X61264285Y-89554282D02*
X61295238Y-89601901D01*
X61295238Y-89601901D02*
X61357143Y-89744758D01*
X61357143Y-89744758D02*
X61388095Y-89935234D01*
X61388095Y-89935234D02*
X61388095Y-90316186D01*
X61388095Y-90316186D02*
X61357143Y-90411424D01*
X61357143Y-90411424D02*
X61326190Y-90459044D01*
X61326190Y-90459044D02*
X61264285Y-90506663D01*
X61264285Y-90506663D02*
X61140476Y-90506663D01*
X61140476Y-90506663D02*
X61078571Y-90459044D01*
X61078571Y-90459044D02*
X61047619Y-90411424D01*
X61047619Y-90411424D02*
X61016666Y-90316186D01*
X61016666Y-90316186D02*
X61016666Y-90078091D01*
X61016666Y-90078091D02*
X61047619Y-89982853D01*
X61047619Y-89982853D02*
X61078571Y-89935234D01*
X61078571Y-89935234D02*
X61140476Y-89887615D01*
X61140476Y-89887615D02*
X61264285Y-89887615D01*
X61264285Y-89887615D02*
X61326190Y-89935234D01*
X61326190Y-89935234D02*
X61357143Y-89982853D01*
X61357143Y-89982853D02*
X61388095Y-90078091D01*
X65720238Y-89331663D02*
X65348809Y-89331663D01*
X65534523Y-90331663D02*
X65534523Y-89331663D01*
X65132143Y-90331663D02*
X65132143Y-89331663D01*
X65132143Y-89331663D02*
X64884524Y-89331663D01*
X64884524Y-89331663D02*
X64822619Y-89379282D01*
X64822619Y-89379282D02*
X64791666Y-89426901D01*
X64791666Y-89426901D02*
X64760714Y-89522139D01*
X64760714Y-89522139D02*
X64760714Y-89664996D01*
X64760714Y-89664996D02*
X64791666Y-89760234D01*
X64791666Y-89760234D02*
X64822619Y-89807853D01*
X64822619Y-89807853D02*
X64884524Y-89855472D01*
X64884524Y-89855472D02*
X65132143Y-89855472D01*
X64544047Y-89331663D02*
X64110714Y-89331663D01*
X64110714Y-89331663D02*
X64389285Y-90331663D01*
X138996238Y-63846663D02*
X138624809Y-63846663D01*
X138810523Y-64846663D02*
X138810523Y-63846663D01*
X138408143Y-64846663D02*
X138408143Y-63846663D01*
X138408143Y-63846663D02*
X138160524Y-63846663D01*
X138160524Y-63846663D02*
X138098619Y-63894282D01*
X138098619Y-63894282D02*
X138067666Y-63941901D01*
X138067666Y-63941901D02*
X138036714Y-64037139D01*
X138036714Y-64037139D02*
X138036714Y-64179996D01*
X138036714Y-64179996D02*
X138067666Y-64275234D01*
X138067666Y-64275234D02*
X138098619Y-64322853D01*
X138098619Y-64322853D02*
X138160524Y-64370472D01*
X138160524Y-64370472D02*
X138408143Y-64370472D01*
X137417666Y-64846663D02*
X137789095Y-64846663D01*
X137603381Y-64846663D02*
X137603381Y-63846663D01*
X137603381Y-63846663D02*
X137665285Y-63989520D01*
X137665285Y-63989520D02*
X137727190Y-64084758D01*
X137727190Y-64084758D02*
X137789095Y-64132377D01*
X143369762Y-79213663D02*
X142998333Y-79213663D01*
X143184047Y-80213663D02*
X143184047Y-79213663D01*
X142781667Y-80213663D02*
X142781667Y-79213663D01*
X142781667Y-79213663D02*
X142534048Y-79213663D01*
X142534048Y-79213663D02*
X142472143Y-79261282D01*
X142472143Y-79261282D02*
X142441190Y-79308901D01*
X142441190Y-79308901D02*
X142410238Y-79404139D01*
X142410238Y-79404139D02*
X142410238Y-79546996D01*
X142410238Y-79546996D02*
X142441190Y-79642234D01*
X142441190Y-79642234D02*
X142472143Y-79689853D01*
X142472143Y-79689853D02*
X142534048Y-79737472D01*
X142534048Y-79737472D02*
X142781667Y-79737472D01*
X141791190Y-80213663D02*
X142162619Y-80213663D01*
X141976905Y-80213663D02*
X141976905Y-79213663D01*
X141976905Y-79213663D02*
X142038809Y-79356520D01*
X142038809Y-79356520D02*
X142100714Y-79451758D01*
X142100714Y-79451758D02*
X142162619Y-79499377D01*
X141388809Y-79213663D02*
X141326904Y-79213663D01*
X141326904Y-79213663D02*
X141265000Y-79261282D01*
X141265000Y-79261282D02*
X141234047Y-79308901D01*
X141234047Y-79308901D02*
X141203095Y-79404139D01*
X141203095Y-79404139D02*
X141172142Y-79594615D01*
X141172142Y-79594615D02*
X141172142Y-79832710D01*
X141172142Y-79832710D02*
X141203095Y-80023186D01*
X141203095Y-80023186D02*
X141234047Y-80118424D01*
X141234047Y-80118424D02*
X141265000Y-80166044D01*
X141265000Y-80166044D02*
X141326904Y-80213663D01*
X141326904Y-80213663D02*
X141388809Y-80213663D01*
X141388809Y-80213663D02*
X141450714Y-80166044D01*
X141450714Y-80166044D02*
X141481666Y-80118424D01*
X141481666Y-80118424D02*
X141512619Y-80023186D01*
X141512619Y-80023186D02*
X141543571Y-79832710D01*
X141543571Y-79832710D02*
X141543571Y-79594615D01*
X141543571Y-79594615D02*
X141512619Y-79404139D01*
X141512619Y-79404139D02*
X141481666Y-79308901D01*
X141481666Y-79308901D02*
X141450714Y-79261282D01*
X141450714Y-79261282D02*
X141388809Y-79213663D01*
X65717238Y-112487663D02*
X65345809Y-112487663D01*
X65531523Y-113487663D02*
X65531523Y-112487663D01*
X65129143Y-113487663D02*
X65129143Y-112487663D01*
X65129143Y-112487663D02*
X64881524Y-112487663D01*
X64881524Y-112487663D02*
X64819619Y-112535282D01*
X64819619Y-112535282D02*
X64788666Y-112582901D01*
X64788666Y-112582901D02*
X64757714Y-112678139D01*
X64757714Y-112678139D02*
X64757714Y-112820996D01*
X64757714Y-112820996D02*
X64788666Y-112916234D01*
X64788666Y-112916234D02*
X64819619Y-112963853D01*
X64819619Y-112963853D02*
X64881524Y-113011472D01*
X64881524Y-113011472D02*
X65129143Y-113011472D01*
X64386285Y-112916234D02*
X64448190Y-112868615D01*
X64448190Y-112868615D02*
X64479143Y-112820996D01*
X64479143Y-112820996D02*
X64510095Y-112725758D01*
X64510095Y-112725758D02*
X64510095Y-112678139D01*
X64510095Y-112678139D02*
X64479143Y-112582901D01*
X64479143Y-112582901D02*
X64448190Y-112535282D01*
X64448190Y-112535282D02*
X64386285Y-112487663D01*
X64386285Y-112487663D02*
X64262476Y-112487663D01*
X64262476Y-112487663D02*
X64200571Y-112535282D01*
X64200571Y-112535282D02*
X64169619Y-112582901D01*
X64169619Y-112582901D02*
X64138666Y-112678139D01*
X64138666Y-112678139D02*
X64138666Y-112725758D01*
X64138666Y-112725758D02*
X64169619Y-112820996D01*
X64169619Y-112820996D02*
X64200571Y-112868615D01*
X64200571Y-112868615D02*
X64262476Y-112916234D01*
X64262476Y-112916234D02*
X64386285Y-112916234D01*
X64386285Y-112916234D02*
X64448190Y-112963853D01*
X64448190Y-112963853D02*
X64479143Y-113011472D01*
X64479143Y-113011472D02*
X64510095Y-113106710D01*
X64510095Y-113106710D02*
X64510095Y-113297186D01*
X64510095Y-113297186D02*
X64479143Y-113392424D01*
X64479143Y-113392424D02*
X64448190Y-113440044D01*
X64448190Y-113440044D02*
X64386285Y-113487663D01*
X64386285Y-113487663D02*
X64262476Y-113487663D01*
X64262476Y-113487663D02*
X64200571Y-113440044D01*
X64200571Y-113440044D02*
X64169619Y-113392424D01*
X64169619Y-113392424D02*
X64138666Y-113297186D01*
X64138666Y-113297186D02*
X64138666Y-113106710D01*
X64138666Y-113106710D02*
X64169619Y-113011472D01*
X64169619Y-113011472D02*
X64200571Y-112963853D01*
X64200571Y-112963853D02*
X64262476Y-112916234D01*
X50532762Y-73117663D02*
X50161333Y-73117663D01*
X50347047Y-74117663D02*
X50347047Y-73117663D01*
X49944667Y-74117663D02*
X49944667Y-73117663D01*
X49944667Y-73117663D02*
X49697048Y-73117663D01*
X49697048Y-73117663D02*
X49635143Y-73165282D01*
X49635143Y-73165282D02*
X49604190Y-73212901D01*
X49604190Y-73212901D02*
X49573238Y-73308139D01*
X49573238Y-73308139D02*
X49573238Y-73450996D01*
X49573238Y-73450996D02*
X49604190Y-73546234D01*
X49604190Y-73546234D02*
X49635143Y-73593853D01*
X49635143Y-73593853D02*
X49697048Y-73641472D01*
X49697048Y-73641472D02*
X49944667Y-73641472D01*
X48954190Y-74117663D02*
X49325619Y-74117663D01*
X49139905Y-74117663D02*
X49139905Y-73117663D01*
X49139905Y-73117663D02*
X49201809Y-73260520D01*
X49201809Y-73260520D02*
X49263714Y-73355758D01*
X49263714Y-73355758D02*
X49325619Y-73403377D01*
X48335142Y-74117663D02*
X48706571Y-74117663D01*
X48520857Y-74117663D02*
X48520857Y-73117663D01*
X48520857Y-73117663D02*
X48582761Y-73260520D01*
X48582761Y-73260520D02*
X48644666Y-73355758D01*
X48644666Y-73355758D02*
X48706571Y-73403377D01*
X155053762Y-112995663D02*
X154682333Y-112995663D01*
X154868047Y-113995663D02*
X154868047Y-112995663D01*
X154465667Y-113995663D02*
X154465667Y-112995663D01*
X154465667Y-112995663D02*
X154218048Y-112995663D01*
X154218048Y-112995663D02*
X154156143Y-113043282D01*
X154156143Y-113043282D02*
X154125190Y-113090901D01*
X154125190Y-113090901D02*
X154094238Y-113186139D01*
X154094238Y-113186139D02*
X154094238Y-113328996D01*
X154094238Y-113328996D02*
X154125190Y-113424234D01*
X154125190Y-113424234D02*
X154156143Y-113471853D01*
X154156143Y-113471853D02*
X154218048Y-113519472D01*
X154218048Y-113519472D02*
X154465667Y-113519472D01*
X153475190Y-113995663D02*
X153846619Y-113995663D01*
X153660905Y-113995663D02*
X153660905Y-112995663D01*
X153660905Y-112995663D02*
X153722809Y-113138520D01*
X153722809Y-113138520D02*
X153784714Y-113233758D01*
X153784714Y-113233758D02*
X153846619Y-113281377D01*
X153227571Y-113090901D02*
X153196619Y-113043282D01*
X153196619Y-113043282D02*
X153134714Y-112995663D01*
X153134714Y-112995663D02*
X152979952Y-112995663D01*
X152979952Y-112995663D02*
X152918047Y-113043282D01*
X152918047Y-113043282D02*
X152887095Y-113090901D01*
X152887095Y-113090901D02*
X152856142Y-113186139D01*
X152856142Y-113186139D02*
X152856142Y-113281377D01*
X152856142Y-113281377D02*
X152887095Y-113424234D01*
X152887095Y-113424234D02*
X153258523Y-113995663D01*
X153258523Y-113995663D02*
X152856142Y-113995663D01*
X78036238Y-112487663D02*
X77664809Y-112487663D01*
X77850523Y-113487663D02*
X77850523Y-112487663D01*
X77448143Y-113487663D02*
X77448143Y-112487663D01*
X77448143Y-112487663D02*
X77200524Y-112487663D01*
X77200524Y-112487663D02*
X77138619Y-112535282D01*
X77138619Y-112535282D02*
X77107666Y-112582901D01*
X77107666Y-112582901D02*
X77076714Y-112678139D01*
X77076714Y-112678139D02*
X77076714Y-112820996D01*
X77076714Y-112820996D02*
X77107666Y-112916234D01*
X77107666Y-112916234D02*
X77138619Y-112963853D01*
X77138619Y-112963853D02*
X77200524Y-113011472D01*
X77200524Y-113011472D02*
X77448143Y-113011472D01*
X76767190Y-113487663D02*
X76643381Y-113487663D01*
X76643381Y-113487663D02*
X76581476Y-113440044D01*
X76581476Y-113440044D02*
X76550524Y-113392424D01*
X76550524Y-113392424D02*
X76488619Y-113249567D01*
X76488619Y-113249567D02*
X76457666Y-113059091D01*
X76457666Y-113059091D02*
X76457666Y-112678139D01*
X76457666Y-112678139D02*
X76488619Y-112582901D01*
X76488619Y-112582901D02*
X76519571Y-112535282D01*
X76519571Y-112535282D02*
X76581476Y-112487663D01*
X76581476Y-112487663D02*
X76705285Y-112487663D01*
X76705285Y-112487663D02*
X76767190Y-112535282D01*
X76767190Y-112535282D02*
X76798143Y-112582901D01*
X76798143Y-112582901D02*
X76829095Y-112678139D01*
X76829095Y-112678139D02*
X76829095Y-112916234D01*
X76829095Y-112916234D02*
X76798143Y-113011472D01*
X76798143Y-113011472D02*
X76767190Y-113059091D01*
X76767190Y-113059091D02*
X76705285Y-113106710D01*
X76705285Y-113106710D02*
X76581476Y-113106710D01*
X76581476Y-113106710D02*
X76519571Y-113059091D01*
X76519571Y-113059091D02*
X76488619Y-113011472D01*
X76488619Y-113011472D02*
X76457666Y-112916234D01*
X89847238Y-53432663D02*
X89475809Y-53432663D01*
X89661523Y-54432663D02*
X89661523Y-53432663D01*
X89259143Y-54432663D02*
X89259143Y-53432663D01*
X89259143Y-53432663D02*
X89011524Y-53432663D01*
X89011524Y-53432663D02*
X88949619Y-53480282D01*
X88949619Y-53480282D02*
X88918666Y-53527901D01*
X88918666Y-53527901D02*
X88887714Y-53623139D01*
X88887714Y-53623139D02*
X88887714Y-53765996D01*
X88887714Y-53765996D02*
X88918666Y-53861234D01*
X88918666Y-53861234D02*
X88949619Y-53908853D01*
X88949619Y-53908853D02*
X89011524Y-53956472D01*
X89011524Y-53956472D02*
X89259143Y-53956472D01*
X88640095Y-53527901D02*
X88609143Y-53480282D01*
X88609143Y-53480282D02*
X88547238Y-53432663D01*
X88547238Y-53432663D02*
X88392476Y-53432663D01*
X88392476Y-53432663D02*
X88330571Y-53480282D01*
X88330571Y-53480282D02*
X88299619Y-53527901D01*
X88299619Y-53527901D02*
X88268666Y-53623139D01*
X88268666Y-53623139D02*
X88268666Y-53718377D01*
X88268666Y-53718377D02*
X88299619Y-53861234D01*
X88299619Y-53861234D02*
X88671047Y-54432663D01*
X88671047Y-54432663D02*
X88268666Y-54432663D01*
D16*
X139126000Y-62611000D02*
G75*
G02*
X137226000Y-62611000I-950000J0D01*
G01*
X137226000Y-62611000D02*
G75*
G02*
X139126000Y-62611000I950000J0D01*
G01*
X106450000Y-65400000D02*
G75*
G02*
X104550000Y-65400000I-950000J0D01*
G01*
X104550000Y-65400000D02*
G75*
G02*
X106450000Y-65400000I950000J0D01*
G01*
X93575000Y-76125000D02*
G75*
G02*
X91675000Y-76125000I-950000J0D01*
G01*
X91675000Y-76125000D02*
G75*
G02*
X93575000Y-76125000I950000J0D01*
G01*
X149825000Y-115000000D02*
G75*
G02*
X147925000Y-115000000I-950000J0D01*
G01*
X147925000Y-115000000D02*
G75*
G02*
X149825000Y-115000000I950000J0D01*
G01*
X94250000Y-69425000D02*
G75*
G02*
X92350000Y-69425000I-950000J0D01*
G01*
X92350000Y-69425000D02*
G75*
G02*
X94250000Y-69425000I950000J0D01*
G01*
X62725000Y-91700000D02*
G75*
G02*
X60825000Y-91700000I-950000J0D01*
G01*
X60825000Y-91700000D02*
G75*
G02*
X62725000Y-91700000I950000J0D01*
G01*
X65850000Y-91525000D02*
G75*
G02*
X63950000Y-91525000I-950000J0D01*
G01*
X63950000Y-91525000D02*
G75*
G02*
X65850000Y-91525000I950000J0D01*
G01*
X139126000Y-66040000D02*
G75*
G02*
X137226000Y-66040000I-950000J0D01*
G01*
X137226000Y-66040000D02*
G75*
G02*
X139126000Y-66040000I950000J0D01*
G01*
X143190000Y-81407000D02*
G75*
G02*
X141290000Y-81407000I-950000J0D01*
G01*
X141290000Y-81407000D02*
G75*
G02*
X143190000Y-81407000I950000J0D01*
G01*
X65847000Y-114681000D02*
G75*
G02*
X63947000Y-114681000I-950000J0D01*
G01*
X63947000Y-114681000D02*
G75*
G02*
X65847000Y-114681000I950000J0D01*
G01*
X50353000Y-75311000D02*
G75*
G02*
X48453000Y-75311000I-950000J0D01*
G01*
X48453000Y-75311000D02*
G75*
G02*
X50353000Y-75311000I950000J0D01*
G01*
X154874000Y-115189000D02*
G75*
G02*
X152974000Y-115189000I-950000J0D01*
G01*
X152974000Y-115189000D02*
G75*
G02*
X154874000Y-115189000I950000J0D01*
G01*
X78166000Y-114681000D02*
G75*
G02*
X76266000Y-114681000I-950000J0D01*
G01*
X76266000Y-114681000D02*
G75*
G02*
X78166000Y-114681000I950000J0D01*
G01*
X89977000Y-55626000D02*
G75*
G02*
X88077000Y-55626000I-950000J0D01*
G01*
X88077000Y-55626000D02*
G75*
G02*
X89977000Y-55626000I950000J0D01*
G01*
%LPC*%
D17*
X56896000Y-111873000D03*
D18*
X56896000Y-114373000D03*
X56896000Y-116873000D03*
X56896000Y-119373000D03*
X56896000Y-121873000D03*
X56896000Y-124373000D03*
X56896000Y-126873000D03*
D19*
X155194000Y-88900000D03*
D20*
X157734000Y-88900000D03*
X155194000Y-91440000D03*
X157734000Y-91440000D03*
X155194000Y-93980000D03*
X157734000Y-93980000D03*
X155194000Y-96520000D03*
X157734000Y-96520000D03*
D19*
X65024000Y-118491000D03*
D20*
X67564000Y-118491000D03*
X70104000Y-118491000D03*
D21*
X150007000Y-127614000D03*
D22*
X152507000Y-127614000D03*
D23*
X97925000Y-56485000D03*
X97925000Y-59025000D03*
X97925000Y-61565000D03*
D24*
X49152000Y-94419000D03*
D25*
X52182000Y-94119000D03*
X52182000Y-89269000D03*
D24*
X49152000Y-88969000D03*
D20*
X49022000Y-100584000D03*
X51562000Y-100584000D03*
D19*
X54102000Y-100584000D03*
D20*
X56642000Y-100584000D03*
X59182000Y-100584000D03*
X61722000Y-100584000D03*
X64262000Y-100584000D03*
D19*
X66802000Y-100584000D03*
D20*
X69342000Y-100584000D03*
X71882000Y-100584000D03*
X74422000Y-100584000D03*
X76962000Y-100584000D03*
D19*
X79502000Y-100584000D03*
D20*
X82042000Y-100584000D03*
X84582000Y-100584000D03*
X87122000Y-100584000D03*
X89662000Y-100584000D03*
D19*
X92202000Y-100584000D03*
D20*
X94742000Y-100584000D03*
X97282000Y-100584000D03*
X97282000Y-82804000D03*
X94742000Y-82804000D03*
D19*
X92202000Y-82804000D03*
D20*
X89662000Y-82804000D03*
X87122000Y-82804000D03*
X84582000Y-82804000D03*
X82042000Y-82804000D03*
D19*
X79502000Y-82804000D03*
D20*
X76962000Y-82804000D03*
X74422000Y-82804000D03*
X71882000Y-82804000D03*
X69342000Y-82804000D03*
D19*
X66802000Y-82804000D03*
D20*
X64262000Y-82804000D03*
X61722000Y-82804000D03*
X59182000Y-82804000D03*
X56642000Y-82804000D03*
D19*
X54102000Y-82804000D03*
D20*
X51562000Y-82804000D03*
X49022000Y-82804000D03*
X97052000Y-94234000D03*
D19*
X97052000Y-91694000D03*
D20*
X97052000Y-89154000D03*
D21*
X141371000Y-127614000D03*
D22*
X143871000Y-127614000D03*
D17*
X56790000Y-55746000D03*
D18*
X56790000Y-58246000D03*
X56790000Y-60746000D03*
X56790000Y-63246000D03*
X56790000Y-65746000D03*
X56790000Y-68246000D03*
X56790000Y-70746000D03*
D19*
X129540000Y-79756000D03*
D20*
X129540000Y-82296000D03*
X129540000Y-84836000D03*
D21*
X120924000Y-127614000D03*
D22*
X123424000Y-127614000D03*
D26*
X104454000Y-127614000D03*
D27*
X106954000Y-127614000D03*
X109454000Y-127614000D03*
X111954000Y-127614000D03*
D28*
X103552000Y-72638000D03*
D29*
X103552000Y-70098000D03*
X106092000Y-72638000D03*
X106092000Y-70098000D03*
X108632000Y-72638000D03*
X108632000Y-70098000D03*
X111172000Y-72638000D03*
X111172000Y-70098000D03*
X113712000Y-72638000D03*
X113712000Y-70098000D03*
X116252000Y-72638000D03*
X116252000Y-70098000D03*
X118792000Y-72638000D03*
X118792000Y-70098000D03*
X121332000Y-72638000D03*
X121332000Y-70098000D03*
X123872000Y-72638000D03*
X123872000Y-70098000D03*
X126412000Y-72638000D03*
X126412000Y-70098000D03*
X128952000Y-72638000D03*
X128952000Y-70098000D03*
X131492000Y-72638000D03*
X131492000Y-70098000D03*
X134032000Y-72638000D03*
X134032000Y-70098000D03*
X136572000Y-72638000D03*
X136572000Y-70098000D03*
X139112000Y-72638000D03*
X139112000Y-70098000D03*
X141652000Y-72638000D03*
X141652000Y-70098000D03*
X144192000Y-72638000D03*
X144192000Y-70098000D03*
X146732000Y-72638000D03*
X146732000Y-70098000D03*
X149272000Y-72638000D03*
X149272000Y-70098000D03*
X151812000Y-72638000D03*
X151812000Y-70098000D03*
D30*
X98682000Y-71368000D03*
X156682000Y-71368000D03*
X156682000Y-120368000D03*
X98682000Y-120368000D03*
D19*
X77804000Y-118491000D03*
D20*
X80344000Y-118491000D03*
X82884000Y-118491000D03*
D26*
X77470000Y-127614000D03*
D27*
X79970000Y-127614000D03*
X82470000Y-127614000D03*
D31*
X83312000Y-62230000D03*
D27*
X80812000Y-62230000D03*
X78312000Y-62230000D03*
X75812000Y-62230000D03*
X73312000Y-62230000D03*
X70812000Y-62230000D03*
X68312000Y-62230000D03*
X65812000Y-62230000D03*
D19*
X135001000Y-54864000D03*
D20*
X137541000Y-54864000D03*
D32*
X146410000Y-62450000D03*
X146410000Y-54830000D03*
X151410000Y-62450000D03*
X151410000Y-54830000D03*
X156410000Y-62450000D03*
X156410000Y-54830000D03*
D26*
X63747000Y-127508000D03*
D27*
X66247000Y-127508000D03*
X68747000Y-127508000D03*
X71247000Y-127508000D03*
D21*
X129560000Y-127614000D03*
D22*
X132060000Y-127614000D03*
D26*
X90865000Y-127614000D03*
D27*
X93365000Y-127614000D03*
X95865000Y-127614000D03*
X98365000Y-127614000D03*
D33*
X123952000Y-102362000D03*
D34*
X123952000Y-104902000D03*
X123952000Y-107442000D03*
X123952000Y-109982000D03*
X123952000Y-112522000D03*
X123952000Y-115062000D03*
X123952000Y-117602000D03*
X123952000Y-120142000D03*
X136652000Y-102362000D03*
X136652000Y-104902000D03*
X136652000Y-107442000D03*
X136652000Y-109982000D03*
X136652000Y-112522000D03*
X136652000Y-115062000D03*
X136652000Y-117602000D03*
X136652000Y-120142000D03*
X131572000Y-120142000D03*
X134112000Y-120142000D03*
D19*
X153425000Y-77825000D03*
D20*
X155965000Y-77825000D03*
X153425000Y-80365000D03*
X155965000Y-80365000D03*
X153425000Y-82905000D03*
X155965000Y-82905000D03*
D33*
X104140000Y-102108000D03*
D34*
X104140000Y-104648000D03*
X104140000Y-107188000D03*
X104140000Y-109728000D03*
X104140000Y-112268000D03*
X104140000Y-114808000D03*
X104140000Y-117348000D03*
X104140000Y-119888000D03*
X116840000Y-102108000D03*
X116840000Y-104648000D03*
X116840000Y-107188000D03*
X116840000Y-109728000D03*
X116840000Y-112268000D03*
X116840000Y-114808000D03*
X116840000Y-117348000D03*
X116840000Y-119888000D03*
X111760000Y-119888000D03*
X114300000Y-119888000D03*
D35*
X138176000Y-62611000D03*
X105500000Y-65400000D03*
X92625000Y-76125000D03*
X148875000Y-115000000D03*
X93300000Y-69425000D03*
X61775000Y-91700000D03*
X64900000Y-91525000D03*
X138176000Y-66040000D03*
X142240000Y-81407000D03*
X64897000Y-114681000D03*
X49403000Y-75311000D03*
X153924000Y-115189000D03*
X77216000Y-114681000D03*
X89027000Y-55626000D03*
%LPD*%
M02*
