G04 #@! TF.GenerationSoftware,KiCad,Pcbnew,8.0.2*
G04 #@! TF.CreationDate,2024-05-26T03:41:07+02:00*
G04 #@! TF.ProjectId,universalConnectorBoard,756e6976-6572-4736-916c-436f6e6e6563,rev?*
G04 #@! TF.SameCoordinates,Original*
G04 #@! TF.FileFunction,Copper,L2,Bot*
G04 #@! TF.FilePolarity,Positive*
%FSLAX46Y46*%
G04 Gerber Fmt 4.6, Leading zero omitted, Abs format (unit mm)*
G04 Created by KiCad (PCBNEW 8.0.2) date 2024-05-26 03:41:07*
%MOMM*%
%LPD*%
G01*
G04 APERTURE LIST*
G04 Aperture macros list*
%AMRoundRect*
0 Rectangle with rounded corners*
0 $1 Rounding radius*
0 $2 $3 $4 $5 $6 $7 $8 $9 X,Y pos of 4 corners*
0 Add a 4 corners polygon primitive as box body*
4,1,4,$2,$3,$4,$5,$6,$7,$8,$9,$2,$3,0*
0 Add four circle primitives for the rounded corners*
1,1,$1+$1,$2,$3*
1,1,$1+$1,$4,$5*
1,1,$1+$1,$6,$7*
1,1,$1+$1,$8,$9*
0 Add four rect primitives between the rounded corners*
20,1,$1+$1,$2,$3,$4,$5,0*
20,1,$1+$1,$4,$5,$6,$7,0*
20,1,$1+$1,$6,$7,$8,$9,0*
20,1,$1+$1,$8,$9,$2,$3,0*%
G04 Aperture macros list end*
%ADD10C,0.100000*%
%ADD11C,0.150000*%
%ADD12C,0.300000*%
%ADD13C,0.400000*%
G04 #@! TA.AperFunction,ComponentPad*
%ADD14O,1.700000X1.700000*%
G04 #@! TD*
G04 #@! TA.AperFunction,ComponentPad*
%ADD15R,1.700000X1.700000*%
G04 #@! TD*
G04 #@! TA.AperFunction,ComponentPad*
%ADD16C,1.280000*%
G04 #@! TD*
G04 #@! TA.AperFunction,ComponentPad*
%ADD17R,1.524000X1.524000*%
G04 #@! TD*
G04 #@! TA.AperFunction,ComponentPad*
%ADD18C,1.524000*%
G04 #@! TD*
G04 #@! TA.AperFunction,ComponentPad*
%ADD19C,6.200000*%
G04 #@! TD*
G04 #@! TA.AperFunction,ComponentPad*
%ADD20RoundRect,0.250000X-0.725000X0.600000X-0.725000X-0.600000X0.725000X-0.600000X0.725000X0.600000X0*%
G04 #@! TD*
G04 #@! TA.AperFunction,ComponentPad*
%ADD21O,1.950000X1.700000*%
G04 #@! TD*
G04 #@! TA.AperFunction,ComponentPad*
%ADD22RoundRect,0.250000X-0.600000X-0.750000X0.600000X-0.750000X0.600000X0.750000X-0.600000X0.750000X0*%
G04 #@! TD*
G04 #@! TA.AperFunction,ComponentPad*
%ADD23O,1.700000X2.000000*%
G04 #@! TD*
G04 #@! TA.AperFunction,ComponentPad*
%ADD24RoundRect,0.250000X-0.600000X-0.725000X0.600000X-0.725000X0.600000X0.725000X-0.600000X0.725000X0*%
G04 #@! TD*
G04 #@! TA.AperFunction,ComponentPad*
%ADD25O,1.700000X1.950000*%
G04 #@! TD*
G04 #@! TA.AperFunction,ComponentPad*
%ADD26RoundRect,0.250000X0.600000X0.725000X-0.600000X0.725000X-0.600000X-0.725000X0.600000X-0.725000X0*%
G04 #@! TD*
G04 #@! TA.AperFunction,ComponentPad*
%ADD27C,2.025000*%
G04 #@! TD*
G04 #@! TA.AperFunction,ComponentPad*
%ADD28R,1.508000X1.508000*%
G04 #@! TD*
G04 #@! TA.AperFunction,ComponentPad*
%ADD29C,1.508000*%
G04 #@! TD*
G04 #@! TA.AperFunction,SMDPad,CuDef*
%ADD30C,1.500000*%
G04 #@! TD*
G04 #@! TA.AperFunction,ViaPad*
%ADD31C,0.800000*%
G04 #@! TD*
G04 #@! TA.AperFunction,ViaPad*
%ADD32C,0.500000*%
G04 #@! TD*
G04 #@! TA.AperFunction,Conductor*
%ADD33C,0.250000*%
G04 #@! TD*
G04 APERTURE END LIST*
D10*
D11*
X177002200Y-166007200D02*
X285002200Y-166007200D01*
X285002200Y-198007200D01*
X177002200Y-198007200D01*
X177002200Y-166007200D01*
D10*
D11*
X10000000Y-10000000D02*
X287002200Y-10000000D01*
X287002200Y-200007200D01*
X10000000Y-200007200D01*
X10000000Y-10000000D01*
D10*
D11*
X12000000Y-12000000D02*
X285002200Y-12000000D01*
X285002200Y-198007200D01*
X12000000Y-198007200D01*
X12000000Y-12000000D01*
D10*
D11*
X60000000Y-12000000D02*
X60000000Y-10000000D01*
D10*
D11*
X110000000Y-12000000D02*
X110000000Y-10000000D01*
D10*
D11*
X160000000Y-12000000D02*
X160000000Y-10000000D01*
D10*
D11*
X210000000Y-12000000D02*
X210000000Y-10000000D01*
D10*
D11*
X260000000Y-12000000D02*
X260000000Y-10000000D01*
D10*
D11*
X36089160Y-11593604D02*
X35346303Y-11593604D01*
X35717731Y-11593604D02*
X35717731Y-10293604D01*
X35717731Y-10293604D02*
X35593922Y-10479319D01*
X35593922Y-10479319D02*
X35470112Y-10603128D01*
X35470112Y-10603128D02*
X35346303Y-10665033D01*
D10*
D11*
X85346303Y-10417414D02*
X85408207Y-10355509D01*
X85408207Y-10355509D02*
X85532017Y-10293604D01*
X85532017Y-10293604D02*
X85841541Y-10293604D01*
X85841541Y-10293604D02*
X85965350Y-10355509D01*
X85965350Y-10355509D02*
X86027255Y-10417414D01*
X86027255Y-10417414D02*
X86089160Y-10541223D01*
X86089160Y-10541223D02*
X86089160Y-10665033D01*
X86089160Y-10665033D02*
X86027255Y-10850747D01*
X86027255Y-10850747D02*
X85284398Y-11593604D01*
X85284398Y-11593604D02*
X86089160Y-11593604D01*
D10*
D11*
X135284398Y-10293604D02*
X136089160Y-10293604D01*
X136089160Y-10293604D02*
X135655826Y-10788842D01*
X135655826Y-10788842D02*
X135841541Y-10788842D01*
X135841541Y-10788842D02*
X135965350Y-10850747D01*
X135965350Y-10850747D02*
X136027255Y-10912652D01*
X136027255Y-10912652D02*
X136089160Y-11036461D01*
X136089160Y-11036461D02*
X136089160Y-11345985D01*
X136089160Y-11345985D02*
X136027255Y-11469795D01*
X136027255Y-11469795D02*
X135965350Y-11531700D01*
X135965350Y-11531700D02*
X135841541Y-11593604D01*
X135841541Y-11593604D02*
X135470112Y-11593604D01*
X135470112Y-11593604D02*
X135346303Y-11531700D01*
X135346303Y-11531700D02*
X135284398Y-11469795D01*
D10*
D11*
X185965350Y-10726938D02*
X185965350Y-11593604D01*
X185655826Y-10231700D02*
X185346303Y-11160271D01*
X185346303Y-11160271D02*
X186151064Y-11160271D01*
D10*
D11*
X236027255Y-10293604D02*
X235408207Y-10293604D01*
X235408207Y-10293604D02*
X235346303Y-10912652D01*
X235346303Y-10912652D02*
X235408207Y-10850747D01*
X235408207Y-10850747D02*
X235532017Y-10788842D01*
X235532017Y-10788842D02*
X235841541Y-10788842D01*
X235841541Y-10788842D02*
X235965350Y-10850747D01*
X235965350Y-10850747D02*
X236027255Y-10912652D01*
X236027255Y-10912652D02*
X236089160Y-11036461D01*
X236089160Y-11036461D02*
X236089160Y-11345985D01*
X236089160Y-11345985D02*
X236027255Y-11469795D01*
X236027255Y-11469795D02*
X235965350Y-11531700D01*
X235965350Y-11531700D02*
X235841541Y-11593604D01*
X235841541Y-11593604D02*
X235532017Y-11593604D01*
X235532017Y-11593604D02*
X235408207Y-11531700D01*
X235408207Y-11531700D02*
X235346303Y-11469795D01*
D10*
D11*
X285965350Y-10293604D02*
X285717731Y-10293604D01*
X285717731Y-10293604D02*
X285593922Y-10355509D01*
X285593922Y-10355509D02*
X285532017Y-10417414D01*
X285532017Y-10417414D02*
X285408207Y-10603128D01*
X285408207Y-10603128D02*
X285346303Y-10850747D01*
X285346303Y-10850747D02*
X285346303Y-11345985D01*
X285346303Y-11345985D02*
X285408207Y-11469795D01*
X285408207Y-11469795D02*
X285470112Y-11531700D01*
X285470112Y-11531700D02*
X285593922Y-11593604D01*
X285593922Y-11593604D02*
X285841541Y-11593604D01*
X285841541Y-11593604D02*
X285965350Y-11531700D01*
X285965350Y-11531700D02*
X286027255Y-11469795D01*
X286027255Y-11469795D02*
X286089160Y-11345985D01*
X286089160Y-11345985D02*
X286089160Y-11036461D01*
X286089160Y-11036461D02*
X286027255Y-10912652D01*
X286027255Y-10912652D02*
X285965350Y-10850747D01*
X285965350Y-10850747D02*
X285841541Y-10788842D01*
X285841541Y-10788842D02*
X285593922Y-10788842D01*
X285593922Y-10788842D02*
X285470112Y-10850747D01*
X285470112Y-10850747D02*
X285408207Y-10912652D01*
X285408207Y-10912652D02*
X285346303Y-11036461D01*
D10*
D11*
X60000000Y-198007200D02*
X60000000Y-200007200D01*
D10*
D11*
X110000000Y-198007200D02*
X110000000Y-200007200D01*
D10*
D11*
X160000000Y-198007200D02*
X160000000Y-200007200D01*
D10*
D11*
X210000000Y-198007200D02*
X210000000Y-200007200D01*
D10*
D11*
X260000000Y-198007200D02*
X260000000Y-200007200D01*
D10*
D11*
X36089160Y-199600804D02*
X35346303Y-199600804D01*
X35717731Y-199600804D02*
X35717731Y-198300804D01*
X35717731Y-198300804D02*
X35593922Y-198486519D01*
X35593922Y-198486519D02*
X35470112Y-198610328D01*
X35470112Y-198610328D02*
X35346303Y-198672233D01*
D10*
D11*
X85346303Y-198424614D02*
X85408207Y-198362709D01*
X85408207Y-198362709D02*
X85532017Y-198300804D01*
X85532017Y-198300804D02*
X85841541Y-198300804D01*
X85841541Y-198300804D02*
X85965350Y-198362709D01*
X85965350Y-198362709D02*
X86027255Y-198424614D01*
X86027255Y-198424614D02*
X86089160Y-198548423D01*
X86089160Y-198548423D02*
X86089160Y-198672233D01*
X86089160Y-198672233D02*
X86027255Y-198857947D01*
X86027255Y-198857947D02*
X85284398Y-199600804D01*
X85284398Y-199600804D02*
X86089160Y-199600804D01*
D10*
D11*
X135284398Y-198300804D02*
X136089160Y-198300804D01*
X136089160Y-198300804D02*
X135655826Y-198796042D01*
X135655826Y-198796042D02*
X135841541Y-198796042D01*
X135841541Y-198796042D02*
X135965350Y-198857947D01*
X135965350Y-198857947D02*
X136027255Y-198919852D01*
X136027255Y-198919852D02*
X136089160Y-199043661D01*
X136089160Y-199043661D02*
X136089160Y-199353185D01*
X136089160Y-199353185D02*
X136027255Y-199476995D01*
X136027255Y-199476995D02*
X135965350Y-199538900D01*
X135965350Y-199538900D02*
X135841541Y-199600804D01*
X135841541Y-199600804D02*
X135470112Y-199600804D01*
X135470112Y-199600804D02*
X135346303Y-199538900D01*
X135346303Y-199538900D02*
X135284398Y-199476995D01*
D10*
D11*
X185965350Y-198734138D02*
X185965350Y-199600804D01*
X185655826Y-198238900D02*
X185346303Y-199167471D01*
X185346303Y-199167471D02*
X186151064Y-199167471D01*
D10*
D11*
X236027255Y-198300804D02*
X235408207Y-198300804D01*
X235408207Y-198300804D02*
X235346303Y-198919852D01*
X235346303Y-198919852D02*
X235408207Y-198857947D01*
X235408207Y-198857947D02*
X235532017Y-198796042D01*
X235532017Y-198796042D02*
X235841541Y-198796042D01*
X235841541Y-198796042D02*
X235965350Y-198857947D01*
X235965350Y-198857947D02*
X236027255Y-198919852D01*
X236027255Y-198919852D02*
X236089160Y-199043661D01*
X236089160Y-199043661D02*
X236089160Y-199353185D01*
X236089160Y-199353185D02*
X236027255Y-199476995D01*
X236027255Y-199476995D02*
X235965350Y-199538900D01*
X235965350Y-199538900D02*
X235841541Y-199600804D01*
X235841541Y-199600804D02*
X235532017Y-199600804D01*
X235532017Y-199600804D02*
X235408207Y-199538900D01*
X235408207Y-199538900D02*
X235346303Y-199476995D01*
D10*
D11*
X285965350Y-198300804D02*
X285717731Y-198300804D01*
X285717731Y-198300804D02*
X285593922Y-198362709D01*
X285593922Y-198362709D02*
X285532017Y-198424614D01*
X285532017Y-198424614D02*
X285408207Y-198610328D01*
X285408207Y-198610328D02*
X285346303Y-198857947D01*
X285346303Y-198857947D02*
X285346303Y-199353185D01*
X285346303Y-199353185D02*
X285408207Y-199476995D01*
X285408207Y-199476995D02*
X285470112Y-199538900D01*
X285470112Y-199538900D02*
X285593922Y-199600804D01*
X285593922Y-199600804D02*
X285841541Y-199600804D01*
X285841541Y-199600804D02*
X285965350Y-199538900D01*
X285965350Y-199538900D02*
X286027255Y-199476995D01*
X286027255Y-199476995D02*
X286089160Y-199353185D01*
X286089160Y-199353185D02*
X286089160Y-199043661D01*
X286089160Y-199043661D02*
X286027255Y-198919852D01*
X286027255Y-198919852D02*
X285965350Y-198857947D01*
X285965350Y-198857947D02*
X285841541Y-198796042D01*
X285841541Y-198796042D02*
X285593922Y-198796042D01*
X285593922Y-198796042D02*
X285470112Y-198857947D01*
X285470112Y-198857947D02*
X285408207Y-198919852D01*
X285408207Y-198919852D02*
X285346303Y-199043661D01*
D10*
D11*
X10000000Y-60000000D02*
X12000000Y-60000000D01*
D10*
D11*
X10000000Y-110000000D02*
X12000000Y-110000000D01*
D10*
D11*
X10000000Y-160000000D02*
X12000000Y-160000000D01*
D10*
D11*
X10690476Y-35222176D02*
X11309523Y-35222176D01*
X10566666Y-35593604D02*
X10999999Y-34293604D01*
X10999999Y-34293604D02*
X11433333Y-35593604D01*
D10*
D11*
X11092857Y-84912652D02*
X11278571Y-84974557D01*
X11278571Y-84974557D02*
X11340476Y-85036461D01*
X11340476Y-85036461D02*
X11402380Y-85160271D01*
X11402380Y-85160271D02*
X11402380Y-85345985D01*
X11402380Y-85345985D02*
X11340476Y-85469795D01*
X11340476Y-85469795D02*
X11278571Y-85531700D01*
X11278571Y-85531700D02*
X11154761Y-85593604D01*
X11154761Y-85593604D02*
X10659523Y-85593604D01*
X10659523Y-85593604D02*
X10659523Y-84293604D01*
X10659523Y-84293604D02*
X11092857Y-84293604D01*
X11092857Y-84293604D02*
X11216666Y-84355509D01*
X11216666Y-84355509D02*
X11278571Y-84417414D01*
X11278571Y-84417414D02*
X11340476Y-84541223D01*
X11340476Y-84541223D02*
X11340476Y-84665033D01*
X11340476Y-84665033D02*
X11278571Y-84788842D01*
X11278571Y-84788842D02*
X11216666Y-84850747D01*
X11216666Y-84850747D02*
X11092857Y-84912652D01*
X11092857Y-84912652D02*
X10659523Y-84912652D01*
D10*
D11*
X11402380Y-135469795D02*
X11340476Y-135531700D01*
X11340476Y-135531700D02*
X11154761Y-135593604D01*
X11154761Y-135593604D02*
X11030952Y-135593604D01*
X11030952Y-135593604D02*
X10845238Y-135531700D01*
X10845238Y-135531700D02*
X10721428Y-135407890D01*
X10721428Y-135407890D02*
X10659523Y-135284080D01*
X10659523Y-135284080D02*
X10597619Y-135036461D01*
X10597619Y-135036461D02*
X10597619Y-134850747D01*
X10597619Y-134850747D02*
X10659523Y-134603128D01*
X10659523Y-134603128D02*
X10721428Y-134479319D01*
X10721428Y-134479319D02*
X10845238Y-134355509D01*
X10845238Y-134355509D02*
X11030952Y-134293604D01*
X11030952Y-134293604D02*
X11154761Y-134293604D01*
X11154761Y-134293604D02*
X11340476Y-134355509D01*
X11340476Y-134355509D02*
X11402380Y-134417414D01*
D10*
D11*
X10659523Y-185593604D02*
X10659523Y-184293604D01*
X10659523Y-184293604D02*
X10969047Y-184293604D01*
X10969047Y-184293604D02*
X11154761Y-184355509D01*
X11154761Y-184355509D02*
X11278571Y-184479319D01*
X11278571Y-184479319D02*
X11340476Y-184603128D01*
X11340476Y-184603128D02*
X11402380Y-184850747D01*
X11402380Y-184850747D02*
X11402380Y-185036461D01*
X11402380Y-185036461D02*
X11340476Y-185284080D01*
X11340476Y-185284080D02*
X11278571Y-185407890D01*
X11278571Y-185407890D02*
X11154761Y-185531700D01*
X11154761Y-185531700D02*
X10969047Y-185593604D01*
X10969047Y-185593604D02*
X10659523Y-185593604D01*
D10*
D11*
X287002200Y-60000000D02*
X285002200Y-60000000D01*
D10*
D11*
X287002200Y-110000000D02*
X285002200Y-110000000D01*
D10*
D11*
X287002200Y-160000000D02*
X285002200Y-160000000D01*
D10*
D11*
X285692676Y-35222176D02*
X286311723Y-35222176D01*
X285568866Y-35593604D02*
X286002199Y-34293604D01*
X286002199Y-34293604D02*
X286435533Y-35593604D01*
D10*
D11*
X286095057Y-84912652D02*
X286280771Y-84974557D01*
X286280771Y-84974557D02*
X286342676Y-85036461D01*
X286342676Y-85036461D02*
X286404580Y-85160271D01*
X286404580Y-85160271D02*
X286404580Y-85345985D01*
X286404580Y-85345985D02*
X286342676Y-85469795D01*
X286342676Y-85469795D02*
X286280771Y-85531700D01*
X286280771Y-85531700D02*
X286156961Y-85593604D01*
X286156961Y-85593604D02*
X285661723Y-85593604D01*
X285661723Y-85593604D02*
X285661723Y-84293604D01*
X285661723Y-84293604D02*
X286095057Y-84293604D01*
X286095057Y-84293604D02*
X286218866Y-84355509D01*
X286218866Y-84355509D02*
X286280771Y-84417414D01*
X286280771Y-84417414D02*
X286342676Y-84541223D01*
X286342676Y-84541223D02*
X286342676Y-84665033D01*
X286342676Y-84665033D02*
X286280771Y-84788842D01*
X286280771Y-84788842D02*
X286218866Y-84850747D01*
X286218866Y-84850747D02*
X286095057Y-84912652D01*
X286095057Y-84912652D02*
X285661723Y-84912652D01*
D10*
D11*
X286404580Y-135469795D02*
X286342676Y-135531700D01*
X286342676Y-135531700D02*
X286156961Y-135593604D01*
X286156961Y-135593604D02*
X286033152Y-135593604D01*
X286033152Y-135593604D02*
X285847438Y-135531700D01*
X285847438Y-135531700D02*
X285723628Y-135407890D01*
X285723628Y-135407890D02*
X285661723Y-135284080D01*
X285661723Y-135284080D02*
X285599819Y-135036461D01*
X285599819Y-135036461D02*
X285599819Y-134850747D01*
X285599819Y-134850747D02*
X285661723Y-134603128D01*
X285661723Y-134603128D02*
X285723628Y-134479319D01*
X285723628Y-134479319D02*
X285847438Y-134355509D01*
X285847438Y-134355509D02*
X286033152Y-134293604D01*
X286033152Y-134293604D02*
X286156961Y-134293604D01*
X286156961Y-134293604D02*
X286342676Y-134355509D01*
X286342676Y-134355509D02*
X286404580Y-134417414D01*
D10*
D11*
X285661723Y-185593604D02*
X285661723Y-184293604D01*
X285661723Y-184293604D02*
X285971247Y-184293604D01*
X285971247Y-184293604D02*
X286156961Y-184355509D01*
X286156961Y-184355509D02*
X286280771Y-184479319D01*
X286280771Y-184479319D02*
X286342676Y-184603128D01*
X286342676Y-184603128D02*
X286404580Y-184850747D01*
X286404580Y-184850747D02*
X286404580Y-185036461D01*
X286404580Y-185036461D02*
X286342676Y-185284080D01*
X286342676Y-185284080D02*
X286280771Y-185407890D01*
X286280771Y-185407890D02*
X286156961Y-185531700D01*
X286156961Y-185531700D02*
X285971247Y-185593604D01*
X285971247Y-185593604D02*
X285661723Y-185593604D01*
D10*
D11*
X200458026Y-193793328D02*
X200458026Y-192293328D01*
X200458026Y-192293328D02*
X200815169Y-192293328D01*
X200815169Y-192293328D02*
X201029455Y-192364757D01*
X201029455Y-192364757D02*
X201172312Y-192507614D01*
X201172312Y-192507614D02*
X201243741Y-192650471D01*
X201243741Y-192650471D02*
X201315169Y-192936185D01*
X201315169Y-192936185D02*
X201315169Y-193150471D01*
X201315169Y-193150471D02*
X201243741Y-193436185D01*
X201243741Y-193436185D02*
X201172312Y-193579042D01*
X201172312Y-193579042D02*
X201029455Y-193721900D01*
X201029455Y-193721900D02*
X200815169Y-193793328D01*
X200815169Y-193793328D02*
X200458026Y-193793328D01*
X202600884Y-193793328D02*
X202600884Y-193007614D01*
X202600884Y-193007614D02*
X202529455Y-192864757D01*
X202529455Y-192864757D02*
X202386598Y-192793328D01*
X202386598Y-192793328D02*
X202100884Y-192793328D01*
X202100884Y-192793328D02*
X201958026Y-192864757D01*
X202600884Y-193721900D02*
X202458026Y-193793328D01*
X202458026Y-193793328D02*
X202100884Y-193793328D01*
X202100884Y-193793328D02*
X201958026Y-193721900D01*
X201958026Y-193721900D02*
X201886598Y-193579042D01*
X201886598Y-193579042D02*
X201886598Y-193436185D01*
X201886598Y-193436185D02*
X201958026Y-193293328D01*
X201958026Y-193293328D02*
X202100884Y-193221900D01*
X202100884Y-193221900D02*
X202458026Y-193221900D01*
X202458026Y-193221900D02*
X202600884Y-193150471D01*
X203100884Y-192793328D02*
X203672312Y-192793328D01*
X203315169Y-192293328D02*
X203315169Y-193579042D01*
X203315169Y-193579042D02*
X203386598Y-193721900D01*
X203386598Y-193721900D02*
X203529455Y-193793328D01*
X203529455Y-193793328D02*
X203672312Y-193793328D01*
X204743741Y-193721900D02*
X204600884Y-193793328D01*
X204600884Y-193793328D02*
X204315170Y-193793328D01*
X204315170Y-193793328D02*
X204172312Y-193721900D01*
X204172312Y-193721900D02*
X204100884Y-193579042D01*
X204100884Y-193579042D02*
X204100884Y-193007614D01*
X204100884Y-193007614D02*
X204172312Y-192864757D01*
X204172312Y-192864757D02*
X204315170Y-192793328D01*
X204315170Y-192793328D02*
X204600884Y-192793328D01*
X204600884Y-192793328D02*
X204743741Y-192864757D01*
X204743741Y-192864757D02*
X204815170Y-193007614D01*
X204815170Y-193007614D02*
X204815170Y-193150471D01*
X204815170Y-193150471D02*
X204100884Y-193293328D01*
X205458026Y-193650471D02*
X205529455Y-193721900D01*
X205529455Y-193721900D02*
X205458026Y-193793328D01*
X205458026Y-193793328D02*
X205386598Y-193721900D01*
X205386598Y-193721900D02*
X205458026Y-193650471D01*
X205458026Y-193650471D02*
X205458026Y-193793328D01*
X205458026Y-192864757D02*
X205529455Y-192936185D01*
X205529455Y-192936185D02*
X205458026Y-193007614D01*
X205458026Y-193007614D02*
X205386598Y-192936185D01*
X205386598Y-192936185D02*
X205458026Y-192864757D01*
X205458026Y-192864757D02*
X205458026Y-193007614D01*
D10*
D11*
X177002200Y-194507200D02*
X285002200Y-194507200D01*
D10*
D11*
X178458026Y-196593328D02*
X178458026Y-195093328D01*
X179315169Y-196593328D02*
X178672312Y-195736185D01*
X179315169Y-195093328D02*
X178458026Y-195950471D01*
X179958026Y-196593328D02*
X179958026Y-195593328D01*
X179958026Y-195093328D02*
X179886598Y-195164757D01*
X179886598Y-195164757D02*
X179958026Y-195236185D01*
X179958026Y-195236185D02*
X180029455Y-195164757D01*
X180029455Y-195164757D02*
X179958026Y-195093328D01*
X179958026Y-195093328D02*
X179958026Y-195236185D01*
X181529455Y-196450471D02*
X181458027Y-196521900D01*
X181458027Y-196521900D02*
X181243741Y-196593328D01*
X181243741Y-196593328D02*
X181100884Y-196593328D01*
X181100884Y-196593328D02*
X180886598Y-196521900D01*
X180886598Y-196521900D02*
X180743741Y-196379042D01*
X180743741Y-196379042D02*
X180672312Y-196236185D01*
X180672312Y-196236185D02*
X180600884Y-195950471D01*
X180600884Y-195950471D02*
X180600884Y-195736185D01*
X180600884Y-195736185D02*
X180672312Y-195450471D01*
X180672312Y-195450471D02*
X180743741Y-195307614D01*
X180743741Y-195307614D02*
X180886598Y-195164757D01*
X180886598Y-195164757D02*
X181100884Y-195093328D01*
X181100884Y-195093328D02*
X181243741Y-195093328D01*
X181243741Y-195093328D02*
X181458027Y-195164757D01*
X181458027Y-195164757D02*
X181529455Y-195236185D01*
X182815170Y-196593328D02*
X182815170Y-195807614D01*
X182815170Y-195807614D02*
X182743741Y-195664757D01*
X182743741Y-195664757D02*
X182600884Y-195593328D01*
X182600884Y-195593328D02*
X182315170Y-195593328D01*
X182315170Y-195593328D02*
X182172312Y-195664757D01*
X182815170Y-196521900D02*
X182672312Y-196593328D01*
X182672312Y-196593328D02*
X182315170Y-196593328D01*
X182315170Y-196593328D02*
X182172312Y-196521900D01*
X182172312Y-196521900D02*
X182100884Y-196379042D01*
X182100884Y-196379042D02*
X182100884Y-196236185D01*
X182100884Y-196236185D02*
X182172312Y-196093328D01*
X182172312Y-196093328D02*
X182315170Y-196021900D01*
X182315170Y-196021900D02*
X182672312Y-196021900D01*
X182672312Y-196021900D02*
X182815170Y-195950471D01*
X184172313Y-196593328D02*
X184172313Y-195093328D01*
X184172313Y-196521900D02*
X184029455Y-196593328D01*
X184029455Y-196593328D02*
X183743741Y-196593328D01*
X183743741Y-196593328D02*
X183600884Y-196521900D01*
X183600884Y-196521900D02*
X183529455Y-196450471D01*
X183529455Y-196450471D02*
X183458027Y-196307614D01*
X183458027Y-196307614D02*
X183458027Y-195879042D01*
X183458027Y-195879042D02*
X183529455Y-195736185D01*
X183529455Y-195736185D02*
X183600884Y-195664757D01*
X183600884Y-195664757D02*
X183743741Y-195593328D01*
X183743741Y-195593328D02*
X184029455Y-195593328D01*
X184029455Y-195593328D02*
X184172313Y-195664757D01*
X186029455Y-195807614D02*
X186529455Y-195807614D01*
X186743741Y-196593328D02*
X186029455Y-196593328D01*
X186029455Y-196593328D02*
X186029455Y-195093328D01*
X186029455Y-195093328D02*
X186743741Y-195093328D01*
X187386598Y-196450471D02*
X187458027Y-196521900D01*
X187458027Y-196521900D02*
X187386598Y-196593328D01*
X187386598Y-196593328D02*
X187315170Y-196521900D01*
X187315170Y-196521900D02*
X187386598Y-196450471D01*
X187386598Y-196450471D02*
X187386598Y-196593328D01*
X188100884Y-196593328D02*
X188100884Y-195093328D01*
X188100884Y-195093328D02*
X188458027Y-195093328D01*
X188458027Y-195093328D02*
X188672313Y-195164757D01*
X188672313Y-195164757D02*
X188815170Y-195307614D01*
X188815170Y-195307614D02*
X188886599Y-195450471D01*
X188886599Y-195450471D02*
X188958027Y-195736185D01*
X188958027Y-195736185D02*
X188958027Y-195950471D01*
X188958027Y-195950471D02*
X188886599Y-196236185D01*
X188886599Y-196236185D02*
X188815170Y-196379042D01*
X188815170Y-196379042D02*
X188672313Y-196521900D01*
X188672313Y-196521900D02*
X188458027Y-196593328D01*
X188458027Y-196593328D02*
X188100884Y-196593328D01*
X189600884Y-196450471D02*
X189672313Y-196521900D01*
X189672313Y-196521900D02*
X189600884Y-196593328D01*
X189600884Y-196593328D02*
X189529456Y-196521900D01*
X189529456Y-196521900D02*
X189600884Y-196450471D01*
X189600884Y-196450471D02*
X189600884Y-196593328D01*
X190243742Y-196164757D02*
X190958028Y-196164757D01*
X190100885Y-196593328D02*
X190600885Y-195093328D01*
X190600885Y-195093328D02*
X191100885Y-196593328D01*
X191600884Y-196450471D02*
X191672313Y-196521900D01*
X191672313Y-196521900D02*
X191600884Y-196593328D01*
X191600884Y-196593328D02*
X191529456Y-196521900D01*
X191529456Y-196521900D02*
X191600884Y-196450471D01*
X191600884Y-196450471D02*
X191600884Y-196593328D01*
X193672313Y-195736185D02*
X193529456Y-195664757D01*
X193529456Y-195664757D02*
X193458027Y-195593328D01*
X193458027Y-195593328D02*
X193386599Y-195450471D01*
X193386599Y-195450471D02*
X193386599Y-195379042D01*
X193386599Y-195379042D02*
X193458027Y-195236185D01*
X193458027Y-195236185D02*
X193529456Y-195164757D01*
X193529456Y-195164757D02*
X193672313Y-195093328D01*
X193672313Y-195093328D02*
X193958027Y-195093328D01*
X193958027Y-195093328D02*
X194100885Y-195164757D01*
X194100885Y-195164757D02*
X194172313Y-195236185D01*
X194172313Y-195236185D02*
X194243742Y-195379042D01*
X194243742Y-195379042D02*
X194243742Y-195450471D01*
X194243742Y-195450471D02*
X194172313Y-195593328D01*
X194172313Y-195593328D02*
X194100885Y-195664757D01*
X194100885Y-195664757D02*
X193958027Y-195736185D01*
X193958027Y-195736185D02*
X193672313Y-195736185D01*
X193672313Y-195736185D02*
X193529456Y-195807614D01*
X193529456Y-195807614D02*
X193458027Y-195879042D01*
X193458027Y-195879042D02*
X193386599Y-196021900D01*
X193386599Y-196021900D02*
X193386599Y-196307614D01*
X193386599Y-196307614D02*
X193458027Y-196450471D01*
X193458027Y-196450471D02*
X193529456Y-196521900D01*
X193529456Y-196521900D02*
X193672313Y-196593328D01*
X193672313Y-196593328D02*
X193958027Y-196593328D01*
X193958027Y-196593328D02*
X194100885Y-196521900D01*
X194100885Y-196521900D02*
X194172313Y-196450471D01*
X194172313Y-196450471D02*
X194243742Y-196307614D01*
X194243742Y-196307614D02*
X194243742Y-196021900D01*
X194243742Y-196021900D02*
X194172313Y-195879042D01*
X194172313Y-195879042D02*
X194100885Y-195807614D01*
X194100885Y-195807614D02*
X193958027Y-195736185D01*
X194886598Y-196450471D02*
X194958027Y-196521900D01*
X194958027Y-196521900D02*
X194886598Y-196593328D01*
X194886598Y-196593328D02*
X194815170Y-196521900D01*
X194815170Y-196521900D02*
X194886598Y-196450471D01*
X194886598Y-196450471D02*
X194886598Y-196593328D01*
X195886599Y-195093328D02*
X196029456Y-195093328D01*
X196029456Y-195093328D02*
X196172313Y-195164757D01*
X196172313Y-195164757D02*
X196243742Y-195236185D01*
X196243742Y-195236185D02*
X196315170Y-195379042D01*
X196315170Y-195379042D02*
X196386599Y-195664757D01*
X196386599Y-195664757D02*
X196386599Y-196021900D01*
X196386599Y-196021900D02*
X196315170Y-196307614D01*
X196315170Y-196307614D02*
X196243742Y-196450471D01*
X196243742Y-196450471D02*
X196172313Y-196521900D01*
X196172313Y-196521900D02*
X196029456Y-196593328D01*
X196029456Y-196593328D02*
X195886599Y-196593328D01*
X195886599Y-196593328D02*
X195743742Y-196521900D01*
X195743742Y-196521900D02*
X195672313Y-196450471D01*
X195672313Y-196450471D02*
X195600884Y-196307614D01*
X195600884Y-196307614D02*
X195529456Y-196021900D01*
X195529456Y-196021900D02*
X195529456Y-195664757D01*
X195529456Y-195664757D02*
X195600884Y-195379042D01*
X195600884Y-195379042D02*
X195672313Y-195236185D01*
X195672313Y-195236185D02*
X195743742Y-195164757D01*
X195743742Y-195164757D02*
X195886599Y-195093328D01*
X197029455Y-196450471D02*
X197100884Y-196521900D01*
X197100884Y-196521900D02*
X197029455Y-196593328D01*
X197029455Y-196593328D02*
X196958027Y-196521900D01*
X196958027Y-196521900D02*
X197029455Y-196450471D01*
X197029455Y-196450471D02*
X197029455Y-196593328D01*
X197672313Y-195236185D02*
X197743741Y-195164757D01*
X197743741Y-195164757D02*
X197886599Y-195093328D01*
X197886599Y-195093328D02*
X198243741Y-195093328D01*
X198243741Y-195093328D02*
X198386599Y-195164757D01*
X198386599Y-195164757D02*
X198458027Y-195236185D01*
X198458027Y-195236185D02*
X198529456Y-195379042D01*
X198529456Y-195379042D02*
X198529456Y-195521900D01*
X198529456Y-195521900D02*
X198458027Y-195736185D01*
X198458027Y-195736185D02*
X197600884Y-196593328D01*
X197600884Y-196593328D02*
X198529456Y-196593328D01*
D10*
D11*
X177002200Y-191507200D02*
X285002200Y-191507200D01*
D10*
D12*
X264413853Y-193785528D02*
X263913853Y-193071242D01*
X263556710Y-193785528D02*
X263556710Y-192285528D01*
X263556710Y-192285528D02*
X264128139Y-192285528D01*
X264128139Y-192285528D02*
X264270996Y-192356957D01*
X264270996Y-192356957D02*
X264342425Y-192428385D01*
X264342425Y-192428385D02*
X264413853Y-192571242D01*
X264413853Y-192571242D02*
X264413853Y-192785528D01*
X264413853Y-192785528D02*
X264342425Y-192928385D01*
X264342425Y-192928385D02*
X264270996Y-192999814D01*
X264270996Y-192999814D02*
X264128139Y-193071242D01*
X264128139Y-193071242D02*
X263556710Y-193071242D01*
X265628139Y-193714100D02*
X265485282Y-193785528D01*
X265485282Y-193785528D02*
X265199568Y-193785528D01*
X265199568Y-193785528D02*
X265056710Y-193714100D01*
X265056710Y-193714100D02*
X264985282Y-193571242D01*
X264985282Y-193571242D02*
X264985282Y-192999814D01*
X264985282Y-192999814D02*
X265056710Y-192856957D01*
X265056710Y-192856957D02*
X265199568Y-192785528D01*
X265199568Y-192785528D02*
X265485282Y-192785528D01*
X265485282Y-192785528D02*
X265628139Y-192856957D01*
X265628139Y-192856957D02*
X265699568Y-192999814D01*
X265699568Y-192999814D02*
X265699568Y-193142671D01*
X265699568Y-193142671D02*
X264985282Y-193285528D01*
X266199567Y-192785528D02*
X266556710Y-193785528D01*
X266556710Y-193785528D02*
X266913853Y-192785528D01*
X267485281Y-193642671D02*
X267556710Y-193714100D01*
X267556710Y-193714100D02*
X267485281Y-193785528D01*
X267485281Y-193785528D02*
X267413853Y-193714100D01*
X267413853Y-193714100D02*
X267485281Y-193642671D01*
X267485281Y-193642671D02*
X267485281Y-193785528D01*
X267485281Y-192856957D02*
X267556710Y-192928385D01*
X267556710Y-192928385D02*
X267485281Y-192999814D01*
X267485281Y-192999814D02*
X267413853Y-192928385D01*
X267413853Y-192928385D02*
X267485281Y-192856957D01*
X267485281Y-192856957D02*
X267485281Y-192999814D01*
D10*
D11*
X178386598Y-193721900D02*
X178600884Y-193793328D01*
X178600884Y-193793328D02*
X178958026Y-193793328D01*
X178958026Y-193793328D02*
X179100884Y-193721900D01*
X179100884Y-193721900D02*
X179172312Y-193650471D01*
X179172312Y-193650471D02*
X179243741Y-193507614D01*
X179243741Y-193507614D02*
X179243741Y-193364757D01*
X179243741Y-193364757D02*
X179172312Y-193221900D01*
X179172312Y-193221900D02*
X179100884Y-193150471D01*
X179100884Y-193150471D02*
X178958026Y-193079042D01*
X178958026Y-193079042D02*
X178672312Y-193007614D01*
X178672312Y-193007614D02*
X178529455Y-192936185D01*
X178529455Y-192936185D02*
X178458026Y-192864757D01*
X178458026Y-192864757D02*
X178386598Y-192721900D01*
X178386598Y-192721900D02*
X178386598Y-192579042D01*
X178386598Y-192579042D02*
X178458026Y-192436185D01*
X178458026Y-192436185D02*
X178529455Y-192364757D01*
X178529455Y-192364757D02*
X178672312Y-192293328D01*
X178672312Y-192293328D02*
X179029455Y-192293328D01*
X179029455Y-192293328D02*
X179243741Y-192364757D01*
X179886597Y-193793328D02*
X179886597Y-192793328D01*
X179886597Y-192293328D02*
X179815169Y-192364757D01*
X179815169Y-192364757D02*
X179886597Y-192436185D01*
X179886597Y-192436185D02*
X179958026Y-192364757D01*
X179958026Y-192364757D02*
X179886597Y-192293328D01*
X179886597Y-192293328D02*
X179886597Y-192436185D01*
X180458026Y-192793328D02*
X181243741Y-192793328D01*
X181243741Y-192793328D02*
X180458026Y-193793328D01*
X180458026Y-193793328D02*
X181243741Y-193793328D01*
X182386598Y-193721900D02*
X182243741Y-193793328D01*
X182243741Y-193793328D02*
X181958027Y-193793328D01*
X181958027Y-193793328D02*
X181815169Y-193721900D01*
X181815169Y-193721900D02*
X181743741Y-193579042D01*
X181743741Y-193579042D02*
X181743741Y-193007614D01*
X181743741Y-193007614D02*
X181815169Y-192864757D01*
X181815169Y-192864757D02*
X181958027Y-192793328D01*
X181958027Y-192793328D02*
X182243741Y-192793328D01*
X182243741Y-192793328D02*
X182386598Y-192864757D01*
X182386598Y-192864757D02*
X182458027Y-193007614D01*
X182458027Y-193007614D02*
X182458027Y-193150471D01*
X182458027Y-193150471D02*
X181743741Y-193293328D01*
X183100883Y-193650471D02*
X183172312Y-193721900D01*
X183172312Y-193721900D02*
X183100883Y-193793328D01*
X183100883Y-193793328D02*
X183029455Y-193721900D01*
X183029455Y-193721900D02*
X183100883Y-193650471D01*
X183100883Y-193650471D02*
X183100883Y-193793328D01*
X183100883Y-192864757D02*
X183172312Y-192936185D01*
X183172312Y-192936185D02*
X183100883Y-193007614D01*
X183100883Y-193007614D02*
X183029455Y-192936185D01*
X183029455Y-192936185D02*
X183100883Y-192864757D01*
X183100883Y-192864757D02*
X183100883Y-193007614D01*
X184886598Y-193364757D02*
X185600884Y-193364757D01*
X184743741Y-193793328D02*
X185243741Y-192293328D01*
X185243741Y-192293328D02*
X185743741Y-193793328D01*
X186886598Y-192793328D02*
X186886598Y-193793328D01*
X186529455Y-192221900D02*
X186172312Y-193293328D01*
X186172312Y-193293328D02*
X187100883Y-193293328D01*
D10*
D11*
X263458026Y-196593328D02*
X263458026Y-195093328D01*
X264815170Y-196593328D02*
X264815170Y-195093328D01*
X264815170Y-196521900D02*
X264672312Y-196593328D01*
X264672312Y-196593328D02*
X264386598Y-196593328D01*
X264386598Y-196593328D02*
X264243741Y-196521900D01*
X264243741Y-196521900D02*
X264172312Y-196450471D01*
X264172312Y-196450471D02*
X264100884Y-196307614D01*
X264100884Y-196307614D02*
X264100884Y-195879042D01*
X264100884Y-195879042D02*
X264172312Y-195736185D01*
X264172312Y-195736185D02*
X264243741Y-195664757D01*
X264243741Y-195664757D02*
X264386598Y-195593328D01*
X264386598Y-195593328D02*
X264672312Y-195593328D01*
X264672312Y-195593328D02*
X264815170Y-195664757D01*
X265529455Y-196450471D02*
X265600884Y-196521900D01*
X265600884Y-196521900D02*
X265529455Y-196593328D01*
X265529455Y-196593328D02*
X265458027Y-196521900D01*
X265458027Y-196521900D02*
X265529455Y-196450471D01*
X265529455Y-196450471D02*
X265529455Y-196593328D01*
X265529455Y-195664757D02*
X265600884Y-195736185D01*
X265600884Y-195736185D02*
X265529455Y-195807614D01*
X265529455Y-195807614D02*
X265458027Y-195736185D01*
X265458027Y-195736185D02*
X265529455Y-195664757D01*
X265529455Y-195664757D02*
X265529455Y-195807614D01*
X268172313Y-196593328D02*
X267315170Y-196593328D01*
X267743741Y-196593328D02*
X267743741Y-195093328D01*
X267743741Y-195093328D02*
X267600884Y-195307614D01*
X267600884Y-195307614D02*
X267458027Y-195450471D01*
X267458027Y-195450471D02*
X267315170Y-195521900D01*
X269886598Y-195021900D02*
X268600884Y-196950471D01*
X271172313Y-196593328D02*
X270315170Y-196593328D01*
X270743741Y-196593328D02*
X270743741Y-195093328D01*
X270743741Y-195093328D02*
X270600884Y-195307614D01*
X270600884Y-195307614D02*
X270458027Y-195450471D01*
X270458027Y-195450471D02*
X270315170Y-195521900D01*
D10*
D11*
X177002200Y-187507200D02*
X285002200Y-187507200D01*
D10*
D13*
X178693928Y-188211638D02*
X179836785Y-188211638D01*
X179015357Y-190211638D02*
X179265357Y-188211638D01*
X180253452Y-190211638D02*
X180420119Y-188878304D01*
X180503452Y-188211638D02*
X180396309Y-188306876D01*
X180396309Y-188306876D02*
X180479643Y-188402114D01*
X180479643Y-188402114D02*
X180586786Y-188306876D01*
X180586786Y-188306876D02*
X180503452Y-188211638D01*
X180503452Y-188211638D02*
X180479643Y-188402114D01*
X181086786Y-188878304D02*
X181848690Y-188878304D01*
X181455833Y-188211638D02*
X181241548Y-189925923D01*
X181241548Y-189925923D02*
X181312976Y-190116400D01*
X181312976Y-190116400D02*
X181491548Y-190211638D01*
X181491548Y-190211638D02*
X181682024Y-190211638D01*
X182634405Y-190211638D02*
X182455833Y-190116400D01*
X182455833Y-190116400D02*
X182384405Y-189925923D01*
X182384405Y-189925923D02*
X182598690Y-188211638D01*
X184170119Y-190116400D02*
X183967738Y-190211638D01*
X183967738Y-190211638D02*
X183586785Y-190211638D01*
X183586785Y-190211638D02*
X183408214Y-190116400D01*
X183408214Y-190116400D02*
X183336785Y-189925923D01*
X183336785Y-189925923D02*
X183432024Y-189164019D01*
X183432024Y-189164019D02*
X183551071Y-188973542D01*
X183551071Y-188973542D02*
X183753452Y-188878304D01*
X183753452Y-188878304D02*
X184134404Y-188878304D01*
X184134404Y-188878304D02*
X184312976Y-188973542D01*
X184312976Y-188973542D02*
X184384404Y-189164019D01*
X184384404Y-189164019D02*
X184360595Y-189354495D01*
X184360595Y-189354495D02*
X183384404Y-189544971D01*
X185134405Y-190021161D02*
X185217738Y-190116400D01*
X185217738Y-190116400D02*
X185110595Y-190211638D01*
X185110595Y-190211638D02*
X185027262Y-190116400D01*
X185027262Y-190116400D02*
X185134405Y-190021161D01*
X185134405Y-190021161D02*
X185110595Y-190211638D01*
X185265357Y-188973542D02*
X185348690Y-189068780D01*
X185348690Y-189068780D02*
X185241548Y-189164019D01*
X185241548Y-189164019D02*
X185158214Y-189068780D01*
X185158214Y-189068780D02*
X185265357Y-188973542D01*
X185265357Y-188973542D02*
X185241548Y-189164019D01*
D10*
D11*
X178958026Y-185607614D02*
X178458026Y-185607614D01*
X178458026Y-186393328D02*
X178458026Y-184893328D01*
X178458026Y-184893328D02*
X179172312Y-184893328D01*
X179743740Y-186393328D02*
X179743740Y-185393328D01*
X179743740Y-184893328D02*
X179672312Y-184964757D01*
X179672312Y-184964757D02*
X179743740Y-185036185D01*
X179743740Y-185036185D02*
X179815169Y-184964757D01*
X179815169Y-184964757D02*
X179743740Y-184893328D01*
X179743740Y-184893328D02*
X179743740Y-185036185D01*
X180672312Y-186393328D02*
X180529455Y-186321900D01*
X180529455Y-186321900D02*
X180458026Y-186179042D01*
X180458026Y-186179042D02*
X180458026Y-184893328D01*
X181815169Y-186321900D02*
X181672312Y-186393328D01*
X181672312Y-186393328D02*
X181386598Y-186393328D01*
X181386598Y-186393328D02*
X181243740Y-186321900D01*
X181243740Y-186321900D02*
X181172312Y-186179042D01*
X181172312Y-186179042D02*
X181172312Y-185607614D01*
X181172312Y-185607614D02*
X181243740Y-185464757D01*
X181243740Y-185464757D02*
X181386598Y-185393328D01*
X181386598Y-185393328D02*
X181672312Y-185393328D01*
X181672312Y-185393328D02*
X181815169Y-185464757D01*
X181815169Y-185464757D02*
X181886598Y-185607614D01*
X181886598Y-185607614D02*
X181886598Y-185750471D01*
X181886598Y-185750471D02*
X181172312Y-185893328D01*
X182529454Y-186250471D02*
X182600883Y-186321900D01*
X182600883Y-186321900D02*
X182529454Y-186393328D01*
X182529454Y-186393328D02*
X182458026Y-186321900D01*
X182458026Y-186321900D02*
X182529454Y-186250471D01*
X182529454Y-186250471D02*
X182529454Y-186393328D01*
X182529454Y-185464757D02*
X182600883Y-185536185D01*
X182600883Y-185536185D02*
X182529454Y-185607614D01*
X182529454Y-185607614D02*
X182458026Y-185536185D01*
X182458026Y-185536185D02*
X182529454Y-185464757D01*
X182529454Y-185464757D02*
X182529454Y-185607614D01*
X185029455Y-185393328D02*
X185029455Y-186393328D01*
X184386597Y-185393328D02*
X184386597Y-186179042D01*
X184386597Y-186179042D02*
X184458026Y-186321900D01*
X184458026Y-186321900D02*
X184600883Y-186393328D01*
X184600883Y-186393328D02*
X184815169Y-186393328D01*
X184815169Y-186393328D02*
X184958026Y-186321900D01*
X184958026Y-186321900D02*
X185029455Y-186250471D01*
X185743740Y-185393328D02*
X185743740Y-186393328D01*
X185743740Y-185536185D02*
X185815169Y-185464757D01*
X185815169Y-185464757D02*
X185958026Y-185393328D01*
X185958026Y-185393328D02*
X186172312Y-185393328D01*
X186172312Y-185393328D02*
X186315169Y-185464757D01*
X186315169Y-185464757D02*
X186386598Y-185607614D01*
X186386598Y-185607614D02*
X186386598Y-186393328D01*
X187100883Y-186393328D02*
X187100883Y-185393328D01*
X187100883Y-184893328D02*
X187029455Y-184964757D01*
X187029455Y-184964757D02*
X187100883Y-185036185D01*
X187100883Y-185036185D02*
X187172312Y-184964757D01*
X187172312Y-184964757D02*
X187100883Y-184893328D01*
X187100883Y-184893328D02*
X187100883Y-185036185D01*
X187672312Y-185393328D02*
X188029455Y-186393328D01*
X188029455Y-186393328D02*
X188386598Y-185393328D01*
X189529455Y-186321900D02*
X189386598Y-186393328D01*
X189386598Y-186393328D02*
X189100884Y-186393328D01*
X189100884Y-186393328D02*
X188958026Y-186321900D01*
X188958026Y-186321900D02*
X188886598Y-186179042D01*
X188886598Y-186179042D02*
X188886598Y-185607614D01*
X188886598Y-185607614D02*
X188958026Y-185464757D01*
X188958026Y-185464757D02*
X189100884Y-185393328D01*
X189100884Y-185393328D02*
X189386598Y-185393328D01*
X189386598Y-185393328D02*
X189529455Y-185464757D01*
X189529455Y-185464757D02*
X189600884Y-185607614D01*
X189600884Y-185607614D02*
X189600884Y-185750471D01*
X189600884Y-185750471D02*
X188886598Y-185893328D01*
X190243740Y-186393328D02*
X190243740Y-185393328D01*
X190243740Y-185679042D02*
X190315169Y-185536185D01*
X190315169Y-185536185D02*
X190386598Y-185464757D01*
X190386598Y-185464757D02*
X190529455Y-185393328D01*
X190529455Y-185393328D02*
X190672312Y-185393328D01*
X191100883Y-186321900D02*
X191243740Y-186393328D01*
X191243740Y-186393328D02*
X191529454Y-186393328D01*
X191529454Y-186393328D02*
X191672311Y-186321900D01*
X191672311Y-186321900D02*
X191743740Y-186179042D01*
X191743740Y-186179042D02*
X191743740Y-186107614D01*
X191743740Y-186107614D02*
X191672311Y-185964757D01*
X191672311Y-185964757D02*
X191529454Y-185893328D01*
X191529454Y-185893328D02*
X191315169Y-185893328D01*
X191315169Y-185893328D02*
X191172311Y-185821900D01*
X191172311Y-185821900D02*
X191100883Y-185679042D01*
X191100883Y-185679042D02*
X191100883Y-185607614D01*
X191100883Y-185607614D02*
X191172311Y-185464757D01*
X191172311Y-185464757D02*
X191315169Y-185393328D01*
X191315169Y-185393328D02*
X191529454Y-185393328D01*
X191529454Y-185393328D02*
X191672311Y-185464757D01*
X193029455Y-186393328D02*
X193029455Y-185607614D01*
X193029455Y-185607614D02*
X192958026Y-185464757D01*
X192958026Y-185464757D02*
X192815169Y-185393328D01*
X192815169Y-185393328D02*
X192529455Y-185393328D01*
X192529455Y-185393328D02*
X192386597Y-185464757D01*
X193029455Y-186321900D02*
X192886597Y-186393328D01*
X192886597Y-186393328D02*
X192529455Y-186393328D01*
X192529455Y-186393328D02*
X192386597Y-186321900D01*
X192386597Y-186321900D02*
X192315169Y-186179042D01*
X192315169Y-186179042D02*
X192315169Y-186036185D01*
X192315169Y-186036185D02*
X192386597Y-185893328D01*
X192386597Y-185893328D02*
X192529455Y-185821900D01*
X192529455Y-185821900D02*
X192886597Y-185821900D01*
X192886597Y-185821900D02*
X193029455Y-185750471D01*
X193958026Y-186393328D02*
X193815169Y-186321900D01*
X193815169Y-186321900D02*
X193743740Y-186179042D01*
X193743740Y-186179042D02*
X193743740Y-184893328D01*
X195386597Y-186250471D02*
X195315169Y-186321900D01*
X195315169Y-186321900D02*
X195100883Y-186393328D01*
X195100883Y-186393328D02*
X194958026Y-186393328D01*
X194958026Y-186393328D02*
X194743740Y-186321900D01*
X194743740Y-186321900D02*
X194600883Y-186179042D01*
X194600883Y-186179042D02*
X194529454Y-186036185D01*
X194529454Y-186036185D02*
X194458026Y-185750471D01*
X194458026Y-185750471D02*
X194458026Y-185536185D01*
X194458026Y-185536185D02*
X194529454Y-185250471D01*
X194529454Y-185250471D02*
X194600883Y-185107614D01*
X194600883Y-185107614D02*
X194743740Y-184964757D01*
X194743740Y-184964757D02*
X194958026Y-184893328D01*
X194958026Y-184893328D02*
X195100883Y-184893328D01*
X195100883Y-184893328D02*
X195315169Y-184964757D01*
X195315169Y-184964757D02*
X195386597Y-185036185D01*
X196243740Y-186393328D02*
X196100883Y-186321900D01*
X196100883Y-186321900D02*
X196029454Y-186250471D01*
X196029454Y-186250471D02*
X195958026Y-186107614D01*
X195958026Y-186107614D02*
X195958026Y-185679042D01*
X195958026Y-185679042D02*
X196029454Y-185536185D01*
X196029454Y-185536185D02*
X196100883Y-185464757D01*
X196100883Y-185464757D02*
X196243740Y-185393328D01*
X196243740Y-185393328D02*
X196458026Y-185393328D01*
X196458026Y-185393328D02*
X196600883Y-185464757D01*
X196600883Y-185464757D02*
X196672312Y-185536185D01*
X196672312Y-185536185D02*
X196743740Y-185679042D01*
X196743740Y-185679042D02*
X196743740Y-186107614D01*
X196743740Y-186107614D02*
X196672312Y-186250471D01*
X196672312Y-186250471D02*
X196600883Y-186321900D01*
X196600883Y-186321900D02*
X196458026Y-186393328D01*
X196458026Y-186393328D02*
X196243740Y-186393328D01*
X197386597Y-185393328D02*
X197386597Y-186393328D01*
X197386597Y-185536185D02*
X197458026Y-185464757D01*
X197458026Y-185464757D02*
X197600883Y-185393328D01*
X197600883Y-185393328D02*
X197815169Y-185393328D01*
X197815169Y-185393328D02*
X197958026Y-185464757D01*
X197958026Y-185464757D02*
X198029455Y-185607614D01*
X198029455Y-185607614D02*
X198029455Y-186393328D01*
X198743740Y-185393328D02*
X198743740Y-186393328D01*
X198743740Y-185536185D02*
X198815169Y-185464757D01*
X198815169Y-185464757D02*
X198958026Y-185393328D01*
X198958026Y-185393328D02*
X199172312Y-185393328D01*
X199172312Y-185393328D02*
X199315169Y-185464757D01*
X199315169Y-185464757D02*
X199386598Y-185607614D01*
X199386598Y-185607614D02*
X199386598Y-186393328D01*
X200672312Y-186321900D02*
X200529455Y-186393328D01*
X200529455Y-186393328D02*
X200243741Y-186393328D01*
X200243741Y-186393328D02*
X200100883Y-186321900D01*
X200100883Y-186321900D02*
X200029455Y-186179042D01*
X200029455Y-186179042D02*
X200029455Y-185607614D01*
X200029455Y-185607614D02*
X200100883Y-185464757D01*
X200100883Y-185464757D02*
X200243741Y-185393328D01*
X200243741Y-185393328D02*
X200529455Y-185393328D01*
X200529455Y-185393328D02*
X200672312Y-185464757D01*
X200672312Y-185464757D02*
X200743741Y-185607614D01*
X200743741Y-185607614D02*
X200743741Y-185750471D01*
X200743741Y-185750471D02*
X200029455Y-185893328D01*
X202029455Y-186321900D02*
X201886597Y-186393328D01*
X201886597Y-186393328D02*
X201600883Y-186393328D01*
X201600883Y-186393328D02*
X201458026Y-186321900D01*
X201458026Y-186321900D02*
X201386597Y-186250471D01*
X201386597Y-186250471D02*
X201315169Y-186107614D01*
X201315169Y-186107614D02*
X201315169Y-185679042D01*
X201315169Y-185679042D02*
X201386597Y-185536185D01*
X201386597Y-185536185D02*
X201458026Y-185464757D01*
X201458026Y-185464757D02*
X201600883Y-185393328D01*
X201600883Y-185393328D02*
X201886597Y-185393328D01*
X201886597Y-185393328D02*
X202029455Y-185464757D01*
X202458026Y-185393328D02*
X203029454Y-185393328D01*
X202672311Y-184893328D02*
X202672311Y-186179042D01*
X202672311Y-186179042D02*
X202743740Y-186321900D01*
X202743740Y-186321900D02*
X202886597Y-186393328D01*
X202886597Y-186393328D02*
X203029454Y-186393328D01*
X203743740Y-186393328D02*
X203600883Y-186321900D01*
X203600883Y-186321900D02*
X203529454Y-186250471D01*
X203529454Y-186250471D02*
X203458026Y-186107614D01*
X203458026Y-186107614D02*
X203458026Y-185679042D01*
X203458026Y-185679042D02*
X203529454Y-185536185D01*
X203529454Y-185536185D02*
X203600883Y-185464757D01*
X203600883Y-185464757D02*
X203743740Y-185393328D01*
X203743740Y-185393328D02*
X203958026Y-185393328D01*
X203958026Y-185393328D02*
X204100883Y-185464757D01*
X204100883Y-185464757D02*
X204172312Y-185536185D01*
X204172312Y-185536185D02*
X204243740Y-185679042D01*
X204243740Y-185679042D02*
X204243740Y-186107614D01*
X204243740Y-186107614D02*
X204172312Y-186250471D01*
X204172312Y-186250471D02*
X204100883Y-186321900D01*
X204100883Y-186321900D02*
X203958026Y-186393328D01*
X203958026Y-186393328D02*
X203743740Y-186393328D01*
X204886597Y-186393328D02*
X204886597Y-185393328D01*
X204886597Y-185679042D02*
X204958026Y-185536185D01*
X204958026Y-185536185D02*
X205029455Y-185464757D01*
X205029455Y-185464757D02*
X205172312Y-185393328D01*
X205172312Y-185393328D02*
X205315169Y-185393328D01*
X206315168Y-185607614D02*
X206529454Y-185679042D01*
X206529454Y-185679042D02*
X206600883Y-185750471D01*
X206600883Y-185750471D02*
X206672311Y-185893328D01*
X206672311Y-185893328D02*
X206672311Y-186107614D01*
X206672311Y-186107614D02*
X206600883Y-186250471D01*
X206600883Y-186250471D02*
X206529454Y-186321900D01*
X206529454Y-186321900D02*
X206386597Y-186393328D01*
X206386597Y-186393328D02*
X205815168Y-186393328D01*
X205815168Y-186393328D02*
X205815168Y-184893328D01*
X205815168Y-184893328D02*
X206315168Y-184893328D01*
X206315168Y-184893328D02*
X206458026Y-184964757D01*
X206458026Y-184964757D02*
X206529454Y-185036185D01*
X206529454Y-185036185D02*
X206600883Y-185179042D01*
X206600883Y-185179042D02*
X206600883Y-185321900D01*
X206600883Y-185321900D02*
X206529454Y-185464757D01*
X206529454Y-185464757D02*
X206458026Y-185536185D01*
X206458026Y-185536185D02*
X206315168Y-185607614D01*
X206315168Y-185607614D02*
X205815168Y-185607614D01*
X207529454Y-186393328D02*
X207386597Y-186321900D01*
X207386597Y-186321900D02*
X207315168Y-186250471D01*
X207315168Y-186250471D02*
X207243740Y-186107614D01*
X207243740Y-186107614D02*
X207243740Y-185679042D01*
X207243740Y-185679042D02*
X207315168Y-185536185D01*
X207315168Y-185536185D02*
X207386597Y-185464757D01*
X207386597Y-185464757D02*
X207529454Y-185393328D01*
X207529454Y-185393328D02*
X207743740Y-185393328D01*
X207743740Y-185393328D02*
X207886597Y-185464757D01*
X207886597Y-185464757D02*
X207958026Y-185536185D01*
X207958026Y-185536185D02*
X208029454Y-185679042D01*
X208029454Y-185679042D02*
X208029454Y-186107614D01*
X208029454Y-186107614D02*
X207958026Y-186250471D01*
X207958026Y-186250471D02*
X207886597Y-186321900D01*
X207886597Y-186321900D02*
X207743740Y-186393328D01*
X207743740Y-186393328D02*
X207529454Y-186393328D01*
X209315169Y-186393328D02*
X209315169Y-185607614D01*
X209315169Y-185607614D02*
X209243740Y-185464757D01*
X209243740Y-185464757D02*
X209100883Y-185393328D01*
X209100883Y-185393328D02*
X208815169Y-185393328D01*
X208815169Y-185393328D02*
X208672311Y-185464757D01*
X209315169Y-186321900D02*
X209172311Y-186393328D01*
X209172311Y-186393328D02*
X208815169Y-186393328D01*
X208815169Y-186393328D02*
X208672311Y-186321900D01*
X208672311Y-186321900D02*
X208600883Y-186179042D01*
X208600883Y-186179042D02*
X208600883Y-186036185D01*
X208600883Y-186036185D02*
X208672311Y-185893328D01*
X208672311Y-185893328D02*
X208815169Y-185821900D01*
X208815169Y-185821900D02*
X209172311Y-185821900D01*
X209172311Y-185821900D02*
X209315169Y-185750471D01*
X210029454Y-186393328D02*
X210029454Y-185393328D01*
X210029454Y-185679042D02*
X210100883Y-185536185D01*
X210100883Y-185536185D02*
X210172312Y-185464757D01*
X210172312Y-185464757D02*
X210315169Y-185393328D01*
X210315169Y-185393328D02*
X210458026Y-185393328D01*
X211600883Y-186393328D02*
X211600883Y-184893328D01*
X211600883Y-186321900D02*
X211458025Y-186393328D01*
X211458025Y-186393328D02*
X211172311Y-186393328D01*
X211172311Y-186393328D02*
X211029454Y-186321900D01*
X211029454Y-186321900D02*
X210958025Y-186250471D01*
X210958025Y-186250471D02*
X210886597Y-186107614D01*
X210886597Y-186107614D02*
X210886597Y-185679042D01*
X210886597Y-185679042D02*
X210958025Y-185536185D01*
X210958025Y-185536185D02*
X211029454Y-185464757D01*
X211029454Y-185464757D02*
X211172311Y-185393328D01*
X211172311Y-185393328D02*
X211458025Y-185393328D01*
X211458025Y-185393328D02*
X211600883Y-185464757D01*
X212315168Y-186250471D02*
X212386597Y-186321900D01*
X212386597Y-186321900D02*
X212315168Y-186393328D01*
X212315168Y-186393328D02*
X212243740Y-186321900D01*
X212243740Y-186321900D02*
X212315168Y-186250471D01*
X212315168Y-186250471D02*
X212315168Y-186393328D01*
X213029454Y-186393328D02*
X213029454Y-184893328D01*
X213172312Y-185821900D02*
X213600883Y-186393328D01*
X213600883Y-185393328D02*
X213029454Y-185964757D01*
X214243740Y-186393328D02*
X214243740Y-185393328D01*
X214243740Y-184893328D02*
X214172312Y-184964757D01*
X214172312Y-184964757D02*
X214243740Y-185036185D01*
X214243740Y-185036185D02*
X214315169Y-184964757D01*
X214315169Y-184964757D02*
X214243740Y-184893328D01*
X214243740Y-184893328D02*
X214243740Y-185036185D01*
X215600884Y-186321900D02*
X215458026Y-186393328D01*
X215458026Y-186393328D02*
X215172312Y-186393328D01*
X215172312Y-186393328D02*
X215029455Y-186321900D01*
X215029455Y-186321900D02*
X214958026Y-186250471D01*
X214958026Y-186250471D02*
X214886598Y-186107614D01*
X214886598Y-186107614D02*
X214886598Y-185679042D01*
X214886598Y-185679042D02*
X214958026Y-185536185D01*
X214958026Y-185536185D02*
X215029455Y-185464757D01*
X215029455Y-185464757D02*
X215172312Y-185393328D01*
X215172312Y-185393328D02*
X215458026Y-185393328D01*
X215458026Y-185393328D02*
X215600884Y-185464757D01*
X216886598Y-186393328D02*
X216886598Y-185607614D01*
X216886598Y-185607614D02*
X216815169Y-185464757D01*
X216815169Y-185464757D02*
X216672312Y-185393328D01*
X216672312Y-185393328D02*
X216386598Y-185393328D01*
X216386598Y-185393328D02*
X216243740Y-185464757D01*
X216886598Y-186321900D02*
X216743740Y-186393328D01*
X216743740Y-186393328D02*
X216386598Y-186393328D01*
X216386598Y-186393328D02*
X216243740Y-186321900D01*
X216243740Y-186321900D02*
X216172312Y-186179042D01*
X216172312Y-186179042D02*
X216172312Y-186036185D01*
X216172312Y-186036185D02*
X216243740Y-185893328D01*
X216243740Y-185893328D02*
X216386598Y-185821900D01*
X216386598Y-185821900D02*
X216743740Y-185821900D01*
X216743740Y-185821900D02*
X216886598Y-185750471D01*
X218243741Y-186393328D02*
X218243741Y-184893328D01*
X218243741Y-186321900D02*
X218100883Y-186393328D01*
X218100883Y-186393328D02*
X217815169Y-186393328D01*
X217815169Y-186393328D02*
X217672312Y-186321900D01*
X217672312Y-186321900D02*
X217600883Y-186250471D01*
X217600883Y-186250471D02*
X217529455Y-186107614D01*
X217529455Y-186107614D02*
X217529455Y-185679042D01*
X217529455Y-185679042D02*
X217600883Y-185536185D01*
X217600883Y-185536185D02*
X217672312Y-185464757D01*
X217672312Y-185464757D02*
X217815169Y-185393328D01*
X217815169Y-185393328D02*
X218100883Y-185393328D01*
X218100883Y-185393328D02*
X218243741Y-185464757D01*
X218600884Y-186536185D02*
X219743741Y-186536185D01*
X220100883Y-185393328D02*
X220100883Y-186893328D01*
X220100883Y-185464757D02*
X220243741Y-185393328D01*
X220243741Y-185393328D02*
X220529455Y-185393328D01*
X220529455Y-185393328D02*
X220672312Y-185464757D01*
X220672312Y-185464757D02*
X220743741Y-185536185D01*
X220743741Y-185536185D02*
X220815169Y-185679042D01*
X220815169Y-185679042D02*
X220815169Y-186107614D01*
X220815169Y-186107614D02*
X220743741Y-186250471D01*
X220743741Y-186250471D02*
X220672312Y-186321900D01*
X220672312Y-186321900D02*
X220529455Y-186393328D01*
X220529455Y-186393328D02*
X220243741Y-186393328D01*
X220243741Y-186393328D02*
X220100883Y-186321900D01*
X222100884Y-186321900D02*
X221958026Y-186393328D01*
X221958026Y-186393328D02*
X221672312Y-186393328D01*
X221672312Y-186393328D02*
X221529455Y-186321900D01*
X221529455Y-186321900D02*
X221458026Y-186250471D01*
X221458026Y-186250471D02*
X221386598Y-186107614D01*
X221386598Y-186107614D02*
X221386598Y-185679042D01*
X221386598Y-185679042D02*
X221458026Y-185536185D01*
X221458026Y-185536185D02*
X221529455Y-185464757D01*
X221529455Y-185464757D02*
X221672312Y-185393328D01*
X221672312Y-185393328D02*
X221958026Y-185393328D01*
X221958026Y-185393328D02*
X222100884Y-185464757D01*
X222743740Y-186393328D02*
X222743740Y-184893328D01*
X222743740Y-185464757D02*
X222886598Y-185393328D01*
X222886598Y-185393328D02*
X223172312Y-185393328D01*
X223172312Y-185393328D02*
X223315169Y-185464757D01*
X223315169Y-185464757D02*
X223386598Y-185536185D01*
X223386598Y-185536185D02*
X223458026Y-185679042D01*
X223458026Y-185679042D02*
X223458026Y-186107614D01*
X223458026Y-186107614D02*
X223386598Y-186250471D01*
X223386598Y-186250471D02*
X223315169Y-186321900D01*
X223315169Y-186321900D02*
X223172312Y-186393328D01*
X223172312Y-186393328D02*
X222886598Y-186393328D01*
X222886598Y-186393328D02*
X222743740Y-186321900D01*
D10*
D11*
X177002200Y-181507200D02*
X285002200Y-181507200D01*
D10*
D11*
X178386598Y-183621900D02*
X178600884Y-183693328D01*
X178600884Y-183693328D02*
X178958026Y-183693328D01*
X178958026Y-183693328D02*
X179100884Y-183621900D01*
X179100884Y-183621900D02*
X179172312Y-183550471D01*
X179172312Y-183550471D02*
X179243741Y-183407614D01*
X179243741Y-183407614D02*
X179243741Y-183264757D01*
X179243741Y-183264757D02*
X179172312Y-183121900D01*
X179172312Y-183121900D02*
X179100884Y-183050471D01*
X179100884Y-183050471D02*
X178958026Y-182979042D01*
X178958026Y-182979042D02*
X178672312Y-182907614D01*
X178672312Y-182907614D02*
X178529455Y-182836185D01*
X178529455Y-182836185D02*
X178458026Y-182764757D01*
X178458026Y-182764757D02*
X178386598Y-182621900D01*
X178386598Y-182621900D02*
X178386598Y-182479042D01*
X178386598Y-182479042D02*
X178458026Y-182336185D01*
X178458026Y-182336185D02*
X178529455Y-182264757D01*
X178529455Y-182264757D02*
X178672312Y-182193328D01*
X178672312Y-182193328D02*
X179029455Y-182193328D01*
X179029455Y-182193328D02*
X179243741Y-182264757D01*
X179886597Y-183693328D02*
X179886597Y-182193328D01*
X180529455Y-183693328D02*
X180529455Y-182907614D01*
X180529455Y-182907614D02*
X180458026Y-182764757D01*
X180458026Y-182764757D02*
X180315169Y-182693328D01*
X180315169Y-182693328D02*
X180100883Y-182693328D01*
X180100883Y-182693328D02*
X179958026Y-182764757D01*
X179958026Y-182764757D02*
X179886597Y-182836185D01*
X181815169Y-183621900D02*
X181672312Y-183693328D01*
X181672312Y-183693328D02*
X181386598Y-183693328D01*
X181386598Y-183693328D02*
X181243740Y-183621900D01*
X181243740Y-183621900D02*
X181172312Y-183479042D01*
X181172312Y-183479042D02*
X181172312Y-182907614D01*
X181172312Y-182907614D02*
X181243740Y-182764757D01*
X181243740Y-182764757D02*
X181386598Y-182693328D01*
X181386598Y-182693328D02*
X181672312Y-182693328D01*
X181672312Y-182693328D02*
X181815169Y-182764757D01*
X181815169Y-182764757D02*
X181886598Y-182907614D01*
X181886598Y-182907614D02*
X181886598Y-183050471D01*
X181886598Y-183050471D02*
X181172312Y-183193328D01*
X183100883Y-183621900D02*
X182958026Y-183693328D01*
X182958026Y-183693328D02*
X182672312Y-183693328D01*
X182672312Y-183693328D02*
X182529454Y-183621900D01*
X182529454Y-183621900D02*
X182458026Y-183479042D01*
X182458026Y-183479042D02*
X182458026Y-182907614D01*
X182458026Y-182907614D02*
X182529454Y-182764757D01*
X182529454Y-182764757D02*
X182672312Y-182693328D01*
X182672312Y-182693328D02*
X182958026Y-182693328D01*
X182958026Y-182693328D02*
X183100883Y-182764757D01*
X183100883Y-182764757D02*
X183172312Y-182907614D01*
X183172312Y-182907614D02*
X183172312Y-183050471D01*
X183172312Y-183050471D02*
X182458026Y-183193328D01*
X183600883Y-182693328D02*
X184172311Y-182693328D01*
X183815168Y-182193328D02*
X183815168Y-183479042D01*
X183815168Y-183479042D02*
X183886597Y-183621900D01*
X183886597Y-183621900D02*
X184029454Y-183693328D01*
X184029454Y-183693328D02*
X184172311Y-183693328D01*
X184672311Y-183550471D02*
X184743740Y-183621900D01*
X184743740Y-183621900D02*
X184672311Y-183693328D01*
X184672311Y-183693328D02*
X184600883Y-183621900D01*
X184600883Y-183621900D02*
X184672311Y-183550471D01*
X184672311Y-183550471D02*
X184672311Y-183693328D01*
X184672311Y-182764757D02*
X184743740Y-182836185D01*
X184743740Y-182836185D02*
X184672311Y-182907614D01*
X184672311Y-182907614D02*
X184600883Y-182836185D01*
X184600883Y-182836185D02*
X184672311Y-182764757D01*
X184672311Y-182764757D02*
X184672311Y-182907614D01*
D10*
D11*
X197002200Y-191507200D02*
X197002200Y-194507200D01*
D10*
D11*
X261002200Y-191507200D02*
X261002200Y-198007200D01*
D14*
X49022000Y-100584000D03*
X51562000Y-100584000D03*
D15*
X54102000Y-100584000D03*
D14*
X56642000Y-100584000D03*
X59182000Y-100584000D03*
X61722000Y-100584000D03*
X64262000Y-100584000D03*
D15*
X66802000Y-100584000D03*
D14*
X69342000Y-100584000D03*
X71882000Y-100584000D03*
X74422000Y-100584000D03*
X76962000Y-100584000D03*
D15*
X79502000Y-100584000D03*
D14*
X82042000Y-100584000D03*
X84582000Y-100584000D03*
X87122000Y-100584000D03*
X89662000Y-100584000D03*
D15*
X92202000Y-100584000D03*
D14*
X94742000Y-100584000D03*
X97282000Y-100584000D03*
X97282000Y-82804000D03*
X94742000Y-82804000D03*
D15*
X92202000Y-82804000D03*
D14*
X89662000Y-82804000D03*
X87122000Y-82804000D03*
X84582000Y-82804000D03*
X82042000Y-82804000D03*
D15*
X79502000Y-82804000D03*
D14*
X76962000Y-82804000D03*
X74422000Y-82804000D03*
X71882000Y-82804000D03*
X69342000Y-82804000D03*
D15*
X66802000Y-82804000D03*
D14*
X64262000Y-82804000D03*
X61722000Y-82804000D03*
X59182000Y-82804000D03*
X56642000Y-82804000D03*
D15*
X54102000Y-82804000D03*
D14*
X51562000Y-82804000D03*
X49022000Y-82804000D03*
X97052000Y-94234000D03*
D15*
X97052000Y-91694000D03*
D14*
X97052000Y-89154000D03*
D16*
X98171000Y-57785000D03*
X98171000Y-60325000D03*
X98171000Y-62865000D03*
D17*
X103552000Y-72638000D03*
D18*
X103552000Y-70098000D03*
X106092000Y-72638000D03*
X106092000Y-70098000D03*
X108632000Y-72638000D03*
X108632000Y-70098000D03*
X111172000Y-72638000D03*
X111172000Y-70098000D03*
X113712000Y-72638000D03*
X113712000Y-70098000D03*
X116252000Y-72638000D03*
X116252000Y-70098000D03*
X118792000Y-72638000D03*
X118792000Y-70098000D03*
X121332000Y-72638000D03*
X121332000Y-70098000D03*
X123872000Y-72638000D03*
X123872000Y-70098000D03*
X126412000Y-72638000D03*
X126412000Y-70098000D03*
X128952000Y-72638000D03*
X128952000Y-70098000D03*
X131492000Y-72638000D03*
X131492000Y-70098000D03*
X134032000Y-72638000D03*
X134032000Y-70098000D03*
X136572000Y-72638000D03*
X136572000Y-70098000D03*
X139112000Y-72638000D03*
X139112000Y-70098000D03*
X141652000Y-72638000D03*
X141652000Y-70098000D03*
X144192000Y-72638000D03*
X144192000Y-70098000D03*
X146732000Y-72638000D03*
X146732000Y-70098000D03*
X149272000Y-72638000D03*
X149272000Y-70098000D03*
X151812000Y-72638000D03*
X151812000Y-70098000D03*
D19*
X98682000Y-71368000D03*
X156682000Y-71368000D03*
X156682000Y-120368000D03*
X98682000Y-120368000D03*
D20*
X56896000Y-111873000D03*
D21*
X56896000Y-114373000D03*
X56896000Y-116873000D03*
X56896000Y-119373000D03*
X56896000Y-121873000D03*
X56896000Y-124373000D03*
X56896000Y-126873000D03*
D15*
X155194000Y-88900000D03*
D14*
X157734000Y-88900000D03*
X155194000Y-91440000D03*
X157734000Y-91440000D03*
X155194000Y-93980000D03*
X157734000Y-93980000D03*
X155194000Y-96520000D03*
X157734000Y-96520000D03*
D15*
X65024000Y-118491000D03*
D14*
X67564000Y-118491000D03*
X70104000Y-118491000D03*
D22*
X150007000Y-127614000D03*
D23*
X152507000Y-127614000D03*
D22*
X141371000Y-127614000D03*
D23*
X143871000Y-127614000D03*
D20*
X56790000Y-55746000D03*
D21*
X56790000Y-58246000D03*
X56790000Y-60746000D03*
X56790000Y-63246000D03*
X56790000Y-65746000D03*
X56790000Y-68246000D03*
X56790000Y-70746000D03*
D15*
X129540000Y-79756000D03*
D14*
X129540000Y-82296000D03*
X129540000Y-84836000D03*
D22*
X120924000Y-127614000D03*
D23*
X123424000Y-127614000D03*
D24*
X104454000Y-127614000D03*
D25*
X106954000Y-127614000D03*
X109454000Y-127614000D03*
X111954000Y-127614000D03*
D15*
X77804000Y-118491000D03*
D14*
X80344000Y-118491000D03*
X82884000Y-118491000D03*
D24*
X77470000Y-127614000D03*
D25*
X79970000Y-127614000D03*
X82470000Y-127614000D03*
D26*
X83312000Y-62230000D03*
D25*
X80812000Y-62230000D03*
X78312000Y-62230000D03*
X75812000Y-62230000D03*
X73312000Y-62230000D03*
X70812000Y-62230000D03*
X68312000Y-62230000D03*
X65812000Y-62230000D03*
D15*
X135001000Y-54864000D03*
D14*
X137541000Y-54864000D03*
D27*
X146410000Y-62450000D03*
X146410000Y-54830000D03*
X151410000Y-62450000D03*
X151410000Y-54830000D03*
X156410000Y-62450000D03*
X156410000Y-54830000D03*
D24*
X63747000Y-127508000D03*
D25*
X66247000Y-127508000D03*
X68747000Y-127508000D03*
X71247000Y-127508000D03*
D22*
X129560000Y-127614000D03*
D23*
X132060000Y-127614000D03*
D24*
X90865000Y-127614000D03*
D25*
X93365000Y-127614000D03*
X95865000Y-127614000D03*
X98365000Y-127614000D03*
D28*
X123952000Y-102362000D03*
D29*
X123952000Y-104902000D03*
X123952000Y-107442000D03*
X123952000Y-109982000D03*
X123952000Y-112522000D03*
X123952000Y-115062000D03*
X123952000Y-117602000D03*
X123952000Y-120142000D03*
X136652000Y-102362000D03*
X136652000Y-104902000D03*
X136652000Y-107442000D03*
X136652000Y-109982000D03*
X136652000Y-112522000D03*
X136652000Y-115062000D03*
X136652000Y-117602000D03*
X136652000Y-120142000D03*
X131572000Y-120142000D03*
X134112000Y-120142000D03*
D15*
X153425000Y-77825000D03*
D14*
X155965000Y-77825000D03*
X153425000Y-80365000D03*
X155965000Y-80365000D03*
X153425000Y-82905000D03*
X155965000Y-82905000D03*
D28*
X104140000Y-102108000D03*
D29*
X104140000Y-104648000D03*
X104140000Y-107188000D03*
X104140000Y-109728000D03*
X104140000Y-112268000D03*
X104140000Y-114808000D03*
X104140000Y-117348000D03*
X104140000Y-119888000D03*
X116840000Y-102108000D03*
X116840000Y-104648000D03*
X116840000Y-107188000D03*
X116840000Y-109728000D03*
X116840000Y-112268000D03*
X116840000Y-114808000D03*
X116840000Y-117348000D03*
X116840000Y-119888000D03*
X111760000Y-119888000D03*
X114300000Y-119888000D03*
D30*
X138176000Y-62611000D03*
X105537000Y-65278000D03*
X91821000Y-75438000D03*
X148875000Y-115000000D03*
X89281000Y-73279000D03*
X61775000Y-91700000D03*
X64900000Y-91525000D03*
X138176000Y-66040000D03*
X142240000Y-81407000D03*
X64897000Y-114681000D03*
X49403000Y-75311000D03*
X153924000Y-115189000D03*
X77216000Y-114681000D03*
X89027000Y-55626000D03*
D31*
X119450000Y-107000000D03*
X122425000Y-108550000D03*
X118850000Y-110150000D03*
X120050000Y-111875000D03*
X71725000Y-121075000D03*
X75050000Y-121550000D03*
X130825000Y-109825000D03*
X127600000Y-109600000D03*
X127300000Y-106700000D03*
X143675000Y-120400000D03*
X126950000Y-63975000D03*
X130175000Y-59225000D03*
X154075000Y-106800000D03*
X159375000Y-100750000D03*
X156825000Y-102050000D03*
X148600000Y-106550000D03*
X151100000Y-104675000D03*
X68199000Y-94361000D03*
X71325000Y-95800000D03*
X112875000Y-115350000D03*
X103775000Y-99625000D03*
X106765696Y-89191001D03*
X107825000Y-101900000D03*
X101650000Y-97200000D03*
X106350000Y-96950000D03*
X112425000Y-89925000D03*
X145725000Y-84575000D03*
X148325000Y-87200000D03*
X112200000Y-91525000D03*
X121000000Y-95825000D03*
X110527000Y-95550000D03*
X113350000Y-98400000D03*
X121075000Y-108992000D03*
X119850000Y-96650000D03*
X115825000Y-92000000D03*
X116100000Y-90075000D03*
X133325000Y-107200000D03*
X133375000Y-104700000D03*
X120396000Y-103632000D03*
X131475000Y-60825000D03*
X102550000Y-65150000D03*
X142175000Y-65200000D03*
X83425000Y-115300000D03*
X147701000Y-81788000D03*
X135001000Y-86741000D03*
X102275000Y-60950000D03*
X93750000Y-114300000D03*
X147701000Y-84963000D03*
X135475000Y-66800000D03*
X88646000Y-114173000D03*
X127762000Y-104902000D03*
X138775000Y-99224000D03*
X107315000Y-76275000D03*
X98925000Y-105700000D03*
X108712000Y-57785000D03*
X110350000Y-96800000D03*
X124206000Y-57658000D03*
X125950000Y-104775000D03*
X107315000Y-78613000D03*
X120725000Y-87925000D03*
X124714000Y-78359000D03*
X107315000Y-77470000D03*
X132400000Y-54975000D03*
X122301000Y-85090000D03*
X121802153Y-89027153D03*
X122216347Y-59233653D03*
X119700000Y-99859000D03*
X81788000Y-109982000D03*
X74295000Y-108204000D03*
X124079000Y-62267000D03*
X114950000Y-57850000D03*
X91948000Y-61849000D03*
X121125000Y-64000000D03*
X134366000Y-61849000D03*
X113284000Y-57912000D03*
X130250000Y-54900000D03*
X118872000Y-54991000D03*
X112125000Y-98375000D03*
X110236000Y-57785000D03*
X105600500Y-58483500D03*
X126475000Y-109975000D03*
X128200000Y-54900000D03*
X111760000Y-57912000D03*
X89150000Y-98775000D03*
X125730000Y-86360000D03*
X62738000Y-65913000D03*
X64262000Y-68453000D03*
X74930000Y-89154000D03*
X73406000Y-85598000D03*
X66421000Y-68453000D03*
X97225000Y-87525000D03*
X68600000Y-88375000D03*
X73725000Y-89275000D03*
X65475000Y-88050000D03*
X71591653Y-89108347D03*
X101800000Y-76275000D03*
X76137847Y-91387153D03*
X94175000Y-91244000D03*
X69200000Y-91375000D03*
X96750000Y-76125000D03*
X93725000Y-78025000D03*
X73950000Y-92700000D03*
X88224144Y-87610967D03*
X66050000Y-89050000D03*
X89925000Y-87525000D03*
X71350000Y-94575000D03*
X90575000Y-85525000D03*
X93025000Y-85300000D03*
X112268000Y-104648000D03*
X90932000Y-95631000D03*
X93472000Y-96393000D03*
X90927347Y-89276347D03*
X88011000Y-88683000D03*
X87757000Y-94742000D03*
X93059662Y-95481968D03*
X114801283Y-104504978D03*
X117987347Y-98837653D03*
X109950000Y-81150000D03*
X108745347Y-84920347D03*
X114039153Y-101710847D03*
X114050000Y-99275000D03*
X114825000Y-117825000D03*
X111225000Y-105000000D03*
X107175000Y-80775000D03*
X114300000Y-110490000D03*
X85125000Y-93300000D03*
X84836000Y-88646000D03*
X130974000Y-105918000D03*
X95250000Y-96647000D03*
X116550000Y-86775000D03*
X115725000Y-88225000D03*
X117450000Y-84675000D03*
X119275000Y-81850000D03*
X103150000Y-80625000D03*
X67850000Y-98150000D03*
X60225000Y-88175000D03*
X71050000Y-97650000D03*
X65650000Y-95000000D03*
X92202000Y-58928000D03*
X124079000Y-58801000D03*
X66875000Y-75311000D03*
X52578000Y-85725000D03*
X117025000Y-66525000D03*
X149425000Y-84875000D03*
X82042000Y-74295000D03*
X148550000Y-82725000D03*
X140775000Y-77175000D03*
X89154000Y-106553000D03*
X91821000Y-72898000D03*
X89281000Y-73279000D03*
X85471000Y-77470000D03*
X136850000Y-77375000D03*
X90805000Y-98298000D03*
X146525000Y-75450000D03*
X105664000Y-62103000D03*
X119715098Y-84646000D03*
X148082000Y-99949000D03*
X120480000Y-85945306D03*
X152075000Y-100965000D03*
X115462347Y-96387653D03*
X111850000Y-84300000D03*
X112000000Y-95900000D03*
X103087000Y-81775000D03*
X116850000Y-82175000D03*
X101125000Y-85550000D03*
X104394000Y-96266000D03*
X131826000Y-100838000D03*
X107823000Y-98552000D03*
X78105000Y-91821000D03*
X75946000Y-88646000D03*
X114808000Y-103505000D03*
X127762000Y-133096000D03*
X100203000Y-131191000D03*
X101600000Y-88519000D03*
X101600000Y-92202000D03*
X142240000Y-83439000D03*
X118872000Y-59309000D03*
X123571000Y-56388000D03*
D32*
X128143000Y-57962250D03*
X127889000Y-62941750D03*
D31*
X123698000Y-53721000D03*
X116967000Y-54864000D03*
X86487000Y-74930000D03*
X87757000Y-75819000D03*
X112268000Y-76454000D03*
X88302000Y-85344000D03*
X99350000Y-79050000D03*
X96520000Y-78740000D03*
X94107000Y-85725000D03*
X88302000Y-86614000D03*
X100330000Y-87503000D03*
X95313500Y-85915500D03*
X101660904Y-83763210D03*
X115570000Y-123063000D03*
X127381000Y-122682000D03*
X102235000Y-84582000D03*
X100203000Y-115316000D03*
X106426000Y-115189000D03*
X108966000Y-117221000D03*
X126619000Y-113030000D03*
X129921000Y-118237000D03*
X125607653Y-121924653D03*
X120269000Y-123190000D03*
X127254000Y-119253000D03*
X125222000Y-116459000D03*
X79936000Y-114808000D03*
X82129000Y-122936000D03*
X71247000Y-122809000D03*
X67082500Y-114808000D03*
X107823000Y-74676000D03*
X102425500Y-77914500D03*
X100076000Y-79883000D03*
X97409000Y-85471000D03*
X56495000Y-76261000D03*
X152275000Y-116750000D03*
X154950000Y-112975000D03*
X148850000Y-112750000D03*
X147325000Y-116625000D03*
X83693000Y-89027000D03*
X83947000Y-106172000D03*
X77470000Y-73660000D03*
X80391000Y-98679000D03*
X82042000Y-89027000D03*
X74930000Y-73660000D03*
X79375000Y-73279000D03*
X82025000Y-94025000D03*
X81915000Y-106934000D03*
X85979000Y-88646000D03*
X86350000Y-94025000D03*
X68072000Y-73914000D03*
X69596000Y-65913000D03*
X72263000Y-66421000D03*
X68199000Y-77978000D03*
X132850000Y-95475000D03*
X118300000Y-97100000D03*
X125025000Y-99475000D03*
X137275000Y-98225000D03*
X139025000Y-97200000D03*
D33*
X149753000Y-77978000D02*
X148950000Y-77175000D01*
X153272000Y-77978000D02*
X149753000Y-77978000D01*
X153425000Y-77825000D02*
X153272000Y-77978000D01*
X155965000Y-76209000D02*
X155965000Y-77825000D01*
X155206000Y-75450000D02*
X155965000Y-76209000D01*
X146525000Y-75450000D02*
X155206000Y-75450000D01*
X148950000Y-77175000D02*
X140775000Y-77175000D01*
X153272000Y-83058000D02*
X153425000Y-82905000D01*
X150876000Y-83058000D02*
X153272000Y-83058000D01*
X155965000Y-82905000D02*
X155965000Y-80365000D01*
X153425000Y-82905000D02*
X155965000Y-82905000D01*
X120875000Y-107000000D02*
X119450000Y-107000000D01*
X122425000Y-108550000D02*
X120875000Y-107000000D01*
X120050000Y-111350000D02*
X118850000Y-110150000D01*
X120050000Y-111875000D02*
X120050000Y-111350000D01*
X123225305Y-96650000D02*
X119850000Y-96650000D01*
X125750000Y-99174695D02*
X123225305Y-96650000D01*
X125750000Y-99225000D02*
X125750000Y-99174695D01*
X128487000Y-110063000D02*
X128487000Y-101962000D01*
X121075000Y-109500000D02*
X122825000Y-111250000D01*
X122825000Y-111250000D02*
X127300000Y-111250000D01*
X127300000Y-111250000D02*
X128487000Y-110063000D01*
X128487000Y-101962000D02*
X125750000Y-99225000D01*
X121075000Y-108992000D02*
X121075000Y-109500000D01*
X75050000Y-121550000D02*
X72200000Y-121550000D01*
X72200000Y-121550000D02*
X71725000Y-121075000D01*
X125672750Y-57387250D02*
X124804000Y-58256000D01*
X128381173Y-57387250D02*
X125672750Y-57387250D01*
X130250000Y-55518423D02*
X128381173Y-57387250D01*
X130250000Y-54900000D02*
X130250000Y-55518423D01*
X143675000Y-120600000D02*
X143675000Y-120400000D01*
X139150000Y-123325000D02*
X140950000Y-123325000D01*
X140950000Y-123325000D02*
X143675000Y-120600000D01*
X138400000Y-122575000D02*
X139150000Y-123325000D01*
X138400000Y-120250000D02*
X138400000Y-122575000D01*
X137731000Y-112968937D02*
X137098937Y-113601000D01*
X136205063Y-118681000D02*
X136831000Y-118681000D01*
X133760937Y-113601000D02*
X133760937Y-116236874D01*
X136831000Y-118681000D02*
X138400000Y-120250000D01*
X137731000Y-112075063D02*
X137731000Y-112968937D01*
X137098937Y-113601000D02*
X133760937Y-113601000D01*
X133760937Y-116236874D02*
X136205063Y-118681000D01*
X137098937Y-111443000D02*
X137731000Y-112075063D01*
X132443000Y-111443000D02*
X137098937Y-111443000D01*
X130825000Y-109825000D02*
X132443000Y-111443000D01*
X127300000Y-109300000D02*
X127600000Y-109600000D01*
X127300000Y-106700000D02*
X127300000Y-109300000D01*
X88773000Y-114300000D02*
X88646000Y-114173000D01*
X93750000Y-114300000D02*
X88773000Y-114300000D01*
X125242000Y-62267000D02*
X126950000Y-63975000D01*
X124079000Y-62267000D02*
X125242000Y-62267000D01*
X122346000Y-64000000D02*
X124079000Y-62267000D01*
X121125000Y-64000000D02*
X122346000Y-64000000D01*
X130175000Y-59181077D02*
X130175000Y-59225000D01*
X128381173Y-57387250D02*
X130175000Y-59181077D01*
X151100000Y-105675000D02*
X151100000Y-104675000D01*
X154075000Y-106800000D02*
X152225000Y-106800000D01*
X152225000Y-106800000D02*
X151100000Y-105675000D01*
X159375000Y-101600000D02*
X159375000Y-100750000D01*
X159025000Y-101950000D02*
X159375000Y-101600000D01*
X158925000Y-102050000D02*
X159025000Y-101950000D01*
X156825000Y-102050000D02*
X158925000Y-102050000D01*
X120495306Y-85945306D02*
X120480000Y-85945306D01*
X152075000Y-100965000D02*
X135515000Y-100965000D01*
X135515000Y-100965000D02*
X120495306Y-85945306D01*
X148875000Y-106275000D02*
X149500000Y-106275000D01*
X148600000Y-106550000D02*
X148875000Y-106275000D01*
X149500000Y-106275000D02*
X151100000Y-104675000D01*
X148850000Y-114975000D02*
X148850000Y-112750000D01*
X148875000Y-115075000D02*
X148875000Y-115000000D01*
X148875000Y-115000000D02*
X148850000Y-114975000D01*
X147325000Y-116625000D02*
X148875000Y-115075000D01*
X83425000Y-115300000D02*
X82520000Y-116205000D01*
X82520000Y-116205000D02*
X80090000Y-116205000D01*
X80090000Y-116205000D02*
X79923000Y-116372000D01*
X68199000Y-94361000D02*
X69638000Y-95800000D01*
X69638000Y-95800000D02*
X71325000Y-95800000D01*
X112875000Y-115350000D02*
X111150000Y-115350000D01*
X111150000Y-115350000D02*
X108625000Y-112825000D01*
X106925000Y-96375000D02*
X106925000Y-92425000D01*
X106925000Y-92425000D02*
X106925000Y-89350305D01*
X103775000Y-99325000D02*
X101650000Y-97200000D01*
X106350000Y-96950000D02*
X106925000Y-96375000D01*
X108625000Y-102500000D02*
X108025000Y-101900000D01*
X106925000Y-89350305D02*
X106765696Y-89191001D01*
X108025000Y-101900000D02*
X107825000Y-101900000D01*
X108625000Y-112825000D02*
X108625000Y-102500000D01*
X103775000Y-99625000D02*
X103775000Y-99325000D01*
X130350000Y-99075000D02*
X130350000Y-100387305D01*
X113400000Y-87500000D02*
X118775000Y-87500000D01*
X151800000Y-102400000D02*
X155194000Y-99006000D01*
X138850000Y-102400000D02*
X151800000Y-102400000D01*
X112425000Y-88475000D02*
X113400000Y-87500000D01*
X118775000Y-87500000D02*
X130350000Y-99075000D01*
X137809000Y-103441000D02*
X138850000Y-102400000D01*
X130350000Y-100387305D02*
X133403695Y-103441000D01*
X112425000Y-89925000D02*
X112425000Y-88475000D01*
X155194000Y-99006000D02*
X155194000Y-96520000D01*
X133403695Y-103441000D02*
X137809000Y-103441000D01*
X126455000Y-86059695D02*
X131997909Y-86059695D01*
X115953695Y-83921000D02*
X124316305Y-83921000D01*
X112099695Y-91525000D02*
X110525000Y-89950305D01*
X145625000Y-84675000D02*
X145725000Y-84575000D01*
X112200000Y-91525000D02*
X112099695Y-91525000D01*
X124316305Y-83921000D02*
X126455000Y-86059695D01*
X131997909Y-86059695D02*
X133382604Y-84675000D01*
X110525000Y-89950305D02*
X110525000Y-89349695D01*
X151200000Y-90075000D02*
X156559000Y-90075000D01*
X133382604Y-84675000D02*
X145625000Y-84675000D01*
X148325000Y-87200000D02*
X151200000Y-90075000D01*
X156559000Y-90075000D02*
X157734000Y-88900000D01*
X110525000Y-89349695D02*
X115953695Y-83921000D01*
X111977000Y-96975000D02*
X111977000Y-97027000D01*
X136652000Y-112522000D02*
X131209604Y-112522000D01*
X128937000Y-101637000D02*
X122562500Y-95262500D01*
X110552000Y-95550000D02*
X110527000Y-95550000D01*
X121000000Y-95825000D02*
X121562500Y-95262500D01*
X131209604Y-112522000D02*
X128937000Y-110249396D01*
X128937000Y-110249396D02*
X128937000Y-101637000D01*
X111977000Y-96975000D02*
X110552000Y-95550000D01*
X111977000Y-97027000D02*
X113350000Y-98400000D01*
X122562500Y-95262500D02*
X121562500Y-95262500D01*
X134012695Y-109982000D02*
X129387000Y-105356305D01*
X119936396Y-92000000D02*
X115825000Y-92000000D01*
X129387000Y-105356305D02*
X129387000Y-101450604D01*
X129387000Y-101450604D02*
X119936396Y-92000000D01*
X136652000Y-109982000D02*
X134012695Y-109982000D01*
X119325000Y-90075000D02*
X132691000Y-103441000D01*
X156369000Y-99672305D02*
X156369000Y-95345000D01*
X116100000Y-90075000D02*
X119325000Y-90075000D01*
X135827396Y-106363000D02*
X136716937Y-106363000D01*
X138400000Y-104675000D02*
X138400000Y-104000000D01*
X133325000Y-107200000D02*
X134990396Y-107200000D01*
X138959000Y-103441000D02*
X152600305Y-103441000D01*
X136716937Y-106363000D02*
X138400000Y-104679937D01*
X156369000Y-95345000D02*
X157734000Y-93980000D01*
X138400000Y-104000000D02*
X138959000Y-103441000D01*
X132691000Y-104016000D02*
X133375000Y-104700000D01*
X134990396Y-107200000D02*
X135827396Y-106363000D01*
X152600305Y-103441000D02*
X156369000Y-99672305D01*
X132691000Y-103441000D02*
X132691000Y-104016000D01*
X147701000Y-84963000D02*
X147193000Y-85471000D01*
X138176000Y-62611000D02*
X136336000Y-62611000D01*
X135001000Y-86741000D02*
X135636000Y-86106000D01*
X126492000Y-103632000D02*
X120396000Y-103632000D01*
X135636000Y-86106000D02*
X136398000Y-86106000D01*
X102550000Y-65150000D02*
X104650000Y-67250000D01*
X135025000Y-67250000D02*
X135475000Y-66800000D01*
X137575000Y-86267000D02*
X137414000Y-86106000D01*
X138049000Y-85471000D02*
X137414000Y-86106000D01*
X127762000Y-104902000D02*
X126492000Y-103632000D01*
X138337000Y-62450000D02*
X138176000Y-62611000D01*
X131500000Y-60800000D02*
X131475000Y-60825000D01*
X138775000Y-99224000D02*
X138775000Y-98125000D01*
X138775000Y-98125000D02*
X137575000Y-96925000D01*
X137414000Y-86106000D02*
X136398000Y-86106000D01*
X99110000Y-57785000D02*
X102275000Y-60950000D01*
X98171000Y-57785000D02*
X99110000Y-57785000D01*
X142175000Y-65200000D02*
X143660000Y-65200000D01*
X137575000Y-96925000D02*
X137575000Y-86267000D01*
X67079500Y-116435500D02*
X65024000Y-118491000D01*
X146410000Y-62450000D02*
X138337000Y-62450000D01*
X136336000Y-62611000D02*
X134525000Y-60800000D01*
X104650000Y-67250000D02*
X135025000Y-67250000D01*
X147193000Y-85471000D02*
X138049000Y-85471000D01*
X147701000Y-81788000D02*
X147701000Y-84963000D01*
X134525000Y-60800000D02*
X131500000Y-60800000D01*
X143660000Y-65200000D02*
X146410000Y-62450000D01*
X79923000Y-116372000D02*
X77804000Y-118491000D01*
X79859500Y-116435500D02*
X67079500Y-116435500D01*
X79923000Y-116372000D02*
X79859500Y-116435500D01*
X110785000Y-67945000D02*
X108632000Y-70098000D01*
X92202000Y-102477000D02*
X95675000Y-105950000D01*
X126475000Y-105300000D02*
X125950000Y-104775000D01*
X70812000Y-66856000D02*
X70812000Y-62230000D01*
X124714000Y-77343000D02*
X124714000Y-78359000D01*
X138176000Y-66040000D02*
X134366000Y-62230000D01*
X86868000Y-76708000D02*
X78994000Y-76708000D01*
X57636000Y-97050000D02*
X65800000Y-97050000D01*
X67183000Y-76708000D02*
X66929000Y-76708000D01*
X135485000Y-71185000D02*
X134032000Y-72638000D01*
X79756000Y-82804000D02*
X79883000Y-82677000D01*
X124804000Y-58256000D02*
X124206000Y-57658000D01*
X115316000Y-67945000D02*
X115165000Y-68096000D01*
X92202000Y-78232000D02*
X90678000Y-76708000D01*
X79502000Y-102997000D02*
X79438500Y-103060500D01*
X54102000Y-80518000D02*
X54102000Y-82804000D01*
X123952000Y-102362000D02*
X122203000Y-102362000D01*
X92202000Y-89662000D02*
X92202000Y-91452000D01*
X110350000Y-96800000D02*
X110550000Y-96800000D01*
X66929000Y-76708000D02*
X66443500Y-77193500D01*
X139112000Y-67230000D02*
X139112000Y-70098000D01*
X122301000Y-85090000D02*
X123571000Y-86360000D01*
X150359000Y-68579000D02*
X147820000Y-66040000D01*
X138176000Y-66294000D02*
X139112000Y-67230000D01*
X79502000Y-82804000D02*
X79502000Y-77216000D01*
X66802000Y-77089000D02*
X67183000Y-76708000D01*
X95675000Y-105950000D02*
X98675000Y-105950000D01*
X150876000Y-83058000D02*
X153670000Y-85852000D01*
X147820000Y-66040000D02*
X143637000Y-66040000D01*
X107151000Y-105119000D02*
X104140000Y-102108000D01*
X79438500Y-107632500D02*
X81788000Y-109982000D01*
X95871000Y-92875000D02*
X97052000Y-91694000D01*
X158909000Y-90265000D02*
X158909000Y-95345000D01*
X124333000Y-62103000D02*
X124804000Y-61632000D01*
X144192000Y-66722000D02*
X144192000Y-70098000D01*
X65525000Y-76275000D02*
X66443500Y-77193500D01*
X115165000Y-68096000D02*
X115165000Y-71185000D01*
X158909000Y-95345000D02*
X157734000Y-96520000D01*
X65913000Y-77724000D02*
X56896000Y-77724000D01*
X150359000Y-71185000D02*
X150359000Y-68579000D01*
X78994000Y-76708000D02*
X67183000Y-76708000D01*
X66802000Y-98375000D02*
X66802000Y-100584000D01*
X105292305Y-117348000D02*
X107151000Y-115489305D01*
X107315000Y-76275000D02*
X107315000Y-77470000D01*
X143637000Y-66040000D02*
X143637000Y-66167000D01*
X115165000Y-71185000D02*
X113712000Y-72638000D01*
X79502000Y-82804000D02*
X79756000Y-82804000D01*
X92202000Y-78486000D02*
X92202000Y-78232000D01*
X79438500Y-103060500D02*
X74295000Y-108204000D01*
X92202000Y-89662000D02*
X92202000Y-100584000D01*
X90551000Y-76708000D02*
X86868000Y-76708000D01*
X79438500Y-103060500D02*
X79438500Y-107632500D01*
X115316000Y-67945000D02*
X110785000Y-67945000D01*
X158909000Y-90265000D02*
X157734000Y-91440000D01*
X138176000Y-66040000D02*
X138176000Y-66294000D01*
X92202000Y-82804000D02*
X92202000Y-89662000D01*
X66247000Y-127508000D02*
X63747000Y-127508000D01*
X56896000Y-77724000D02*
X54102000Y-80518000D01*
X98675000Y-105950000D02*
X98925000Y-105700000D01*
X134366000Y-62230000D02*
X134366000Y-61849000D01*
X123792000Y-57658000D02*
X124206000Y-57658000D01*
X109295000Y-74295000D02*
X107315000Y-76275000D01*
X56790000Y-68246000D02*
X58013000Y-69469000D01*
X115369000Y-74295000D02*
X113712000Y-72638000D01*
X151410000Y-62450000D02*
X147820000Y-66040000D01*
X115369000Y-74295000D02*
X109295000Y-74295000D01*
X143637000Y-66167000D02*
X144192000Y-66722000D01*
X118999000Y-67945000D02*
X118999000Y-68199000D01*
X104140000Y-117348000D02*
X105292305Y-117348000D01*
X126873000Y-67945000D02*
X118999000Y-67945000D01*
X135485000Y-68604000D02*
X135485000Y-71185000D01*
X66802000Y-98052000D02*
X66802000Y-98375000D01*
X122203000Y-102362000D02*
X119700000Y-99859000D01*
X58013000Y-69469000D02*
X63775000Y-69469000D01*
X118618000Y-75057000D02*
X122428000Y-75057000D01*
X107151000Y-115489305D02*
X107151000Y-105119000D01*
X65800000Y-97050000D02*
X66802000Y-98052000D01*
X93625000Y-92875000D02*
X95871000Y-92875000D01*
X153670000Y-85852000D02*
X157861000Y-85852000D01*
X136144000Y-67945000D02*
X126873000Y-67945000D01*
X118792000Y-68406000D02*
X118792000Y-70098000D01*
X89398000Y-99023000D02*
X90641000Y-99023000D01*
X143637000Y-66040000D02*
X138176000Y-66040000D01*
X120725000Y-87925000D02*
X120725000Y-87950000D01*
X151812000Y-72638000D02*
X150359000Y-71185000D01*
X126475000Y-109975000D02*
X126475000Y-105300000D01*
X66802000Y-82804000D02*
X66802000Y-77089000D01*
X63775000Y-69469000D02*
X63775000Y-71700000D01*
X110363000Y-57912000D02*
X110236000Y-57785000D01*
X117856000Y-74295000D02*
X115369000Y-74295000D01*
X124079000Y-62267000D02*
X124243000Y-62103000D01*
X122428000Y-75057000D02*
X124714000Y-77343000D01*
X107315000Y-77470000D02*
X107315000Y-78613000D01*
X157861000Y-85852000D02*
X158909000Y-86900000D01*
X126412000Y-68406000D02*
X126873000Y-67945000D01*
X117856000Y-74295000D02*
X118618000Y-75057000D01*
X136271000Y-67945000D02*
X136144000Y-67945000D01*
X68199000Y-69469000D02*
X70812000Y-66856000D01*
X92202000Y-100584000D02*
X92202000Y-102477000D01*
X79502000Y-100584000D02*
X79502000Y-102997000D01*
X91821000Y-75438000D02*
X90551000Y-76708000D01*
X146558000Y-78740000D02*
X150876000Y-83058000D01*
X122216347Y-59233653D02*
X123792000Y-57658000D01*
X136144000Y-67945000D02*
X135485000Y-68604000D01*
X89150000Y-98775000D02*
X89398000Y-99023000D01*
X158909000Y-86900000D02*
X158909000Y-90265000D01*
X66443500Y-77193500D02*
X65913000Y-77724000D01*
X118999000Y-67945000D02*
X115316000Y-67945000D01*
X63775000Y-69469000D02*
X68199000Y-69469000D01*
X92202000Y-82804000D02*
X92202000Y-78486000D01*
X126412000Y-70098000D02*
X126412000Y-68406000D01*
X138176000Y-66040000D02*
X136271000Y-67945000D01*
X124243000Y-62103000D02*
X124333000Y-62103000D01*
X54102000Y-100584000D02*
X57636000Y-97050000D01*
X124804000Y-61632000D02*
X124804000Y-58256000D01*
X118999000Y-68199000D02*
X118792000Y-68406000D01*
X79502000Y-77216000D02*
X78994000Y-76708000D01*
X134032000Y-72638000D02*
X140134000Y-78740000D01*
X120725000Y-87950000D02*
X121802153Y-89027153D01*
X65525000Y-73450000D02*
X65525000Y-76275000D01*
X90641000Y-99023000D02*
X92202000Y-100584000D01*
X63775000Y-71700000D02*
X65525000Y-73450000D01*
X90678000Y-76708000D02*
X86868000Y-76708000D01*
X92202000Y-91452000D02*
X93625000Y-92875000D01*
X110550000Y-96800000D02*
X112125000Y-98375000D01*
X140134000Y-78740000D02*
X146558000Y-78740000D01*
X123571000Y-86360000D02*
X125730000Y-86360000D01*
X74930000Y-89154000D02*
X76962000Y-91186000D01*
X76962000Y-91186000D02*
X76962000Y-100584000D01*
X62738000Y-65913000D02*
X64262000Y-67437000D01*
X64262000Y-67437000D02*
X64262000Y-68453000D01*
X66421000Y-68453000D02*
X58714000Y-60746000D01*
X72375000Y-98537000D02*
X72375000Y-86629000D01*
X56896000Y-116873000D02*
X58133000Y-116873000D01*
X58133000Y-116873000D02*
X74422000Y-100584000D01*
X72375000Y-86629000D02*
X73406000Y-85598000D01*
X58714000Y-60746000D02*
X56790000Y-60746000D01*
X74422000Y-100584000D02*
X72375000Y-98537000D01*
X65425000Y-88050000D02*
X65475000Y-88050000D01*
X94975000Y-87525000D02*
X97225000Y-87525000D01*
X101800000Y-75871604D02*
X103946604Y-73725000D01*
X112625000Y-71185000D02*
X113712000Y-70098000D01*
X76137847Y-91387153D02*
X74424153Y-91387153D01*
X112625000Y-72722251D02*
X112625000Y-71185000D01*
X58000000Y-91700000D02*
X61775000Y-91700000D01*
X61775000Y-91700000D02*
X65425000Y-88050000D01*
X74424153Y-91387153D02*
X73725000Y-90688000D01*
X111622251Y-73725000D02*
X112625000Y-72722251D01*
X71591653Y-89108347D02*
X70858306Y-88375000D01*
X49022000Y-100584000D02*
X49116000Y-100584000D01*
X103946604Y-73725000D02*
X111622251Y-73725000D01*
X73725000Y-90688000D02*
X73725000Y-89275000D01*
X101800000Y-76275000D02*
X101800000Y-75871604D01*
X94175000Y-88325000D02*
X94200000Y-88300000D01*
X94175000Y-91244000D02*
X94175000Y-88325000D01*
X94200000Y-88300000D02*
X94975000Y-87525000D01*
X49116000Y-100584000D02*
X58000000Y-91700000D01*
X70858306Y-88375000D02*
X68600000Y-88375000D01*
X93377000Y-78373000D02*
X93377000Y-84948000D01*
X56071000Y-96075000D02*
X62250000Y-96075000D01*
X62375000Y-95950000D02*
X62375000Y-94050000D01*
X71350000Y-94575000D02*
X71350000Y-93525000D01*
X87938177Y-87325000D02*
X88224144Y-87610967D01*
X66050000Y-89050000D02*
X64900000Y-90200000D01*
X62375000Y-94050000D02*
X64900000Y-91525000D01*
X51562000Y-100584000D02*
X56071000Y-96075000D01*
X111172000Y-70098000D02*
X109719000Y-71551000D01*
X74150000Y-87300000D02*
X74175000Y-87325000D01*
X64900000Y-90200000D02*
X64900000Y-91525000D01*
X62250000Y-96075000D02*
X62375000Y-95950000D01*
X71350000Y-93525000D02*
X69200000Y-91375000D01*
X102465000Y-73725000D02*
X100065000Y-76125000D01*
X90575000Y-87075000D02*
X90025000Y-87625000D01*
X90575000Y-85525000D02*
X90575000Y-87075000D01*
X93377000Y-84948000D02*
X93025000Y-85300000D01*
X73000000Y-91750000D02*
X73950000Y-92700000D01*
X109719000Y-71551000D02*
X102465000Y-71551000D01*
X100065000Y-76125000D02*
X96750000Y-76125000D01*
X102465000Y-71551000D02*
X102465000Y-73725000D01*
X93725000Y-78025000D02*
X93377000Y-78373000D01*
X74175000Y-87325000D02*
X87938177Y-87325000D01*
X73000000Y-88450000D02*
X73000000Y-91750000D01*
X90025000Y-87625000D02*
X89925000Y-87525000D01*
X74150000Y-87300000D02*
X73000000Y-88450000D01*
X96107000Y-103346000D02*
X97155000Y-104394000D01*
X99695000Y-101092000D02*
X99758000Y-101029000D01*
X90927347Y-89276347D02*
X90043000Y-90160694D01*
X97155000Y-104394000D02*
X98298000Y-104394000D01*
X99758000Y-101029000D02*
X108649000Y-101029000D01*
X99695000Y-102997000D02*
X99695000Y-101092000D01*
X90043000Y-90160694D02*
X90043000Y-94742000D01*
X108649000Y-101029000D02*
X112268000Y-104648000D01*
X98298000Y-104394000D02*
X99695000Y-102997000D01*
X93472000Y-96393000D02*
X96107000Y-99028000D01*
X96107000Y-99028000D02*
X96107000Y-103346000D01*
X90043000Y-94742000D02*
X90932000Y-95631000D01*
X103394000Y-97700000D02*
X103886000Y-97700000D01*
X101175968Y-95481968D02*
X103394000Y-97700000D01*
X93059662Y-95481968D02*
X101175968Y-95481968D01*
X88011000Y-94488000D02*
X87757000Y-94742000D01*
X109184396Y-99277000D02*
X114412374Y-104504978D01*
X103886000Y-97700000D02*
X105463000Y-99277000D01*
X88011000Y-88683000D02*
X88011000Y-94488000D01*
X105463000Y-99277000D02*
X109184396Y-99277000D01*
X114412374Y-104504978D02*
X114801283Y-104504978D01*
X114225000Y-101675000D02*
X114189153Y-101710847D01*
X114050000Y-101500000D02*
X114225000Y-101675000D01*
X107550000Y-81150000D02*
X109950000Y-81150000D01*
X107175000Y-80775000D02*
X107550000Y-81150000D01*
X110075000Y-90425305D02*
X111899695Y-92250000D01*
X116200000Y-96100000D02*
X116200000Y-97050306D01*
X111899695Y-92250000D02*
X112350000Y-92250000D01*
X108745347Y-84920347D02*
X110075000Y-86250000D01*
X112350000Y-92250000D02*
X116200000Y-96100000D01*
X114050000Y-99275000D02*
X114050000Y-101500000D01*
X114189153Y-101710847D02*
X114039153Y-101710847D01*
X116200000Y-97050306D02*
X117987347Y-98837653D01*
X110075000Y-86250000D02*
X110075000Y-90425305D01*
X111225000Y-105000000D02*
X111225000Y-112674695D01*
X114825000Y-116274695D02*
X114825000Y-117825000D01*
X111225000Y-112674695D02*
X114825000Y-116274695D01*
X99182000Y-100579000D02*
X95250000Y-96647000D01*
X109850000Y-100579000D02*
X99182000Y-100579000D01*
X130974000Y-105918000D02*
X135636000Y-105918000D01*
X85217000Y-89027000D02*
X84836000Y-88646000D01*
X135636000Y-105918000D02*
X136652000Y-104902000D01*
X85125000Y-93300000D02*
X85217000Y-93208000D01*
X114300000Y-110490000D02*
X114681000Y-110109000D01*
X85217000Y-93208000D02*
X85217000Y-89027000D01*
X114681000Y-110109000D02*
X114681000Y-105410000D01*
X114681000Y-105410000D02*
X109850000Y-100579000D01*
X110250305Y-81875000D02*
X110725305Y-81400000D01*
X116650000Y-96475000D02*
X118725000Y-98550000D01*
X124398937Y-113601000D02*
X125924874Y-112075063D01*
X116550000Y-85575000D02*
X116550000Y-86775000D01*
X110725305Y-81400000D02*
X118825000Y-81400000D01*
X125924874Y-112075063D02*
X128585063Y-112075063D01*
X118725000Y-98550000D02*
X118725000Y-108820937D01*
X115725000Y-88225000D02*
X115100000Y-88850000D01*
X123505063Y-113601000D02*
X124398937Y-113601000D01*
X118825000Y-81400000D02*
X119275000Y-81850000D01*
X103150000Y-80625000D02*
X104400000Y-81875000D01*
X128585063Y-112075063D02*
X136652000Y-120142000D01*
X116650000Y-95875000D02*
X116650000Y-96475000D01*
X115100000Y-94325000D02*
X116650000Y-95875000D01*
X118725000Y-108820937D02*
X123505063Y-113601000D01*
X104400000Y-81875000D02*
X110250305Y-81875000D01*
X115100000Y-88850000D02*
X115100000Y-94325000D01*
X117450000Y-84675000D02*
X116550000Y-85575000D01*
X54002695Y-88175000D02*
X60225000Y-88175000D01*
X50387000Y-82317299D02*
X50387000Y-84559305D01*
X71882000Y-98482000D02*
X71882000Y-100584000D01*
X56790000Y-55746000D02*
X47847000Y-64689000D01*
X65650000Y-95950000D02*
X65650000Y-95000000D01*
X67850000Y-98150000D02*
X65650000Y-95950000D01*
X47847000Y-64689000D02*
X47847000Y-79777299D01*
X50387000Y-84559305D02*
X54002695Y-88175000D01*
X71050000Y-97650000D02*
X71882000Y-98482000D01*
X47847000Y-79777299D02*
X50387000Y-82317299D01*
X92202000Y-58801000D02*
X89027000Y-55626000D01*
X149425000Y-84875000D02*
X148550000Y-84000000D01*
X52578000Y-85725000D02*
X52927000Y-85376000D01*
X105080000Y-60528000D02*
X102997000Y-62611000D01*
X117025000Y-66525000D02*
X117025000Y-64331000D01*
X117025000Y-64331000D02*
X117475000Y-63881000D01*
X148550000Y-84000000D02*
X148550000Y-82725000D01*
X92202000Y-58928000D02*
X92202000Y-58801000D01*
X117475000Y-60528000D02*
X105080000Y-60528000D01*
X57220000Y-71176000D02*
X56790000Y-70746000D01*
X117475000Y-63881000D02*
X117475000Y-60528000D01*
X92202000Y-58928000D02*
X96139000Y-62865000D01*
X52927000Y-85376000D02*
X52927000Y-80854305D01*
X102997000Y-62611000D02*
X98425000Y-62611000D01*
X52927000Y-80854305D02*
X57220000Y-76561305D01*
X124079000Y-58801000D02*
X122352000Y-60528000D01*
X96139000Y-62865000D02*
X98171000Y-62865000D01*
X57220000Y-76561305D02*
X57220000Y-71176000D01*
X98425000Y-62611000D02*
X98171000Y-62865000D01*
X66875000Y-75311000D02*
X81026000Y-75311000D01*
X81026000Y-75311000D02*
X82042000Y-74295000D01*
X122352000Y-60528000D02*
X117475000Y-60528000D01*
X129540000Y-84836000D02*
X136850000Y-77526000D01*
X105664000Y-62103000D02*
X105537000Y-62230000D01*
X102394000Y-83471000D02*
X128175000Y-83471000D01*
X105537000Y-62230000D02*
X105537000Y-65278000D01*
X89027000Y-81026000D02*
X85471000Y-77470000D01*
X89027000Y-83830701D02*
X88487000Y-83290701D01*
X89027000Y-96520000D02*
X89027000Y-83830701D01*
X89154000Y-106553000D02*
X89154000Y-112221000D01*
X88487000Y-82317299D02*
X89027000Y-81777299D01*
X89154000Y-112221000D02*
X82884000Y-118491000D01*
X136850000Y-77526000D02*
X136850000Y-77375000D01*
X91821000Y-72898000D02*
X91440000Y-73279000D01*
X90805000Y-98298000D02*
X89027000Y-96520000D01*
X91821000Y-72898000D02*
X102394000Y-83471000D01*
X91440000Y-73279000D02*
X89281000Y-73279000D01*
X128175000Y-83471000D02*
X129540000Y-84836000D01*
X88487000Y-83290701D02*
X88487000Y-82317299D01*
X89027000Y-81777299D02*
X89027000Y-81026000D01*
X120206000Y-84646000D02*
X135509000Y-99949000D01*
X119715098Y-84646000D02*
X120206000Y-84646000D01*
X135509000Y-99949000D02*
X148082000Y-99949000D01*
X108474695Y-85999695D02*
X107450000Y-84975000D01*
X108229653Y-84195347D02*
X111745347Y-84195347D01*
X108474695Y-89461396D02*
X108474695Y-85999695D01*
X107450000Y-84975000D02*
X108229653Y-84195347D01*
X115462347Y-96387653D02*
X115400952Y-96387653D01*
X111745347Y-84195347D02*
X111850000Y-84300000D01*
X115400952Y-96387653D02*
X108474695Y-89461396D01*
X110000000Y-94800000D02*
X111075000Y-94800000D01*
X112000000Y-95725000D02*
X112000000Y-95900000D01*
X106049695Y-97675000D02*
X107125000Y-97675000D01*
X111075000Y-94800000D02*
X112000000Y-95725000D01*
X109950000Y-94850000D02*
X110000000Y-94800000D01*
X107125000Y-97675000D02*
X109950000Y-94850000D01*
X105119000Y-89544000D02*
X105119000Y-96744305D01*
X116850000Y-82175000D02*
X116700000Y-82325000D01*
X116700000Y-82325000D02*
X103637000Y-82325000D01*
X103637000Y-82325000D02*
X103087000Y-81775000D01*
X105119000Y-96744305D02*
X106049695Y-97675000D01*
X101125000Y-85550000D02*
X105119000Y-89544000D01*
X103505000Y-95377000D02*
X103505000Y-89027000D01*
X104394000Y-96266000D02*
X103505000Y-95377000D01*
X103505000Y-89027000D02*
X97282000Y-82804000D01*
X109855000Y-98552000D02*
X114808000Y-103505000D01*
X78105000Y-90805000D02*
X78105000Y-91821000D01*
X107823000Y-98552000D02*
X109855000Y-98552000D01*
X75946000Y-88646000D02*
X78105000Y-90805000D01*
X133350000Y-102362000D02*
X136652000Y-102362000D01*
X131826000Y-100838000D02*
X133350000Y-102362000D01*
X112395000Y-121920000D02*
X112395000Y-121793000D01*
X105779000Y-126948000D02*
X110807000Y-121920000D01*
X56642000Y-102235000D02*
X49080000Y-109797000D01*
X105779000Y-128434100D02*
X105779000Y-126948000D01*
X50927000Y-134747000D02*
X99466100Y-134747000D01*
X110807000Y-121920000D02*
X112395000Y-121920000D01*
X49080000Y-132900000D02*
X50927000Y-134747000D01*
X112395000Y-121793000D02*
X114300000Y-119888000D01*
X56642000Y-100584000D02*
X56642000Y-102235000D01*
X99466100Y-134747000D02*
X105779000Y-128434100D01*
X49080000Y-109797000D02*
X49080000Y-132900000D01*
X51239000Y-134297000D02*
X51562000Y-134297000D01*
X49530000Y-110236000D02*
X49530000Y-110617000D01*
X49530000Y-132588000D02*
X51239000Y-134297000D01*
X129540000Y-133096000D02*
X134112000Y-128524000D01*
X51562000Y-134297000D02*
X97097000Y-134297000D01*
X127762000Y-133096000D02*
X129540000Y-133096000D01*
X97097000Y-134297000D02*
X100203000Y-131191000D01*
X49530000Y-110617000D02*
X49530000Y-132588000D01*
X59182000Y-100584000D02*
X49530000Y-110236000D01*
X134112000Y-128524000D02*
X134112000Y-120142000D01*
X101600000Y-88519000D02*
X101600000Y-92202000D01*
X142240000Y-83439000D02*
X142240000Y-81661000D01*
X142240000Y-81661000D02*
X142367000Y-81534000D01*
X122301000Y-56388000D02*
X121539000Y-57150000D01*
X118872000Y-57277000D02*
X118872000Y-59309000D01*
X118999000Y-57150000D02*
X118872000Y-57277000D01*
X123571000Y-56388000D02*
X122301000Y-56388000D01*
X121539000Y-57150000D02*
X118999000Y-57150000D01*
X128016000Y-58089250D02*
X128143000Y-57962250D01*
X128016000Y-62814750D02*
X128016000Y-58089250D01*
X127889000Y-62941750D02*
X128016000Y-62814750D01*
X116967000Y-54356000D02*
X118364000Y-52959000D01*
X122936000Y-52959000D02*
X123698000Y-53721000D01*
X118364000Y-52959000D02*
X122936000Y-52959000D01*
X116967000Y-54864000D02*
X116967000Y-54356000D01*
X84328000Y-74930000D02*
X86487000Y-74930000D01*
X80812000Y-62230000D02*
X80812000Y-71414000D01*
X80812000Y-71414000D02*
X84328000Y-74930000D01*
X82169000Y-71120000D02*
X85090000Y-74041000D01*
X85090000Y-74041000D02*
X87503000Y-74041000D01*
X87503000Y-74041000D02*
X87757000Y-74295000D01*
X82169000Y-63373000D02*
X82169000Y-71120000D01*
X87757000Y-74295000D02*
X87757000Y-75819000D01*
X83312000Y-62230000D02*
X82169000Y-63373000D01*
X102926000Y-79050000D02*
X103251000Y-79375000D01*
X75828306Y-85344000D02*
X88302000Y-85344000D01*
X71882000Y-82804000D02*
X73057000Y-83979000D01*
X73057000Y-83979000D02*
X74463306Y-83979000D01*
X109347000Y-79375000D02*
X112268000Y-76454000D01*
X99350000Y-79050000D02*
X102926000Y-79050000D01*
X74463306Y-83979000D02*
X75828306Y-85344000D01*
X103251000Y-79375000D02*
X109347000Y-79375000D01*
X73959000Y-84500000D02*
X70800000Y-84500000D01*
X75484000Y-86025000D02*
X73959000Y-84500000D01*
X95917000Y-83915000D02*
X95917000Y-79343000D01*
X87713000Y-86025000D02*
X75484000Y-86025000D01*
X70800000Y-84500000D02*
X69342000Y-83042000D01*
X94107000Y-85725000D02*
X95917000Y-83915000D01*
X88302000Y-86614000D02*
X87713000Y-86025000D01*
X69342000Y-83042000D02*
X69342000Y-82804000D01*
X95917000Y-79343000D02*
X96520000Y-78740000D01*
X100330000Y-87366695D02*
X100330000Y-87503000D01*
X97709305Y-84746000D02*
X100330000Y-87366695D01*
X96483000Y-84746000D02*
X97709305Y-84746000D01*
X95313500Y-85915500D02*
X96483000Y-84746000D01*
X101934695Y-85307000D02*
X103907000Y-85307000D01*
X101660904Y-83763210D02*
X101510000Y-83914114D01*
X114350305Y-98550000D02*
X115570000Y-99769695D01*
X101510000Y-83914114D02*
X101510000Y-84882305D01*
X115570000Y-99769695D02*
X115570000Y-123063000D01*
X109040696Y-91890696D02*
X114350305Y-97200305D01*
X107490696Y-91890696D02*
X109040696Y-91890696D01*
X107490696Y-88890696D02*
X107490696Y-91890696D01*
X103907000Y-85307000D02*
X107490696Y-88890696D01*
X101510000Y-84882305D02*
X101934695Y-85307000D01*
X114350305Y-97200305D02*
X114350305Y-98550000D01*
X102235000Y-84582000D02*
X103818396Y-84582000D01*
X114800305Y-97013909D02*
X114800305Y-98363604D01*
X127381000Y-122045063D02*
X127381000Y-122682000D01*
X124398937Y-119063000D02*
X127381000Y-122045063D01*
X114800305Y-98363604D02*
X117919000Y-101482299D01*
X109227092Y-91440696D02*
X114800305Y-97013909D01*
X117919000Y-101482299D02*
X117919000Y-113220000D01*
X103818396Y-84582000D02*
X107940696Y-88704300D01*
X117919000Y-113220000D02*
X123762000Y-119063000D01*
X107940696Y-91440696D02*
X109227092Y-91440696D01*
X123762000Y-119063000D02*
X124398937Y-119063000D01*
X107940696Y-88704300D02*
X107940696Y-91440696D01*
X100203000Y-115316000D02*
X106299000Y-115316000D01*
X106299000Y-115316000D02*
X106426000Y-115189000D01*
X104454000Y-121733000D02*
X108966000Y-117221000D01*
X104454000Y-127614000D02*
X104454000Y-121733000D01*
X125485306Y-122047000D02*
X125607653Y-121924653D01*
X110361000Y-124207000D02*
X117474000Y-124207000D01*
X129921000Y-118237000D02*
X126619000Y-114935000D01*
X117474000Y-124207000D02*
X119634000Y-122047000D01*
X106954000Y-127614000D02*
X110361000Y-124207000D01*
X126619000Y-114935000D02*
X126619000Y-113030000D01*
X119634000Y-122047000D02*
X125485306Y-122047000D01*
X117170000Y-126289000D02*
X120269000Y-123190000D01*
X110779000Y-126289000D02*
X117170000Y-126289000D01*
X127254000Y-119253000D02*
X127254000Y-118491000D01*
X127254000Y-118491000D02*
X125222000Y-116459000D01*
X109454000Y-127614000D02*
X110779000Y-126289000D01*
X79936000Y-114808000D02*
X79809000Y-114681000D01*
X79809000Y-114681000D02*
X77216000Y-114681000D01*
X82129000Y-120276000D02*
X80344000Y-118491000D01*
X82470000Y-127614000D02*
X82129000Y-127273000D01*
X82129000Y-127273000D02*
X82129000Y-120276000D01*
X71247000Y-122174000D02*
X67564000Y-118491000D01*
X67082500Y-114808000D02*
X65024000Y-114808000D01*
X65024000Y-114808000D02*
X64897000Y-114681000D01*
X71247000Y-127508000D02*
X71247000Y-122174000D01*
X102425500Y-77914500D02*
X102997000Y-77343000D01*
X103124000Y-77216000D02*
X103124000Y-75184000D01*
X102997000Y-77343000D02*
X103124000Y-77216000D01*
X103124000Y-75184000D02*
X103632000Y-74676000D01*
X103632000Y-74676000D02*
X107823000Y-74676000D01*
X97052000Y-94234000D02*
X98806000Y-92480000D01*
X119544000Y-83021000D02*
X123317000Y-79248000D01*
X126111000Y-74240251D02*
X124959000Y-73088251D01*
X100076000Y-79883000D02*
X103214000Y-83021000D01*
X126111000Y-78613000D02*
X126111000Y-74240251D01*
X124959000Y-71185000D02*
X123872000Y-70098000D01*
X103214000Y-83021000D02*
X119544000Y-83021000D01*
X125476000Y-79248000D02*
X126111000Y-78613000D01*
X123317000Y-79248000D02*
X125476000Y-79248000D01*
X98806000Y-86868000D02*
X97409000Y-85471000D01*
X98806000Y-92480000D02*
X98806000Y-86868000D01*
X124959000Y-73088251D02*
X124959000Y-71185000D01*
X56495000Y-76261000D02*
X50353000Y-76261000D01*
X50353000Y-76261000D02*
X49403000Y-75311000D01*
X152363000Y-116750000D02*
X153924000Y-115189000D01*
X154950000Y-112975000D02*
X154950000Y-114163000D01*
X152275000Y-116750000D02*
X152363000Y-116750000D01*
X154950000Y-114163000D02*
X153924000Y-115189000D01*
X75812000Y-72002000D02*
X77470000Y-73660000D01*
X84582000Y-105537000D02*
X84582000Y-100584000D01*
X83947000Y-106172000D02*
X84582000Y-105537000D01*
X83693000Y-99695000D02*
X84582000Y-100584000D01*
X75812000Y-62230000D02*
X75812000Y-72002000D01*
X83693000Y-89027000D02*
X83693000Y-99695000D01*
X73279000Y-71755000D02*
X74930000Y-73406000D01*
X80772000Y-96637695D02*
X80772000Y-90297000D01*
X73312000Y-62230000D02*
X73312000Y-71722000D01*
X73312000Y-71722000D02*
X73279000Y-71755000D01*
X80772000Y-90297000D02*
X82042000Y-89027000D01*
X74930000Y-73406000D02*
X74930000Y-73660000D01*
X80391000Y-98679000D02*
X80391000Y-97018695D01*
X80391000Y-97018695D02*
X80772000Y-96637695D01*
X81915000Y-106934000D02*
X82042000Y-106807000D01*
X86350000Y-94025000D02*
X85947000Y-93622000D01*
X85947000Y-88678000D02*
X85979000Y-88646000D01*
X82025000Y-94025000D02*
X82042000Y-94042000D01*
X82042000Y-106807000D02*
X82042000Y-100584000D01*
X85947000Y-93622000D02*
X85947000Y-88678000D01*
X78312000Y-62230000D02*
X78312000Y-72216000D01*
X82042000Y-94042000D02*
X82042000Y-100584000D01*
X78312000Y-72216000D02*
X79375000Y-73279000D01*
X69425000Y-100501000D02*
X69425000Y-98125000D01*
X68072000Y-70612000D02*
X72263000Y-66421000D01*
X67474000Y-96174000D02*
X67474000Y-86228000D01*
X67474000Y-86228000D02*
X68130000Y-85572000D01*
X67437000Y-65913000D02*
X67056000Y-65532000D01*
X69342000Y-100584000D02*
X69425000Y-100501000D01*
X69596000Y-65913000D02*
X67437000Y-65913000D01*
X65812000Y-64288000D02*
X65812000Y-62230000D01*
X68130000Y-78047000D02*
X68199000Y-77978000D01*
X68130000Y-85572000D02*
X68130000Y-78047000D01*
X69425000Y-98125000D02*
X67474000Y-96174000D01*
X67056000Y-65532000D02*
X65812000Y-64288000D01*
X68072000Y-73914000D02*
X68072000Y-70612000D01*
X155194000Y-91440000D02*
X144785000Y-91440000D01*
X144785000Y-91440000D02*
X139025000Y-97200000D01*
X125025000Y-99475000D02*
X120675000Y-99475000D01*
X137275000Y-98225000D02*
X135600000Y-98225000D01*
X120675000Y-99475000D02*
X118300000Y-97100000D01*
X135600000Y-98225000D02*
X132850000Y-95475000D01*
G04 #@! TA.AperFunction,Conductor*
G36*
X123555588Y-52759608D02*
G01*
X125095000Y-53086000D01*
X125095001Y-53085999D01*
X125095002Y-53086000D01*
X131063201Y-52959017D01*
X131064775Y-52959000D01*
X132641000Y-52959000D01*
X132693326Y-52980674D01*
X132715000Y-53033000D01*
X132715000Y-56388000D01*
X147287940Y-56388000D01*
X147340266Y-56409674D01*
X147341926Y-56411388D01*
X151854248Y-61224532D01*
X151874224Y-61277530D01*
X151850874Y-61329130D01*
X151797876Y-61349106D01*
X151773530Y-61344147D01*
X151729498Y-61327088D01*
X151517724Y-61287500D01*
X151302275Y-61287500D01*
X151090501Y-61327088D01*
X150919154Y-61393468D01*
X151307791Y-61782106D01*
X151213110Y-61800940D01*
X151090268Y-61851823D01*
X150979713Y-61925693D01*
X150885693Y-62019713D01*
X150811823Y-62130268D01*
X150760940Y-62253110D01*
X150742106Y-62347791D01*
X150355002Y-61960687D01*
X150321355Y-62028263D01*
X150321355Y-62028264D01*
X150262397Y-62235481D01*
X150242520Y-62449996D01*
X150242520Y-62450000D01*
X150262397Y-62664518D01*
X150321356Y-62871739D01*
X150321359Y-62871746D01*
X150355001Y-62939311D01*
X150355002Y-62939311D01*
X150742106Y-62552206D01*
X150760940Y-62646890D01*
X150811823Y-62769732D01*
X150885693Y-62880287D01*
X150979713Y-62974307D01*
X151090268Y-63048177D01*
X151213110Y-63099060D01*
X151307790Y-63117893D01*
X150919154Y-63506530D01*
X151090501Y-63572911D01*
X151302275Y-63612499D01*
X151302279Y-63612500D01*
X151437649Y-63612500D01*
X151489975Y-63634174D01*
X151511649Y-63686500D01*
X151489975Y-63738826D01*
X151484313Y-63743932D01*
X151058019Y-64090296D01*
X151003740Y-64106471D01*
X150955977Y-64081949D01*
X146050000Y-58547000D01*
X146049999Y-58546999D01*
X131262241Y-58420608D01*
X131210102Y-58398488D01*
X131188905Y-58348788D01*
X131127500Y-56261000D01*
X131089466Y-56219232D01*
X130664001Y-55752000D01*
X130664000Y-55752000D01*
X124837457Y-55752000D01*
X124807837Y-55745814D01*
X123952000Y-55372000D01*
X123951999Y-55372000D01*
X118999000Y-55372000D01*
X116099849Y-58397201D01*
X116047996Y-58419983D01*
X116046422Y-58420000D01*
X106426000Y-58420000D01*
X106425999Y-58420000D01*
X106425998Y-58420001D01*
X105708399Y-59376799D01*
X105659664Y-59405655D01*
X105604799Y-59391599D01*
X104706335Y-58717751D01*
X104677479Y-58669016D01*
X104690888Y-58615028D01*
X105641836Y-57307474D01*
X105690141Y-57277906D01*
X105701682Y-57277000D01*
X115950999Y-57277000D01*
X115951000Y-57277000D01*
X116993599Y-55495037D01*
X117038730Y-55460821D01*
X117047794Y-55459045D01*
X117123762Y-55449044D01*
X117269841Y-55388536D01*
X117395282Y-55292282D01*
X117491536Y-55166841D01*
X117552044Y-55020762D01*
X117572682Y-54864000D01*
X117552044Y-54707238D01*
X117525690Y-54643613D01*
X117525690Y-54586979D01*
X117530176Y-54577945D01*
X117983373Y-53803362D01*
X117994915Y-53788411D01*
X118477153Y-53306174D01*
X118529479Y-53284500D01*
X122770521Y-53284500D01*
X122822847Y-53306174D01*
X123083423Y-53566749D01*
X123105097Y-53619075D01*
X123104464Y-53628733D01*
X123092318Y-53720999D01*
X123112955Y-53877760D01*
X123112955Y-53877761D01*
X123173464Y-54023841D01*
X123269715Y-54149279D01*
X123269720Y-54149284D01*
X123353345Y-54213451D01*
X123395159Y-54245536D01*
X123541238Y-54306044D01*
X123698000Y-54326682D01*
X123854762Y-54306044D01*
X124000841Y-54245536D01*
X124126282Y-54149282D01*
X124222536Y-54023841D01*
X124283044Y-53877762D01*
X124303682Y-53721000D01*
X124283044Y-53564238D01*
X124222536Y-53418159D01*
X124190451Y-53376345D01*
X124126284Y-53292720D01*
X124126279Y-53292715D01*
X124000841Y-53196464D01*
X123854761Y-53135955D01*
X123718637Y-53118034D01*
X123698000Y-53115318D01*
X123697999Y-53115318D01*
X123605733Y-53127464D01*
X123551026Y-53112805D01*
X123543749Y-53106423D01*
X123321653Y-52884326D01*
X123299979Y-52832000D01*
X123321653Y-52779674D01*
X123373979Y-52758000D01*
X123540240Y-52758000D01*
X123555588Y-52759608D01*
G37*
G04 #@! TD.AperFunction*
G04 #@! TA.AperFunction,Conductor*
G36*
X91230314Y-60337661D02*
G01*
X92910329Y-60817665D01*
X92954688Y-60852880D01*
X92964000Y-60888818D01*
X92964000Y-62584527D01*
X92947207Y-62631466D01*
X84904495Y-72433521D01*
X84854549Y-72460225D01*
X84800349Y-72443789D01*
X84782866Y-72422994D01*
X83208998Y-69638459D01*
X83202121Y-69582243D01*
X83214556Y-69557207D01*
X85215124Y-66931461D01*
X85219068Y-66926711D01*
X91155093Y-60359194D01*
X91206258Y-60334909D01*
X91230314Y-60337661D01*
G37*
G04 #@! TD.AperFunction*
M02*
